<svg xmlns="http://www.w3.org/2000/svg" width="64" height="64" viewBox="0 0 64 64"><title>folder_closed_64</title><path d="M3.07,54.59H55.15V13.39H16.87a1,1,0,0,1-1-1V8.59H3.07Z" opacity="0.12"/><path d="M55.25,56.59H3a1.91,1.91,0,0,1-1.9-1.9V8.49A1.9,1.9,0,0,1,3,6.59H16a1.91,1.91,0,0,1,1.9,1.9v2.9H55.25a1.9,1.9,0,0,1,1.9,1.9v41.4A1.91,1.91,0,0,1,55.25,56.59Zm-52.18-2H55.15V13.39H16.87a1,1,0,0,1-1-1V8.59H3.07Zm52.18-41.2h0Z" fill="#fff" opacity="0.8"/><polygon points="4.74 54.59 56.45 54.59 62.28 18.19 10.58 18.19 4.74 54.59" opacity="0.1"/><path d="M56.46,56.59H3v-2a.48.48,0,0,0-.31.1.32.32,0,0,0,.06-.16l5.82-36.6a2.09,2.09,0,0,1,2-1.74h52a1.77,1.77,0,0,1,1.36.61,1.8,1.8,0,0,1,.39,1.44l-5.81,36.6A2.11,2.11,0,0,1,56.46,56.59Zm-51.72-2H56.46l5.82-36.4H10.58Z" fill="#fff"/></svg>