<svg xmlns="http://www.w3.org/2000/svg" width="112" height="112" viewBox="0 0 112 112"><title>folder_closed_faint_yellow</title><path d="M91.78,27.2H34.2V21.35A1.34,1.34,0,0,0,32.85,20H13.35A1.34,1.34,0,0,0,12,21.35v69.3A1.34,1.34,0,0,0,13.35,92H91.78a1.34,1.34,0,0,0,1.35-1.35V28.55A1.34,1.34,0,0,0,91.78,27.2Z" fill="#ccb910" fill-rule="evenodd" opacity="0.8"/><path d="M24.75,34.4h78a1.12,1.12,0,0,1,1.14,1.35l-8.72,54.9A1.64,1.64,0,0,1,93.58,92H13.35c.53,0,1-.6,1.11-1.35l8.73-54.9A1.62,1.62,0,0,1,24.75,34.4Z" fill="#ffee52" fill-rule="evenodd" opacity="0.8"/></svg>