<svg xmlns="http://www.w3.org/2000/svg" xmlns:xlink="http://www.w3.org/1999/xlink" width="272" height="272" viewBox="0 0 272 272"><defs><linearGradient id="a" x1="53" y1="121" x2="65" y2="121" gradientUnits="userSpaceOnUse"><stop offset="0" stop-color="#f7c628" stop-opacity="0"/><stop offset="1" stop-color="#f7c628"/></linearGradient></defs><title>folder-book</title><path d="M213,62V26H56c-10,0-15.06,6.21-15,15l0,.66V219a27.27,27.27,0,0,0,2,9.65C48.46,241.89,60.77,246,74,246H231V62Z" fill="#e8b000"/><polygon points="213 51.89 213 216 212.22 216 219.95 234.65 219.95 68.65 213 51.89" fill="#f4f4f4"/><path d="M212.22,216H56c-2,0-1.46,4.53-1,6.65,1.36,6.62,8.55,12,15.17,12H220Z" fill="#ccc"/><rect x="65" y="29" width="145" height="184" fill="#f7c628"/><rect x="53" y="29" width="12" height="184" fill="url(#a)"/></svg>