<?xml version="1.0" standalone="no"?>
<!DOCTYPE svg PUBLIC "-//W3C//DTD SVG 1.1//EN" "http://www.w3.org/Graphics/SVG/1.1/DTD/svg11.dtd" >
<svg xmlns="http://www.w3.org/2000/svg">
<metadata>Generated by IcoMoon</metadata>
<defs>
<font id="skinicon-thin" horiz-adv-x="1024">
<font-face units-per-em="1024" ascent="960" descent="-64" />
<missing-glyph horiz-adv-x="1024" />
<glyph unicode="&#x20;" horiz-adv-x="512" d="" />
<glyph unicode="&#xe900;" glyph-name="arrow-down" d="M512 853.333v-679.822l293.547 293.547 39.822-40.391-361.813-361.813-361.813 361.813 39.822 40.391 293.547-293.547v679.822h56.889z" />
<glyph unicode="&#xe901;" glyph-name="arrow-left" d="M910.222 455.111h-679.822l293.547 293.547-40.391 39.822-361.813-361.813 361.813-361.813 40.391 39.822-293.547 293.547h679.822v56.889z" />
<glyph unicode="&#xe902;" glyph-name="arrow-right" d="M113.778 455.111h679.822l-293.547 293.547 40.391 39.822 361.813-361.813-361.813-361.813-40.391 39.822 293.547 293.547h-679.822v56.889z" />
<glyph unicode="&#xe903;" glyph-name="arrow-up" d="M512 56.889v679.822l293.547-293.547 39.822 40.391-361.813 361.813-361.813-361.813 39.822-40.391 293.547 293.547v-679.822h56.889z" />
<glyph unicode="&#xe904;" glyph-name="audio" d="M284.444 786.773v-563.769c-12.771 3.958-27.452 6.237-42.667 6.237s-29.896-2.28-43.722-6.516l1.056 0.278c-73.876-16.611-130.223-76.021-142.084-150.276l-0.138-1.048c0-63.147 63.716-96.711 142.222-75.662 74.193 16.384 130.758 76.206 142.096 150.882l0.126 1.011v426.667l455.111 122.88v-335.644c-12.772 3.942-27.454 6.213-42.667 6.213s-29.895-2.27-43.727-6.491l1.060 0.278c-74.193-16.384-130.758-76.206-142.096-150.882l-0.126-1.011c0-62.578 63.716-96.711 142.222-75.662 73.572 16.461 129.789 75.357 142.075 149.114l0.148 1.073v655.929zM284.444 147.911c0-32.996-42.667-81.92-100.124-97.28-7.328-2.516-15.771-3.969-24.553-3.969-14.196 0-27.505 3.795-38.969 10.427l0.375-0.2c-4.478 3.436-7.349 8.774-7.396 14.783v0.008c0 32.996 42.667 81.351 100.124 96.711 6.864 1.559 14.746 2.453 22.836 2.453 2.173 0 4.331-0.064 6.472-0.192l-0.295 0.014c0.299 0.004 0.653 0.007 1.007 0.007 7.969 0 15.646-1.251 22.845-3.567l-0.528 0.147 18.204-7.396zM796.444 284.444c0-32.996-42.667-81.351-100.124-96.711-8.043-3.045-17.341-4.808-27.051-4.808-13.187 0-25.614 3.251-36.525 8.996l0.429-0.206c-4.541 3.68-7.42 9.257-7.42 15.506 0 0.349 0.009 0.696 0.027 1.040l-0.002-0.048c0 32.996 42.667 81.92 100.124 97.28 8.61 2.237 18.569 3.671 28.811 3.977l0.202 0.005c0.299 0.004 0.653 0.007 1.007 0.007 7.969 0 15.646-1.251 22.845-3.567l-0.528 0.147 18.204-7.396zM796.444 756.622l-455.111-123.449v109.796l455.111 123.449z" />
<glyph unicode="&#xe905;" glyph-name="bookmark" d="M796.444 853.333v-731.022l-280.462 236.089-36.409-30.151-252.018-207.644v732.729h568.889zM853.333 910.222h-682.667v-910.222l345.316 284.444 337.351-284.444v910.222z" />
<glyph unicode="&#xe906;" glyph-name="calendar" d="M796.444 853.333v56.889h-170.667v-56.889h-227.556v56.889h-170.667v-56.889h-170.667v-853.333h910.222v853.333zM910.222 56.889h-796.444v568.889h796.444zM910.222 682.667h-796.444v113.778h113.778v-56.889h170.667v56.889h227.556v-56.889h170.667v56.889h113.778zM341.333 796.444h-56.889v56.889h56.889zM739.556 796.444h-56.889v56.889h56.889zM284.444 455.111h-56.889v56.889h56.889zM455.111 455.111h-56.889v56.889h56.889zM625.778 455.111h-56.889v56.889h56.889zM796.444 455.111h-56.889v56.889h56.889zM284.444 284.444h-56.889v56.889h56.889zM455.111 284.444h-56.889v56.889h56.889zM625.778 284.444h-56.889v56.889h56.889zM796.444 284.444h-56.889v56.889h56.889zM284.444 113.778h-56.889v56.889h56.889zM455.111 113.778h-56.889v56.889h56.889zM625.778 113.778h-56.889v56.889h56.889z" />
<glyph unicode="&#xe907;" glyph-name="camera" d="M512 156.444c-133.53 0-241.778 108.248-241.778 241.778s108.248 241.778 241.778 241.778c133.53 0 241.778-108.248 241.778-241.778v0c-0.323-133.4-108.377-241.455-241.747-241.778h-0.031zM512 583.111c-102.111 0-184.889-82.778-184.889-184.889s82.778-184.889 184.889-184.889c102.111 0 184.889 82.778 184.889 184.889v0c-0.322 101.981-82.907 184.566-184.858 184.889h-0.031zM881.778 56.889h-739.556c-47.128 0-85.333 38.205-85.333 85.333v0 455.111c0 47.128 38.205 85.333 85.333 85.333v0h113.778l20.48 101.831c8.146 39.175 42.124 68.278 82.998 68.835l0.060 0.001h304.924c41.169-0.279 75.439-29.475 83.529-68.278l0.097-0.558 20.48-101.831h113.778c46.883-0.323 84.764-38.403 84.764-85.331 0-0.001 0-0.001 0-0.002v0-455.111c0-47.128-38.205-85.333-85.333-85.333v0zM142.222 625.778c-15.709 0-28.444-12.735-28.444-28.444v0-455.111c0-15.709 12.735-28.444 28.444-28.444v0h739.556c15.709 0 28.444 12.735 28.444 28.444v0 455.111c0 15.709-12.735 28.444-28.444 28.444v0h-159.858l-29.582 147.911c-2.739 13.076-14.174 22.756-27.87 22.756-0.002 0-0.004 0-0.006 0h-304.924c-13.856-0.052-25.373-10.004-27.848-23.148l-0.028-0.177-29.582-147.342z" />
<glyph unicode="&#xe908;" glyph-name="caret-down" d="M242.347 527.36l39.822 39.822 201.387-200.818 201.387 200.818 39.822-39.822-241.209-241.209-241.209 241.209z" />
<glyph unicode="&#xe909;" glyph-name="caret-large-down" d="M512 208.213l-455.111 455.111 38.684 38.684 416.427-417.564 416.427 416.427 38.684-38.684z" />
<glyph unicode="&#xe90a;" glyph-name="caret-large-left" d="M265.102 455.111l455.111 455.111 38.684-38.684-417.564-416.427 416.427-416.427-38.684-38.684z" />
<glyph unicode="&#xe90b;" glyph-name="caret-large-right" d="M303.787 0l-38.684 38.684 417.564 416.427-417.564 416.427 38.684 38.684 455.111-455.111z" />
<glyph unicode="&#xe90c;" glyph-name="caret-large-up" d="M967.111 246.898l-38.684-38.684-416.427 417.564-416.427-417.564-38.684 38.684 455.111 455.111z" />
<glyph unicode="&#xe90d;" glyph-name="caret-left" d="M584.249 667.875l39.822-39.822-200.818-201.387 200.818-201.387-39.822-39.822-241.209 241.209 241.209 241.209z" />
<glyph unicode="&#xe90e;" glyph-name="caret-right" d="M439.751 667.875l-39.822-39.822 200.818-201.387-200.818-201.387 39.822-39.822 241.209 241.209-241.209 241.209z" />
<glyph unicode="&#xe90f;" glyph-name="caret-up" d="M242.347 382.862l39.822-39.822 201.387 200.818 201.387-200.818 39.822 39.822-241.209 241.209-241.209-241.209z" />
<glyph unicode="&#xe910;" glyph-name="cart-fotomoto" d="M967.111 967.111h-398.222c-31.419 0-56.889-25.47-56.889-56.889v0-284.444h-296.96l-44.373 170.667h-170.667v-56.889h128l113.778-455.111 29.013-113.778c-56.195-7.53-99.079-55.169-99.079-112.824 0-62.838 50.94-113.778 113.778-113.778s113.778 50.94 113.778 113.778c0 20.56-5.453 39.846-14.992 56.491l0.293-0.556h202.524c-9.569-16.31-15.221-35.92-15.221-56.85 0-62.838 50.94-113.778 113.778-113.778s113.778 50.94 113.778 113.778c0 62.838-50.94 113.778-113.778 113.778-1.049 0-2.095-0.014-3.137-0.042l0.154 0.003h-353.849l-28.444 113.778h467.627l42.667 170.667h156.444c31.419 0 56.889 25.47 56.889 56.889v0 398.222c0 31.419-25.47 56.889-56.889 56.889v0zM682.667 113.778c31.419 0 56.889-25.47 56.889-56.889s-25.47-56.889-56.889-56.889c-31.419 0-56.889 25.47-56.889 56.889v0c0 31.419 25.47 56.889 56.889 56.889v0zM341.333 56.889c0-31.419-25.47-56.889-56.889-56.889s-56.889 25.47-56.889 56.889c0 31.419 25.47 56.889 56.889 56.889v0c31.419 0 56.889-25.47 56.889-56.889v0zM723.627 341.333h-439.182l-56.889 227.556h284.444v-56.889c0-31.419 25.47-56.889 56.889-56.889v0h183.182zM880.071 568.889c-15.526 0.628-27.876 13.368-27.876 28.991 0 16.024 12.99 29.013 29.013 29.013 16.016 0 29.001-12.977 29.013-28.99v-0.001c0-0.007 0-0.014 0-0.022 0-16.024-12.99-29.013-29.013-29.013-0.4 0-0.798 0.008-1.195 0.024l0.057-0.002zM880.071 796.444h-197.404v-56.889h170.667c15.709 0 28.444-12.735 28.444-28.444v0c0-15.709-12.735-28.444-28.444-28.444v0h-170.667v-85.333c0-15.709-12.735-28.444-28.444-28.444s-28.444 12.735-28.444 28.444v0 227.556c0 15.709 12.735 28.444 28.444 28.444v0h227.556c15.709 0 28.444-12.735 28.444-28.444v0c0-15.709-12.735-28.444-28.444-28.444v0z" />
<glyph unicode="&#xe911;" glyph-name="checkbox-checked" d="M967.111 0h-910.222v910.222h910.222zM910.222 853.333h-796.444v-796.444h796.444zM705.991 762.311l-232.676-403.911-196.836 113.778-56.889-98.987 295.253-170.667 289.564 502.898z" />
<glyph unicode="&#xe912;" glyph-name="checkmark" d="M781.084 765.155l49.493-28.444-284.444-492.658-56.889-98.987-98.418 56.889-197.404 113.778 28.444 49.493 246.329-142.222 28.444 49.493 284.444 492.658zM760.604 842.524l-312.889-541.582-246.329 142.222-87.609-147.911 246.329-142.222 151.893-85.333 85.333 147.911 312.889 541.582-147.342 85.333z" />
<glyph unicode="&#xe913;" glyph-name="close" d="M810.098 793.6l-298.098-298.098-298.098 298.098-40.391-40.391 298.098-298.098-298.098-298.098 40.391-40.391 298.098 298.098 298.098-298.098 40.391 40.391-298.098 298.098 298.098 298.098-40.391 40.391z" />
<glyph unicode="&#xe914;" glyph-name="comment" d="M227.556 16.498v211.058h-113.778v568.889h796.444v-568.889h-471.609zM170.667 739.555v-455.111h113.778v-130.276l130.276 130.276h438.613v455.111z" />
<glyph unicode="&#xe915;" glyph-name="connect" d="M739.556 853.333c62.838 0 113.778-50.94 113.778-113.778s-50.94-113.778-113.778-113.778c-62.838 0-113.778 50.94-113.778 113.778v0c0 62.838 50.94 113.778 113.778 113.778v0zM739.556 284.444c62.838 0 113.778-50.94 113.778-113.778s-50.94-113.778-113.778-113.778c-62.838 0-113.778 50.94-113.778 113.778v0c0 62.838 50.94 113.778 113.778 113.778v0zM246.898 568.889c62.838 0 113.778-50.94 113.778-113.778s-50.94-113.778-113.778-113.778c-62.838 0-113.778 50.94-113.778 113.778v0c0 62.838 50.94 113.778 113.778 113.778v0zM739.556 341.333c-52.559-0.243-99.472-24.207-130.618-61.728l-0.227-0.281-202.524 118.898c6.65 16.882 10.505 36.435 10.505 56.889s-3.855 40.007-10.878 57.973l0.373-1.084 202.524 113.778c31.518-37.42 78.399-61.031 130.794-61.031 94.257 0 170.667 76.41 170.667 170.667s-76.41 170.667-170.667 170.667c-92.8 0-168.301-74.067-170.612-166.31l-0.004-0.214c0.564-20.596 4.69-40.067 11.78-58.046l-0.402 1.157-202.524-118.898c-31.532 37.993-78.765 62.009-131.608 62.009-94.257 0-170.667-76.41-170.667-170.667s76.41-170.667 170.667-170.667c52.843 0 100.076 24.016 131.381 61.728l0.227 0.281 202.524-118.898c-6.688-16.821-10.814-36.293-11.373-56.655l-0.005-0.234c0-94.257 76.41-170.667 170.667-170.667s170.667 76.41 170.667 170.667c0 94.257-76.41 170.667-170.667 170.667v0z" />
<glyph unicode="&#xe916;" glyph-name="contract" d="M671.289 568.889h187.733v-56.889h-284.444v284.444h56.889v-187.164l311.182 311.182 40.391-39.822zM52.338 29.582l39.822-39.822 311.751 311.182v-187.164h56.889v284.444h-284.444v-56.889h187.164z" />
<glyph unicode="&#xe917;" glyph-name="copy" d="M227.556 796.444v-796.444h682.667v796.444zM853.333 56.889h-568.889v682.667h568.889zM113.778 910.222h568.889v-56.889h56.889v113.778h-682.667v-853.333h113.778v56.889h-56.889z" />
<glyph unicode="&#xe918;" glyph-name="cut" d="M936.96 341.333c-36.404 34.866-85.887 56.331-140.384 56.331-44.469 0-85.601-14.292-119.051-38.534l0.59 0.407-125.724 124.018 378.88 379.449-39.822 39.822-379.449-378.88-379.449 378.88-39.822-39.822 378.88-379.449-125.724-125.724c-33.062 24.286-74.569 38.864-119.481 38.864-54.002 0-103.082-21.077-139.461-55.453l0.097 0.091c-36.142-35.878-58.514-85.584-58.514-140.516s22.372-104.638 58.502-140.504l0.012-0.012c35.433-37.114 85.268-60.215 140.499-60.302h0.017c0.897-0.015 1.954-0.023 3.014-0.023 53.69 0 102.301 21.747 137.503 56.914l-0.002-0.002c35.165 35.201 56.912 83.812 56.912 137.502 0 1.060-0.008 2.117-0.025 3.173l0.002-0.159c-0.265 44.92-15.407 86.253-40.742 119.376l0.351-0.478 127.431 126.862 125.724-125.156c-24.984-32.644-40.126-73.977-40.391-118.836v-0.062c-0.011-0.769-0.017-1.676-0.017-2.585 0-109.652 88.89-198.542 198.542-198.542 56.039 0 106.655 23.216 142.754 60.556l0.054 0.056c36.142 35.878 58.514 85.584 58.514 140.516s-22.372 104.638-58.502 140.504l-0.012 0.012zM328.249 98.418c-26.163-24.89-61.64-40.202-100.693-40.202s-74.53 15.312-100.754 40.259l0.061-0.058c-25.661 25.724-41.529 61.229-41.529 100.439 0 78.547 63.675 142.222 142.222 142.222s142.222-63.675 142.222-142.222c0-39.21-15.868-74.715-41.532-100.442l0.003 0.003zM897.138 98.418c-26.163-24.89-61.64-40.202-100.693-40.202s-74.53 15.312-100.754 40.259l0.061-0.058c-25.661 25.724-41.529 61.229-41.529 100.439 0 78.547 63.675 142.222 142.222 142.222s142.222-63.675 142.222-142.222c0-39.21-15.868-74.715-41.532-100.442l0.003 0.003z" />
<glyph unicode="&#xe919;" glyph-name="digg" d="M341.333 625.778h56.889v-341.333h-56.889zM227.556 739.555h56.889v-455.111h-227.556v341.333h170.667zM227.556 568.889h-113.778v-227.556h113.778zM341.333 682.667h56.889v56.889h-56.889zM455.111 625.778h227.556v-455.111h-227.556v56.889h170.667v56.889h-170.667zM512 341.333h113.778v227.556h-113.778zM967.111 625.778v-455.111h-227.556v56.889h170.667v56.889h-170.667v341.333zM910.222 341.333v227.556h-113.778v-227.556z" />
<glyph unicode="&#xe91a;" glyph-name="disk" d="M796.444 853.333h-568.889l-170.667-455.111v-284.444h910.222v284.444zM266.809 796.444h490.382l149.049-398.222h-788.48zM910.222 170.667h-796.444v170.667h796.444zM284.444 227.555h-56.889v56.889h56.889z" />
<glyph unicode="&#xe91b;" glyph-name="document" d="M628.622 910.222h-514.844v-910.222h796.444v625.778zM625.778 832.284l204.231-206.507h-204.231zM853.333 56.889h-682.667v796.444h398.222v-284.444h284.444z" />
<glyph unicode="&#xe91c;" glyph-name="download" d="M455.111 853.333h56.889v-389.12l193.991 194.56 40.391-40.391-262.827-262.827-262.827 262.827 40.391 40.391 193.991-194.56zM853.333 284.444v-170.667h-739.556v170.667h-56.889v-227.556h853.333v227.556z" />
<glyph unicode="&#xe91d;" glyph-name="edit" d="M923.876 719.644l-147.342 147.342c-15.5 15.284-36.799 24.724-60.302 24.724s-44.802-9.439-60.312-24.733l0.010 0.010-459.662-460.231c-27.656-29.767-49.101-65.714-62.013-105.507l-0.565-2.013-56.889-203.093c-1.818-5.624-2.867-12.094-2.867-18.81 0-16.727 6.503-31.934 17.12-43.232l-0.031 0.033c10.217-9.868 24.148-15.948 39.499-15.948 0.514 0 1.026 0.007 1.537 0.020l-0.075-0.002c7.546 0.157 14.778 1.185 21.698 2.988l-0.649-0.144 203.093 56.889c41.843 13.342 77.816 34.808 107.68 62.726l-0.16-0.148 460.231 459.662c14.952 15.438 24.168 36.51 24.168 59.733s-9.216 44.295-24.19 59.756l0.022-0.023zM341.333 131.413l-95.004-25.6-83.627 83.627 25.6 95.004c5.714 17.383 12.844 32.438 21.565 46.397l-0.516-0.886 177.493-177.493c-13.073-8.205-28.128-15.335-44.025-20.621l-1.486-0.428zM883.484 639.431l-451.698-451.698-187.164 187.164 451.698 451.698c5.074 5.175 12.103 8.419 19.89 8.533h0.021c8.004-0.020 15.242-3.278 20.479-8.533l146.774-146.774c5.197-5.156 8.414-12.3 8.414-20.196s-3.217-15.040-8.412-20.194l-0.002-0.002z" />
<glyph unicode="&#xe91e;" glyph-name="email" d="M512 910.222l-455.111-256v-597.333h910.222v597.333zM861.867 647.964l-349.867-185.458-349.867 185.458 349.867 196.836zM910.222 113.778h-796.444v495.502l398.222-211.058 398.222 211.058z" />
<glyph unicode="&#xe91f;" glyph-name="email-send" d="M19.911 484.693l264.533-132.551v-335.644l201.387 201.387 299.804-240.64 192.284 954.027zM150.756 484.693l645.689 298.667-486.969-380.018zM341.333 356.124l440.32 344.747-319.716-426.667-120.604-120.036zM748.658 79.644l-227.556 181.476 359.538 478.436z" />
<glyph unicode="&#xe920;" glyph-name="end" d="M284.444 651.947l341.333-196.836-341.333-196.836v393.671zM227.556 750.933v-591.644l512 295.822-512 295.822zM796.444 739.555h-56.889v-568.889h56.889z" />
<glyph unicode="&#xe921;" glyph-name="error" d="M725.333 824.889l213.902-369.778-213.902-369.778h-426.667l-213.902 369.778 213.902 369.778h426.667zM758.329 881.778h-492.658l-246.329-426.667 246.329-426.667h492.658l246.329 426.667-246.329 426.667zM568.889 284.444c0 31.419-25.47 56.889-56.889 56.889v0 0c-31.419 0-56.889-25.47-56.889-56.889v0 0c0-31.419 25.47-56.889 56.889-56.889v0 0c31.419 0 56.889 25.47 56.889 56.889v0zM568.889 682.667h-113.778v-284.444h113.778z" />
<glyph unicode="&#xe922;" glyph-name="exchange" d="M910.222 455.111h-56.889c-0.895 187.835-153.371 339.758-341.33 339.758-125.035 0-234.368-67.229-293.822-167.512l-0.867-1.579h180.907v-56.889h-284.444v284.444h56.889v-194.56c70.885 116.495 197.163 193.111 341.336 193.111 219.423 0 397.396-177.465 398.219-396.694v-0.079zM512 56.889c144.433 0.326 270.769 77.492 340.333 192.773l1.001 1.787v-194.56h56.889v284.444h-284.444v-56.889h180.907c-60.321-101.862-169.653-169.091-294.688-169.091-187.959 0-340.435 151.924-341.329 339.673v0.085h-56.889c0-219.932 178.29-398.222 398.222-398.222v0z" />
<glyph unicode="&#xe923;" glyph-name="expand" d="M211.058 113.778h244.053v-56.889h-341.333v341.333h56.889v-244.053l254.293 254.293 40.391-39.822zM558.649 541.582l40.391-39.822 254.293 254.293v-244.053h56.889v341.333h-341.333v-56.889h244.053z" />
<glyph unicode="&#xe924;" glyph-name="external" d="M812.942 796.444h-193.991v56.889h291.271v-291.271h-56.889v193.991l-338.489-341.333-40.391 40.391zM625.778 407.893v-237.227h-398.222v398.222h237.227l56.889 56.889h-351.004v-512h512v351.004z" />
<glyph unicode="&#xe925;" glyph-name="facebook" d="M512 938.667c-267.060 0-483.556-216.495-483.556-483.556s216.495-483.556 483.556-483.556c267.060 0 483.556 216.495 483.556 483.556v0c-0.324 266.93-216.625 483.232-483.524 483.556h-0.031zM568.889 32.427v365.796h126.293l19.911 113.778h-146.204v56.889c-0.125 1.615-0.196 3.498-0.196 5.397 0 11.466 2.589 22.328 7.216 32.031l-0.193-0.45c4.551 7.964 14.222 11.378 29.582 11.378h109.796v122.311h-134.827c-4.501 0.452-9.728 0.709-15.015 0.709-40.853 0-78.113-15.379-106.308-40.663l0.15 0.132c-23.329-28.102-37.486-64.547-37.486-104.298 0-4.538 0.184-9.032 0.546-13.477l-0.038 0.584v-70.542h-70.542v-113.778h70.542v-360.107c-194.418 42.715-337.767 213.498-337.767 417.763 0 235.956 191.28 427.236 427.236 427.236s427.236-191.28 427.236-427.236c0-215.948-160.217-394.476-368.267-423.199l-2.232-0.252z" />
<glyph unicode="&#xe926;" glyph-name="facetag" d="M853.333 910.222v-56.889h56.889v-56.889h56.889v113.778zM0 910.222v-113.778h56.889v56.889h56.889v56.889zM682.667 853.333h113.778v56.889h-113.778zM512 853.333h113.778v56.889h-113.778zM341.333 853.333h113.778v56.889h-113.778zM170.667 853.333h113.778v56.889h-113.778zM170.667 284.444h113.778v56.889h-113.778zM682.667 284.444h113.778v56.889h-113.778zM0 625.778h56.889v113.778h-56.889zM910.222 625.778h56.889v113.778h-56.889zM0 455.111h56.889v113.778h-56.889zM910.222 455.111h56.889v113.778h-56.889zM56.889 341.333v56.889h-56.889v-113.778h113.778v56.889zM910.222 398.222v-56.889h-56.889v-56.889h113.778v113.778zM768.569 192.853c-21.049 8.533-42.098 14.791-56.889 19.911-48.728 13.114-85.561 52.801-94.321 102.19l-0.115 0.779c17.096 23.793 32.018 50.985 43.478 79.924l0.896 2.565c35.61 16.415 60.961 49.701 65.934 89.326l0.057 0.559c1.176 6.142 1.849 13.206 1.849 20.428 0 31.326-12.66 59.695-33.142 80.27l0.004-0.004c3.413 126.862-42.667 207.644-212.764 207.644s-216.178-80.782-212.764-209.92c-20.478-20.571-33.138-48.94-33.138-80.266 0-7.221 0.673-14.286 1.959-21.134l-0.11 0.706c5.793-39.269 30.946-71.586 65.282-87.318l0.709-0.291c12.707-30.632 27.782-57.042 45.671-81.246l-0.729 1.032c-8.041-51.108-45.115-91.805-93.53-105.034l-0.906-0.211c-15.36-5.12-36.409-11.378-56.889-19.911-33.197-10.103-56.936-40.449-56.936-76.338 0-0.963 0.017-1.921 0.051-2.875l-0.004 0.138v-56.889c88.318-36.718 190.906-58.043 298.474-58.043 15.076 0 30.054 0.419 44.924 1.246l-2.065-0.092c12.805-0.735 27.783-1.154 42.859-1.154 107.568 0 210.156 21.325 303.766 59.978l-5.291-1.935v56.889c0.034 0.867 0.053 1.885 0.053 2.907 0 35.683-23.466 65.885-55.809 76.016l-0.564 0.152zM341.333 458.524v0c-0.907-0.072-1.964-0.114-3.030-0.114-20.945 0-38.167 15.943-40.192 36.355l-0.013 0.168c-0.632 2.677-0.994 5.75-0.994 8.907 0 19.233 13.442 35.326 31.444 39.397l0.27 0.051v43.804c-1.070 6.972-1.681 15.016-1.681 23.203 0 35.534 11.512 68.38 31.010 95.010l-0.316-0.453c29.288 22.306 66.387 35.736 106.622 35.736 6.729 0 13.371-0.376 19.905-1.107l-0.803 0.073c5.834 0.682 12.593 1.072 19.442 1.072 40.587 0 77.983-13.667 107.835-36.65l-0.415 0.307c19.182-26.178 30.694-59.023 30.694-94.557 0-8.186-0.611-16.23-1.79-24.088l0.109 0.885v-43.804c18.272-4.122 31.714-20.215 31.714-39.448 0-3.158-0.362-6.231-1.048-9.18l0.053 0.273c-0.526-21.899-18.403-39.451-40.38-39.451-1.406 0-2.796 0.072-4.165 0.212l0.172-0.014-15.929-44.942c-34.702-74.524-92.16-125.724-126.293-125.724s-91.591 51.2-124.587 129.138zM766.293 95.004c-74.668-24.634-160.613-38.842-249.878-38.842-12.157 0-24.253 0.264-36.282 0.785l1.715-0.059c-10.314-0.463-22.41-0.726-34.567-0.726-89.264 0-175.21 14.208-255.699 40.486l5.822-1.644v18.773c0 11.378 0 18.204 21.049 26.169 10.163 4.461 23.008 9.109 36.173 13.014l2.512 0.639 15.36 5.12c55.942 15.466 100.265 55.492 121.305 107.437l0.437 1.221c23.301-22.63 54.385-37.358 88.863-39.797l0.452-0.026c34.93 2.464 66.015 17.192 89.35 39.856l-0.034-0.033c21.143-52.815 64.788-92.726 118.75-108.339l1.286-0.319 15.36-5.12c15.676-4.544 28.521-9.192 40.998-14.534l-2.314 0.881c19.911-7.964 21.049-14.791 21.049-26.169z" />
<glyph unicode="&#xe927;" glyph-name="filter" d="M944.924 625.778c15.247 14.398 25.070 34.399 26.161 56.695l0.008 0.194c0 94.436-204.231 170.667-455.111 170.667s-455.111-76.231-455.111-170.667c0.812-22.442 10.468-42.481 25.566-56.857l0.034-0.032 316.302-341.333v-227.556c0-31.289 50.631-56.889 113.778-56.889s113.778 25.6 113.778 56.889v227.556l315.733 341.333zM515.982 796.444c258.276 0 398.222-80.782 398.222-113.778s-139.947-113.778-398.222-113.778-398.222 80.782-398.222 113.778 139.378 113.778 398.222 113.778zM587.662 323.129l-14.791-16.498v-238.364c-15.828-7.211-34.328-11.414-53.81-11.414-1.083 0-2.162 0.013-3.239 0.039l0.16-0.003c-1.191-0.040-2.59-0.062-3.995-0.062-19.172 0-37.36 4.215-53.687 11.769l0.792-0.329v238.364l-15.36 16.498-208.213 227.556c83.256-24.558 178.909-38.688 277.863-38.688 0.914 0 1.827 0.001 2.741 0.004h-0.141c3.313-0.039 7.227-0.061 11.146-0.061 95.843 0 188.577 13.315 276.451 38.197l-7.135-1.727zM146.204 583.111v0z" />
<glyph unicode="&#xe928;" glyph-name="flickr" d="M711.111 568.889c78.547 0 142.222-63.675 142.222-142.222s-63.675-142.222-142.222-142.222c-78.547 0-142.222 63.675-142.222 142.222v0c0 78.547 63.675 142.222 142.222 142.222v0zM711.111 625.778c-109.966 0-199.111-89.145-199.111-199.111s89.145-199.111 199.111-199.111c109.966 0 199.111 89.145 199.111 199.111v0c0 109.966-89.145 199.111-199.111 199.111v0zM256 625.778c-109.966 0-199.111-89.145-199.111-199.111s89.145-199.111 199.111-199.111c109.966 0 199.111 89.145 199.111 199.111v0c0 109.966-89.145 199.111-199.111 199.111v0zM284.444 287.858c-8.521-2.102-18.32-3.343-28.398-3.413h-0.047c-16.59 0.361-32.384 3.248-47.181 8.29l1.101-0.326 180.338 180.338c4.716-13.696 7.603-29.49 7.961-45.908l0.003-0.172c0-0.084 0-0.184 0-0.284 0-10.394-1.244-20.497-3.592-30.169l0.179 0.871zM360.107 522.809l-200.249-200.249c-14.108 12.897-25.598 28.39-33.757 45.758l-0.376 0.891 187.733 187.733c18.258-8.536 33.752-20.025 46.548-34.022l0.101-0.112zM113.778 438.613c5.797 69.493 60.783 124.478 129.758 130.241l0.518 0.035z" />
<glyph unicode="&#xe929;" glyph-name="folder" d="M446.009 682.667l-68.267 170.667h-320.853v-796.444h910.222v625.778zM113.778 796.444h227.556l45.511-113.778h-273.067zM910.222 113.778h-796.444v512h796.444z" />
<glyph unicode="&#xe92a;" glyph-name="folders" d="M739.556 796.444v-56.889h-682.667v56.889zM170.667 455.111h682.667v56.889h-682.667zM284.444 170.667h682.667v56.889h-682.667z" />
<glyph unicode="&#xe92b;" glyph-name="fotomoto" d="M341.333 398.222v-170.667c0-31.419-25.47-56.889-56.889-56.889s-56.889 25.47-56.889 56.889v0 455.111c-0.18 1.621-0.283 3.5-0.283 5.403 0 28.591 23.178 51.769 51.769 51.769 1.903 0 3.782-0.103 5.632-0.303l-0.229 0.020h455.111c31.419 0 56.889-25.47 56.889-56.889s-25.47-56.889-56.889-56.889v0h-398.222v-113.778h337.92c31.419 0 56.889-25.47 56.889-56.889s-25.47-56.889-56.889-56.889v0zM739.556 170.667c-31.419 0-56.889 25.47-56.889 56.889s25.47 56.889 56.889 56.889c31.419 0 56.889-25.47 56.889-56.889v0c0-31.419-25.47-56.889-56.889-56.889v0zM910.222 910.222c31.419 0 56.889-25.47 56.889-56.889v0-796.444c0-31.419-25.47-56.889-56.889-56.889v0h-796.444c-31.419 0-56.889 25.47-56.889 56.889v0 796.444c0 31.419 25.47 56.889 56.889 56.889v0h796.444zM910.222 967.111h-796.444c-62.838 0-113.778-50.94-113.778-113.778v0-796.444c0-62.838 50.94-113.778 113.778-113.778v0h796.444c62.838 0 113.778 50.94 113.778 113.778v0 796.444c0 62.838-50.94 113.778-113.778 113.778v0z" />
<glyph unicode="&#xe92c;" glyph-name="foursquare" d="M910.222 910.222c31.419 0 56.889-25.47 56.889-56.889v0-796.444c0-31.419-25.47-56.889-56.889-56.889v0h-796.444c-31.419 0-56.889 25.47-56.889 56.889v0 796.444c0 31.419 25.47 56.889 56.889 56.889v0h796.444zM910.222 967.111h-796.444c-62.838 0-113.778-50.94-113.778-113.778v0-796.444c0-62.838 50.94-113.778 113.778-113.778v0h796.444c62.838 0 113.778 50.94 113.778 113.778v0 796.444c0 62.838-50.94 113.778-113.778 113.778v0zM682.667 657.067l-14.791-65.422c-1.984-7.562-8.524-13.139-16.444-13.651l-0.054-0.003h-118.329c-0.169 0.004-0.369 0.007-0.569 0.007-13.196 0-23.893-10.697-23.893-23.893 0-0.002 0-0.005 0-0.007v0-14.222c0-13.51 10.952-24.462 24.462-24.462v0h100.124c8.662-0.175 15.617-7.238 15.617-15.926 0-1.007-0.093-1.991-0.272-2.946l0.015 0.099c0-10.24-12.516-61.44-13.653-67.129-2.027-7.423-8.597-12.834-16.47-13.084l-0.028-0.001h-81.92c-17.067 0-20.48 0-30.72-13.084s-100.124-124.587-100.124-124.587 0 0 0 0v382.293c0.598 8.743 7.698 15.646 16.471 15.928l0.027 0.001h245.76c8.77-0.036 15.866-7.154 15.866-15.929 0-1.415-0.185-2.787-0.531-4.094l0.025 0.111zM699.164 739.555h-300.942c-2.054 0.299-4.426 0.469-6.837 0.469-27.649 0-50.062-22.414-50.062-50.062 0-0.365 0.004-0.729 0.012-1.092l-0.001 0.054v-482.987c-0.193-1.317-0.303-2.837-0.303-4.383 0-12.97 7.751-24.13 18.874-29.101l0.202-0.081c3.555-1.209 7.649-1.907 11.907-1.907 10.161 0 19.393 3.976 26.226 10.457l-0.017-0.016s143.36 170.667 146.204 170.667c1.002 1.714 2.833 2.848 4.929 2.848 0.067 0 0.134-0.001 0.201-0.003h91.012c1.216-0.114 2.63-0.179 4.059-0.179 24.512 0 44.553 19.139 45.997 43.288l0.006 0.127c3.982 13.653 43.804 208.213 56.889 270.222 8.533 46.649-3.413 71.68-48.356 71.68z" />
<glyph unicode="&#xe92d;" glyph-name="fullscreen" d="M341.333 910.222h-284.444v-284.444h56.889v227.556h227.556zM682.667 853.333h227.556v-227.556h56.889v284.444h-284.444zM341.333 56.889h-227.556v227.556h-56.889v-284.444h284.444zM682.667 0h284.444v284.444h-56.889v-227.556h-227.556z" />
<glyph unicode="&#xe92e;" glyph-name="fullscreen-off" d="M113.778 568.889h284.444v284.444h-56.889v-227.556h-227.556zM910.222 625.778h-227.556v227.556h-56.889v-284.444h284.444zM113.778 284.444h227.556v-227.556h56.889v284.444h-284.444zM910.222 341.333h-284.444v-284.444h56.889v227.556h227.556z" />
<glyph unicode="&#xe92f;" glyph-name="google" d="M512-28.445c-0.351-0.001-0.766-0.001-1.182-0.001-267.060 0-483.556 216.495-483.556 483.556s216.495 483.556 483.556 483.556c133.824 0 254.95-54.362 342.502-142.208l0.013-0.013 20.48-19.911-160.427-160.427-20.48 19.911c-46.33 46.347-110.344 75.015-181.053 75.015-141.385 0-256-114.615-256-256s114.615-256 256-256c88.4 0 166.335 44.807 212.333 112.948l0.578 0.908h-241.209v227.556h512v-85.333c-0.324-266.93-216.625-483.232-483.524-483.556h-0.031zM512 881.778c-235.641 0-426.667-191.025-426.667-426.667s191.025-426.667 426.667-426.667c235.641 0 426.667 191.025 426.667 426.667v0 28.444h-398.222v-113.778h275.342l-17.067-39.822c-49.566-111.328-159.224-187.54-286.683-187.54-172.804 0-312.889 140.085-312.889 312.889s140.085 312.889 312.889 312.889c76.385 0 146.377-27.372 200.703-72.842l-0.491 0.4 80.213 80.213c-74.22 65.697-172.403 105.814-279.956 105.814-0.178 0-0.356 0-0.534 0h0.028z" />
<glyph unicode="&#xe930;" glyph-name="heart" d="M512 17.067l-23.324 33.564c-46.537 62.453-103.215 114.419-168.074 154.389l-2.592 1.487c-118.898 77.938-261.12 208.213-261.12 378.311 0 236.658 133.12 284.444 242.916 284.444 90.155-1.582 168.545-50.48 211.559-122.861l0.636-1.156c44.673 74.457 124.109 124.053 215.292 126.287l0.317 0.006c150.756 0 238.364-104.676 239.502-284.444 0-170.667-139.378-289.564-261.689-376.036-66.587-43.485-123.050-95.965-169.48-156.539l-1.186-1.612zM299.236 813.511c-78.507 0.569-185.458-22.756-185.458-229.262 0-143.929 128.569-259.413 237.227-330.524 61.776-39.614 114.789-85.934 160.18-138.971l0.815-0.976c47.085 52.93 99.524 99.407 156.956 139.183l2.901 1.901c113.778 79.076 238.933 187.733 237.796 329.387 0 105.244-32.996 230.4-182.613 230.4-87.601-4.183-160.805-61.461-188.422-140.182l-0.449-1.471-26.169-61.44-26.169 61.44c-27.488 79.398-99.535 136.296-185.488 141.061l-0.539 0.024z" />
<glyph unicode="&#xe931;" glyph-name="help" d="M647.964 618.951c6.112-13.206 9.677-28.661 9.677-44.948 0-0.398-0.002-0.796-0.006-1.193l0.001 0.061c0.001-0.135 0.001-0.295 0.001-0.455 0-11.985-1.662-23.581-4.768-34.572l0.216 0.894c-3.006-10.597-7.281-19.861-12.757-28.271l0.241 0.395c-6.275-9.149-13.012-17.15-20.452-24.435l-0.028-0.027c-8.533-7.964-18.204-16.498-29.013-25.031-8.313-5.922-15.544-11.708-22.442-17.859l0.256 0.224c-4.761-3.97-8.888-8.459-12.37-13.433l-0.146-0.22c-2.469-3.926-4.425-8.48-5.622-13.333l-0.067-0.32c-0.136-2.548-0.213-5.532-0.213-8.533s0.077-5.985 0.231-8.948l-0.017 0.415v-33.564h-87.609v38.116c1.993 19.474 9.164 36.966 20.099 51.46l-0.188-0.26c4.698 8.536 10.378 15.848 17.026 22.149l0.040 0.038c7.442 8.018 15.436 15.291 24.006 21.852l0.456 0.335 21.618 17.636c4.973 4.779 9.46 9.988 13.427 15.592l0.227 0.337c3.919 4.476 7.021 9.779 9.005 15.6l0.097 0.329c0.481 2.992 0.755 6.442 0.755 9.956s-0.275 6.963-0.804 10.329l0.048-0.373c0.008 0.288 0.012 0.627 0.012 0.967 0 10.838-4.592 20.604-11.937 27.457l-0.022 0.020c-8.384 7.172-19.356 11.537-31.348 11.537-1.381 0-2.748-0.058-4.1-0.171l0.177 0.012c-16.252-0.233-31.664-3.555-45.764-9.404l0.822 0.302c-19.895-7.095-36.229-14.195-52.020-22.213l2.526 1.164-29.013 65.991c7.753 4.598 17.095 9.356 26.735 13.558l1.709 0.664c8.448 4.029 18.814 8.083 29.484 11.455l1.805 0.492c8.732 2.895 20.002 5.845 31.494 8.182l2.070 0.352c4.938 0.391 10.692 0.614 16.498 0.614s11.56-0.223 17.253-0.661l-0.756 0.047c1.193 0.027 2.598 0.042 4.008 0.042 18.837 0 37.040-2.717 54.237-7.78l-1.356 0.342c15.948-4.733 29.799-12.14 41.757-21.796l-0.228 0.178c10.58-8.275 19.051-18.75 24.808-30.772l0.223-0.517zM550.684 318.009c-4.891 3.736-10.543 6.82-16.637 8.97l-0.43 0.132c-2.99 0.416-6.445 0.653-9.956 0.653s-6.965-0.237-10.35-0.697l0.394 0.044c-3.16 0.415-6.815 0.651-10.524 0.651s-7.364-0.237-10.949-0.696l0.425 0.044c-6.523-2.282-12.176-5.366-17.216-9.212l0.149 0.109c-4.884-4.291-8.751-9.618-11.273-15.647l-0.104-0.282c-2.525-6.902-3.986-14.871-3.986-23.182 0-0.25 0.001-0.5 0.004-0.75v0.038c0.017-8.362 1.474-16.378 4.137-23.821l-0.155 0.496c2.994-6.159 6.804-11.423 11.371-15.922l0.007-0.007c4.891-3.736 10.543-6.82 16.637-8.97l0.43-0.132c5.804-1.428 12.472-2.256 19.33-2.276h0.013c2.99-0.416 6.445-0.653 9.956-0.653s6.965 0.237 10.35 0.697l-0.394-0.044c6.523 2.282 12.176 5.366 17.216 9.212l-0.149-0.109c4.574 4.506 8.384 9.77 11.229 15.593l0.148 0.336c2.549 6.227 4.029 13.454 4.029 21.027 0 0.808-0.017 1.612-0.050 2.412l0.004-0.114c0.044 0.839 0.069 1.821 0.069 2.809 0 7.594-1.488 14.841-4.189 21.465l0.137-0.38c-1.8 7.074-5.16 13.203-9.705 18.242l0.034-0.038zM967.111 455.111c0-251.351-203.76-455.111-455.111-455.111s-455.111 203.76-455.111 455.111c0 251.351 203.76 455.111 455.111 455.111v0c251.351 0 455.111-203.76 455.111-455.111v0zM910.222 455.111c0 219.932-178.29 398.222-398.222 398.222s-398.222-178.29-398.222-398.222c0-219.932 178.29-398.222 398.222-398.222v0c219.932 0 398.222 178.29 398.222 398.222v0z" />
<glyph unicode="&#xe932;" glyph-name="hide-bottom-panel" d="M967.111 0v56.889h-56.889v284.444h-853.333v-284.444h-56.889v-56.889zM853.333 56.889h-739.556v227.556h739.556zM455.111 910.222h56.889v-389.12l137.102 137.671 40.391-40.391-205.938-205.938-205.938 205.938 40.391 40.391 137.102-137.671z" />
<glyph unicode="&#xe933;" glyph-name="hide-top-panel" d="M0 910.222v-56.889h56.889v-284.444h853.333v284.444h56.889v56.889zM853.333 625.778h-739.556v227.556h739.556zM455.111 389.12l-137.102-137.671-40.391 40.391 205.938 205.938 205.938-205.938-40.391-40.391-137.102 137.671v-389.12h-56.889z" />
<glyph unicode="&#xe934;" glyph-name="home" d="M796.444 56.889h-568.889v341.333h-113.778l398.222 398.222 398.222-398.222h-113.778zM739.556 113.778v341.333h33.564l-261.12 261.12-261.12-261.12h33.564v-341.333z" />
<glyph unicode="&#xe935;" glyph-name="image" d="M56.889 910.222v-910.222h910.222v910.222zM910.222 853.333v-259.982l-144.498 96.711-512-455.111-139.947 93.298v525.084zM113.778 56.889v203.093l144.498-96.711 512 455.111 139.947-93.298v-468.196zM341.333 512c-62.838 0-113.778 50.94-113.778 113.778s50.94 113.778 113.778 113.778c62.838 0 113.778-50.94 113.778-113.778v0c0-62.838-50.94-113.778-113.778-113.778v0zM341.333 682.667c-31.419 0-56.889-25.47-56.889-56.889s25.47-56.889 56.889-56.889c31.419 0 56.889 25.47 56.889 56.889v0c0 31.419-25.47 56.889-56.889 56.889v0z" />
<glyph unicode="&#xe936;" glyph-name="info" d="M512 853.333c-219.932 0-398.222-178.29-398.222-398.222s178.29-398.222 398.222-398.222c219.932 0 398.222 178.29 398.222 398.222v0c0 219.932-178.29 398.222-398.222 398.222v0zM568.889 625.778c0-31.419-25.47-56.889-56.889-56.889v0 0c-31.419 0-56.889 25.47-56.889 56.889v0 0c0 31.419 25.47 56.889 56.889 56.889v0 0c31.419 0 56.889-25.47 56.889-56.889v0zM967.111 455.111c0-251.351-203.76-455.111-455.111-455.111s-455.111 203.76-455.111 455.111c0 251.351 203.76 455.111 455.111 455.111v0c251.351 0 455.111-203.76 455.111-455.111v0zM568.889 227.555h-113.778v284.444h113.778z" />
<glyph unicode="&#xe937;" glyph-name="instagram" d="M910.222 967.111h-796.444c-62.838 0-113.778-50.94-113.778-113.778v0-796.444c0-62.838 50.94-113.778 113.778-113.778v0h796.444c62.838 0 113.778 50.94 113.778 113.778v0 796.444c0 62.838-50.94 113.778-113.778 113.778v0zM853.333 853.333c31.419 0 56.889-25.47 56.889-56.889s-25.47-56.889-56.889-56.889c-31.419 0-56.889 25.47-56.889 56.889v0c0 31.419 25.47 56.889 56.889 56.889v0zM292.409 512h439.182c4.756-16.979 7.643-36.528 7.962-56.7l0.002-0.189c0-125.675-101.88-227.556-227.556-227.556s-227.556 101.88-227.556 227.556v0c0.322 20.361 3.208 39.91 8.349 58.523l-0.385-1.634zM967.111 56.889c0-31.419-25.47-56.889-56.889-56.889v0h-796.444c-31.419 0-56.889 25.47-56.889 56.889v0 455.111h176.356c-3.466-17.029-5.529-36.668-5.688-56.761l-0.001-0.128c0-157.094 127.35-284.444 284.444-284.444s284.444 127.35 284.444 284.444v0c-0.16 20.221-2.223 39.86-6.020 58.874l0.331-1.985h176.356zM967.111 568.889h-910.222v284.444c0 31.419 25.47 56.889 56.889 56.889v0h796.444c31.419 0 56.889-25.47 56.889-56.889v0z" />
<glyph unicode="&#xe938;" glyph-name="jalbum" d="M1008.64 614.969c-13.877 31.96-40.12 56.347-72.53 67.443l-0.857 0.255c-25.6 12.516-38.116 19.342-42.098 38.116l-5.12 27.307c-4.244 63.957-32.182 120.674-75.022 162.065l-0.071 0.068c-34.068 29.49-78.816 47.458-127.76 47.458-45.796 0-87.917-15.73-121.256-42.082l0.411 0.314c-40.189-33.213-70.045-77.617-84.872-128.43l-0.461-1.846-85.333-33.564c-34.664-13.19-64.084-27.538-92.003-44.147l2.688 1.481c-46.080 13.653-199.111 46.080-274.773-76.231-18.456-28.17-29.436-62.681-29.436-99.757 0-15.067 1.813-29.71 5.234-43.724l-0.26 1.258c16.655-61.544 55.673-112.049 107.585-143.329l1.073-0.6c29.013-17.636 27.876-31.858 25.031-56.889-0.821-5.47-1.29-11.782-1.29-18.204s0.469-12.735 1.374-18.905l-0.084 0.701c6.827-35.271 29.013-92.16 138.809-178.062 87.76-71.456 199.877-116.084 322.273-120.014l0.856-0.022c5.868-0.39 12.722-0.613 19.627-0.613s13.759 0.222 20.553 0.661l-0.926-0.048c0.35-0.002 0.763-0.003 1.178-0.003 75.6 0 143.171 34.374 187.937 88.346l0.325 0.404c53.38 56.124 99.237 120.138 135.488 189.94l2.183 4.62c56.889 134.827 72.818 285.582 41.529 376.036zM145.067 395.378c-40.749 23.984-71.037 62.041-84.433 107.35l-0.332 1.308c-2.155 8.791-3.391 18.884-3.391 29.266 0 26.162 7.849 50.491 21.321 70.761l-0.295-0.471c26.26 38.252 69.754 63.018 119.033 63.018 3.957 0 7.876-0.16 11.752-0.473l-0.51 0.033c32.425-0.444 63.482-5.612 92.734-14.843l-2.281 0.621 13.653-4.551 11.378 7.396c25.597 15.691 55.37 30.593 86.427 42.959l4.026 1.414c57.458 22.187 97.849 40.391 97.849 40.391l14.222 5.12 2.844 14.791c11.156 45.553 35.214 84.392 68.042 113.582l0.224 0.196c23.909 19.050 54.556 30.566 87.893 30.566s63.985-11.516 88.181-30.787l-0.288 0.221c33.041-33.203 54.278-78.18 56.869-128.090l0.020-0.479 5.12-28.444c9.195-39 37.52-69.772 74.292-82.253l0.802-0.236c16.435-5.759 30.155-15.81 40.244-28.817l0.147-0.197-32.996-23.324c-102.715-80.758-223.825-143.624-355.551-181.368l-7.4-1.814c-59.534-17.070-111.464-39.954-159.412-68.784l2.968 1.655c-48.846-31.279-106.312-54.003-167.951-64.472l-2.715-0.381-31.289-3.413c-0.389 2.904-0.611 6.262-0.611 9.671s0.222 6.767 0.653 10.059l-0.041-0.388c1.952 7.368 3.074 15.827 3.074 24.547 0 38.455-21.803 71.817-53.721 88.4l-0.553 0.261zM889.173 493.227c-31.63-135.668-112.446-248.584-222.197-321.348l-1.945-1.212c-45.432-26.373-99.97-41.937-158.144-41.937-86.536 0-165.028 34.441-222.515 90.364l0.073-0.071c54.316 16.5 101.444 37.379 145.361 63.142l-3.139-1.702c40.876 24.507 88.075 45.249 137.916 59.794l4.306 1.077c122.228 32.593 229.115 84.802 322.936 153.753l-2.651-1.859zM913.067 261.12c-34.467-68.935-75.627-128.266-123.961-180.903l0.512 0.565c-35.324-43.804-88.988-71.59-149.142-71.59-11.423 0-22.613 1.002-33.485 2.923l1.151-0.168c-112.062 3.163-214.152 43.401-295.043 108.815l0.928-0.726c-15.36 12.516-28.444 23.324-40.391 34.133 64.612-50.044 146.809-80.22 236.054-80.22 0.812 0 1.624 0.003 2.435 0.007l-0.125-0.001c0.767-0.006 1.674-0.009 2.582-0.009 67.608 0 130.767 19.053 184.399 52.082l-1.523-0.873c138.24 84.764 227.556 227.556 266.809 427.804v8.533c1.551-16.102 2.435-34.812 2.435-53.729 0-89.427-19.765-174.238-55.164-250.303l1.529 3.659zM176.356 475.591c-33.697 2.305-60.159 30.204-60.159 64.284 0 35.581 28.844 64.426 64.426 64.426 1.501 0 2.99-0.051 4.466-0.152l-0.199 0.011c33.697-2.305 60.159-30.204 60.159-64.284 0-35.581-28.844-64.426-64.426-64.426-1.501 0-2.99 0.051-4.466 0.152l0.199-0.011zM682.667 853.333c83.627 0 92.729-139.378 0-136.533-37.703 0-68.267 30.564-68.267 68.267s30.564 68.267 68.267 68.267v0zM273.067 435.2c0 23.324 50.062 26.738 43.804 0s-40.391-43.236-43.804 0zM604.729 589.369c38.116-3.413 17.636-38.684 0-42.098-27.876-5.12-35.84 45.511 0 42.098z" />
<glyph unicode="&#xe939;" glyph-name="library" d="M170.667 56.889h-56.889v796.444h56.889zM341.333 853.333h-56.889v-796.444h56.889zM512 853.333h-56.889v-796.444h56.889zM663.893 847.075l-56.889-14.791 205.938-769.138 56.889 14.791z" />
<glyph unicode="&#xe93a;" glyph-name="link" d="M517.689 581.973c78.157-27.873 133.092-101.243 133.092-187.444 0-55.032-22.39-104.835-58.558-140.796l-160.436-160.436c-36.034-36.034-85.814-58.321-140.8-58.321-109.972 0-199.121 89.15-199.121 199.121 0 54.986 22.287 104.766 58.321 140.8l160.427 160.427 8.533 6.827c-1.901-11.457-2.988-24.659-2.988-38.116s1.086-26.658 3.176-39.524l-0.189 1.408-129.138-131.413c-25.77-25.77-41.709-61.37-41.709-100.693 0-78.646 63.755-142.402 142.402-142.402 39.323 0 74.924 15.939 100.693 41.709l160.996 160.996c25.541 25.874 41.316 61.441 41.316 100.693s-15.775 74.82-41.331 100.709l0.015-0.015c-17.18 16.854-38.705 29.34-62.738 35.623l-0.978 0.217c3.177 17.518 11.496 32.711 23.315 44.364l0.010 0.009zM512 334.507c11.829 11.662 20.148 26.855 23.248 43.869l0.076 0.504c-25.011 6.499-46.535 18.985-63.738 35.862l0.022-0.022c-25.541 25.874-41.316 61.441-41.316 100.693s15.775 74.82 41.331 100.709l160.981 160.981c25.77 25.77 61.37 41.709 100.693 41.709 78.646 0 142.402-63.755 142.402-142.402 0-39.323-15.939-74.924-41.709-100.693l-131.413-131.413c1.901-11.457 2.988-24.659 2.988-38.116s-1.086-26.658-3.176-39.524l0.189 1.408c3.187 2.258 5.969 4.498 8.608 6.893l-0.075-0.067 160.427 160.427c36.034 36.034 58.321 85.814 58.321 140.8 0 109.972-89.15 199.121-199.121 199.121-54.986 0-104.766-22.287-140.8-58.321v0l-158.151-160.427c-36.177-35.97-58.567-85.773-58.567-140.805 0-86.201 54.935-159.571 131.705-187.012l1.387-0.432z" />
<glyph unicode="&#xe93b;" glyph-name="linkedin" d="M426.667 711.111c-0.544 22.495-10.267 42.617-25.551 56.844l-0.049 0.045c-15.054 15.785-36.247 25.6-59.733 25.6s-44.679-9.815-59.702-25.567l-0.031-0.033c-15.785-15.054-25.6-36.247-25.6-59.733s9.815-44.679 25.567-59.702l0.033-0.031c15.054-15.785 36.247-25.6 59.733-25.6s44.679 9.815 59.702 25.567l0.031 0.033c15.82 14.694 25.688 35.61 25.688 58.831 0 1.318-0.032 2.628-0.095 3.93l0.007-0.184zM398.222 568.889h-113.778v-398.222h113.778zM796.444 426.667c0.020 0.909 0.032 1.98 0.032 3.054 0 37.625-14.268 71.918-37.689 97.762l0.11-0.123c-21.635 25.475-53.69 41.533-89.496 41.533-0.336 0-0.673-0.001-1.008-0.004h0.051c-31.858 0-65.422-23.893-99.556-71.111v71.111h-113.778v-398.222h113.778v227.556c0.229 15.616 6.716 29.673 17.057 39.813l0.009 0.009c9.792 10.515 23.716 17.071 39.17 17.071 0.229 0 0.458-0.001 0.687-0.004h-0.035c31.419 0 56.889-25.47 56.889-56.889v0-227.556h113.778zM910.222 910.222c31.419 0 56.889-25.47 56.889-56.889v0-796.444c0-31.419-25.47-56.889-56.889-56.889v0h-796.444c-31.419 0-56.889 25.47-56.889 56.889v0 796.444c0 31.419 25.47 56.889 56.889 56.889v0h796.444zM910.222 967.111h-796.444c-62.838 0-113.778-50.94-113.778-113.778v0-796.444c0-62.838 50.94-113.778 113.778-113.778v0h796.444c62.838 0 113.778 50.94 113.778 113.778v0 796.444c0 62.838-50.94 113.778-113.778 113.778v0z" />
<glyph unicode="&#xe93c;" glyph-name="location" d="M483.556 853.333c172.781-0.445 312.675-140.614 312.675-313.457 0-62.266-18.155-120.291-49.46-169.072l0.75 1.249c-46.649-72.818-190.578-250.311-263.964-341.333-73.387 89.316-217.316 266.809-263.964 341.333-30.555 47.532-48.71 105.557-48.71 167.823 0 172.843 139.894 313.011 312.632 313.457h0.043zM483.556 910.222c-0.385 0.001-0.841 0.002-1.297 0.002-204.223 0-369.778-165.555-369.778-369.778 0-73.927 21.694-142.788 59.064-200.562l-0.878 1.448c65.991-102.4 311.751-398.222 311.751-398.222s245.76 295.822 311.751 398.222c36.491 56.326 58.185 125.186 58.185 199.112 0 203.878-164.998 369.22-368.745 369.776h-0.053zM483.556 625.778c-47.128 0-85.333-38.205-85.333-85.333s38.205-85.333 85.333-85.333c47.128 0 85.333 38.205 85.333 85.333v0c0 47.128-38.205 85.333-85.333 85.333v0z" />
<glyph unicode="&#xe93d;" glyph-name="loop" d="M768 625.778h-162.133l92.16 92.16-40.391 40.391-160.996-160.996 160.996-160.996 40.391 40.391-92.16 92.16h162.133c78.547 0 142.222-63.675 142.222-142.222s-63.675-142.222-142.222-142.222v0h-512c-78.547 0-142.222 63.675-142.222 142.222s63.675 142.222 142.222 142.222v0h142.222v56.889h-142.222c-109.966 0-199.111-89.145-199.111-199.111s89.145-199.111 199.111-199.111v0h512c109.966 0 199.111 89.145 199.111 199.111s-89.145 199.111-199.111 199.111v0z" />
<glyph unicode="&#xe93e;" glyph-name="map" d="M654.222 806.115l-284.444 94.436-312.889-104.107v-796.444l312.889 104.107 284.444-94.436 312.889 104.107v796.444zM341.333 154.738l-227.556-75.662v676.409l227.556 75.662zM398.222 831.147l227.556-75.662v-676.409l-227.556 75.662zM910.222 154.738l-227.556-75.662v676.409l227.556 75.662z" />
<glyph unicode="&#xe93f;" glyph-name="menu" d="M967.111 796.444v-56.889h-910.222v56.889zM56.889 398.222h910.222v56.889h-910.222zM56.889 56.889h910.222v56.889h-910.222z" />
<glyph unicode="&#xe940;" glyph-name="minus" d="M113.778 455.111h739.556v-56.889h-739.556v56.889z" />
<glyph unicode="&#xe941;" glyph-name="more" d="M597.333 455.111c0-47.128-38.205-85.333-85.333-85.333s-85.333 38.205-85.333 85.333c0 47.128 38.205 85.333 85.333 85.333v0c47.128 0 85.333-38.205 85.333-85.333v0zM796.444 540.444c-47.128 0-85.333-38.205-85.333-85.333s38.205-85.333 85.333-85.333c47.128 0 85.333 38.205 85.333 85.333v0c0 47.128-38.205 85.333-85.333 85.333v0zM227.556 540.444c-47.128 0-85.333-38.205-85.333-85.333s38.205-85.333 85.333-85.333c47.128 0 85.333 38.205 85.333 85.333v0c0 47.128-38.205 85.333-85.333 85.333v0z" />
<glyph unicode="&#xe942;" glyph-name="more-menu" d="M512 540.444c47.128 0 85.333-38.205 85.333-85.333s-38.205-85.333-85.333-85.333c-47.128 0-85.333 38.205-85.333 85.333v0c0 47.128 38.205 85.333 85.333 85.333v0zM426.667 739.555c0-47.128 38.205-85.333 85.333-85.333s85.333 38.205 85.333 85.333c0 47.128-38.205 85.333-85.333 85.333v0c-47.128 0-85.333-38.205-85.333-85.333v0zM426.667 170.667c0-47.128 38.205-85.333 85.333-85.333s85.333 38.205 85.333 85.333c0 47.128-38.205 85.333-85.333 85.333v0c-47.128 0-85.333-38.205-85.333-85.333v0z" />
<glyph unicode="&#xe943;" glyph-name="mostphotos" d="M512 967.111c-282.77 0-512-229.23-512-512s229.23-512 512-512c282.77 0 512 229.23 512 512v0c0 282.77-229.23 512-512 512v0zM512 0c-251.351 0-455.111 203.76-455.111 455.111s203.76 455.111 455.111 455.111c251.351 0 455.111-203.76 455.111-455.111v0c0-251.351-203.76-455.111-455.111-455.111v0zM841.956 215.040c-6.258-6.827-27.876-32.427-34.133-38.116s-14.222 0-18.204 5.689l-149.049 347.022-64.284-148.48c-4.551-9.102-11.947-9.102-15.929 0-9.007 22.926-17.797 41.652-27.588 59.759l1.419-2.87c-2.174 4.949-3.439 10.718-3.439 16.782s1.265 11.833 3.546 17.057l-0.107-0.275c5.12 11.947 56.889 131.413 90.453 213.902 1.054 5.935 6.174 10.383 12.333 10.383 0.667 0 1.322-0.052 1.96-0.153l-0.071 0.009c6.026-0.291 11.146-3.889 13.612-9.007l0.041-0.095c5.12-9.102 147.911-341.333 190.009-438.044 2.454-4.725 3.893-10.317 3.893-16.246 0-6.355-1.654-12.324-4.555-17.5l0.093 0.181zM645.689 96.142c3.413-11.378 2.844-22.756-6.827-26.738s-37.547-10.809-40.391-11.947c-11.947 0-17.067 0-24.462 16.498s-190.578 455.111-190.578 455.111-140.516-330.524-146.773-344.178-14.222-15.36-21.618-9.102c-11.895 11.659-22.731 24.3-32.411 37.825l-0.584 0.859c-2.999 4.769-4.779 10.568-4.779 16.782s1.779 12.013 4.857 16.915l-0.078-0.133c19.911 46.080 150.756 341.333 187.733 435.769 0 7.396 5.689 10.809 13.653 11.378s11.947-7.396 14.791-14.222 243.484-572.871 247.467-584.818z" />
<glyph unicode="&#xe944;" glyph-name="new" d="M512 796.444l88.178-215.609 13.084-32.427 35.271-2.844 232.107-17.067-178.062-147.342-26.738-22.756 65.422-261.689-229.262 142.791-227.556-141.653 65.422 261.689-26.738 22.756-179.769 149.049 267.378 19.911 13.084 32.427 88.178 212.764zM512 950.044l-140.516-344.747-371.484-27.307 284.444-240.071-88.747-361.813 316.302 194.56 316.302-196.267-88.747 363.52 284.444 240.071-371.484 27.307-140.516 344.747zM220.729 316.871l-39.253 33.564-85.333-72.249 113.778-8.533zM691.769 658.204l50.062-3.413 27.307 110.933-96.711-59.733zM332.231 658.204l19.342 47.787-96.711 60.871 29.582-110.933zM803.271 316.871l11.378-47.218 113.778 8.533-85.333 72.249zM512 105.244l-42.098-25.6 42.098-103.538 42.098 103.538z" />
<glyph unicode="&#xe945;" glyph-name="new-fill" d="M512 950.044l-140.516-344.747-371.484-27.307 284.444-240.071-88.747-361.813 316.302 194.56 316.302-196.267-88.747 363.52 284.444 240.071-371.484 27.307-140.516 344.747zM220.729 316.871l-39.253 33.564-85.333-72.249 113.778-8.533zM691.769 658.204l50.062-3.413 27.307 110.933-96.711-59.733zM332.231 658.204l19.342 47.787-96.711 60.871 29.582-110.933zM803.271 316.871l11.378-47.218 113.778 8.533-85.333 72.249zM512 105.244l-42.098-25.6 42.098-103.538 42.098 103.538z" />
<glyph unicode="&#xe946;" glyph-name="ok" d="M914.204 777.102l-563.2-563.2-241.209 241.209-40.391-40.391 281.6-281.6 603.591 603.591-40.391 40.391z" />
<glyph unicode="&#xe947;" glyph-name="one-level-up" d="M597.333 227.555c-78.547 0-142.222 63.675-142.222 142.222v0 318.009l193.991-194.56 40.391 40.391-262.827 262.827-262.827-262.827 40.391-40.391 193.991 194.56v-318.009c0-109.966 89.145-199.111 199.111-199.111v0h312.889v56.889z" />
<glyph unicode="&#xe948;" glyph-name="ordering" d="M473.884 613.831l-132.551 132.551v-575.716h-56.889v575.716l-132.551-132.551-38.116 40.391 199.111 199.111 199.111-199.111zM872.107 296.391l-132.551-132.551v575.716h-56.889v-575.716l-132.551 132.551-38.116-40.391 199.111-199.111 199.111 199.111z" />
<glyph unicode="&#xe949;" glyph-name="page" d="M628.622 910.222h-514.844v-910.222h796.444v625.778zM625.778 832.284l204.231-206.507h-204.231zM853.333 56.889h-682.667v796.444h398.222v-284.444h284.444zM455.111 568.889h-170.667v170.667h170.667zM739.556 341.333h-455.111v56.889h455.111zM739.556 170.667h-455.111v56.889h455.111z" />
<glyph unicode="&#xe94a;" glyph-name="paste" d="M682.667 853.333h-85.333c0 62.838-50.94 113.778-113.778 113.778s-113.778-50.94-113.778-113.778v0h-85.333v-170.667h398.222zM625.778 739.555h-284.444v56.889h85.333v56.889c0 31.419 25.47 56.889 56.889 56.889s56.889-25.47 56.889-56.889v0-56.889h85.333zM910.222 796.444v-739.556h-113.778v56.889h56.889v625.778h-113.778v56.889zM113.778 113.778h56.889v-56.889h-113.778v739.556h170.667v-56.889h-113.778zM227.556 512v-568.889h512v568.889zM682.667 455.111v-455.111h-398.222v455.111z" />
<glyph unicode="&#xe94b;" glyph-name="pause" d="M455.111 113.778h-227.556v682.667h227.556zM398.222 747.52h-113.778v-584.818h113.778zM796.444 113.778h-227.556v682.667h227.556zM739.556 747.52h-113.778v-584.818h113.778z" />
<glyph unicode="&#xe94c;" glyph-name="paypal" d="M639.431 604.16c3.275 9.971 5.164 21.447 5.164 33.365 0 22.995-7.032 44.347-19.064 62.023l0.246-0.383c-18.673 24.652-47.966 40.413-80.941 40.413-0.744 0-1.487-0.008-2.227-0.024l0.11 0.002h-122.88l-56.889-250.88h131.982c69.247 2.789 126.659 50.349 144.242 114.391l0.256 1.094zM465.351 682.667h77.369c0.601 0.029 1.304 0.046 2.012 0.046 13.59 0 25.735-6.189 33.769-15.902l0.059-0.073c5.444-8.068 8.69-18.010 8.69-28.71 0-6.228-1.1-12.2-3.116-17.73l0.115 0.36c-9.921-42.129-45.468-73.628-88.945-77.343l-0.371-0.026h-60.302zM828.871 739.555c-4.76 14.005-9.951 25.845-16.003 37.155l0.643-1.315c-39.757 64.269-109.853 106.446-189.8 106.446-1.874 0-3.742-0.023-5.605-0.069l0.276 0.005h-372.053l-166.684-768h147.911l-12.516-56.889h204.8l50.631 234.951h145.636c2.564-0.083 5.579-0.13 8.604-0.13 139.041 0 254.781 99.761 279.547 231.61l0.276 1.765c5.041 16.451 7.944 35.36 7.944 54.947 0 65.852-32.812 124.041-82.979 159.108l-0.628 0.416zM292.409 824.889h325.973c0.502 0.005 1.095 0.008 1.689 0.008 60.976 0 114.484-31.978 144.667-80.079l0.417-0.712c10.985-23.184 17.399-50.371 17.399-79.056 0-16.788-2.197-33.062-6.319-48.552l0.298 1.315c-23.283-120.673-128.059-210.576-253.833-210.576-2.362 0-4.718 0.032-7.065 0.095l0.346-0.007h-170.667l-48.924-236.658h-146.204zM870.969 565.475c-13.030-69.443-49.753-128.653-101.288-170.243l-0.543-0.424c-40.937-31.616-92.976-50.676-149.467-50.676-1.653 0-3.303 0.016-4.948 0.049l0.246-0.004h-186.027l-50.062-236.089h-102.969v7.396h65.422l50.062 234.951h124.587c2.426-0.068 5.281-0.106 8.146-0.106 152.524 0 279.559 109.135 307.275 253.576l0.313 1.961c4.675 18.278 7.359 39.261 7.359 60.871s-2.684 42.593-7.736 62.634l0.376-1.763c6.313-5.017 11.902-10.426 16.926-16.329l0.14-0.169c18.081-27.462 28.843-61.138 28.843-97.327 0-17.199-2.431-33.831-6.967-49.57l0.311 1.261z" />
<glyph unicode="&#xe94d;" glyph-name="phone" d="M849.92-9.102c-0.181-0.002-0.395-0.003-0.609-0.003-8.542 0-16.743 1.459-24.367 4.142l0.514-0.158c-371.364 115.684-658.004 402.324-771.469 765.446l-2.22 8.243c-2.965 8.036-4.681 17.318-4.681 27 0 14.088 3.632 27.327 10.010 38.833l-0.209-0.411c12.134 20.893 32.393 35.93 56.341 40.866l0.548 0.094 164.978 41.529c6.122 1.581 13.149 2.489 20.389 2.489 37.749 0 69.735-24.676 80.707-58.777l0.167-0.6c17.59-51.529 36.811-95.124 59.232-136.741l-2.344 4.759c5.804-11.132 9.209-24.312 9.209-38.287 0-30.812-16.551-57.758-41.247-72.433l-0.388-0.213c-6.73-4.077-11.539-10.751-13.056-18.598l-0.028-0.175c-0.515-1.919-0.811-4.121-0.811-6.393 0-5.245 1.577-10.121 4.283-14.181l-0.059 0.094c66.542-95.765 147.149-176.373 239.81-240.869l3.105-2.046c3.966-2.647 8.842-4.224 14.087-4.224 2.272 0 4.474 0.296 6.572 0.851l-0.179-0.040c8.023 1.546 14.697 6.354 18.704 12.96l0.070 0.124c14.735 25.732 42.030 42.789 73.31 42.789 14.842 0 28.787-3.84 40.896-10.582l-0.429 0.219c36.858-20.077 80.454-39.299 125.698-54.992l6.284-1.896c34.734-10.903 59.492-42.805 59.492-80.49 0-7.38-0.949-14.538-2.733-21.358l0.13 0.586-47.787-161.564c-5.709-23.393-20.598-42.558-40.54-53.826l-0.42-0.218c-11.685-7.201-25.774-11.599-40.865-11.945l-0.095-0.002zM299.236 862.435h-6.827l-165.547-41.529c-12.599-3.105-21.796-14.306-21.796-27.657 0-2.297 0.272-4.531 0.787-6.671l-0.039 0.194c110.056-355.285 384.271-629.5 731.7-737.453l7.856-2.103c1.946-0.475 4.179-0.747 6.477-0.747 13.35 0 24.552 9.197 27.616 21.601l0.041 0.195 41.529 165.547c0.614 2.182 0.967 4.688 0.967 7.277 0 12.071-7.673 22.351-18.408 26.227l-0.194 0.061c-54.754 16.88-101.479 36.186-145.983 59.191l4.898-2.302c-3.484 1.73-7.588 2.743-11.928 2.743-10.243 0-19.168-5.639-23.841-13.983l-0.071-0.138c-12.554-20.245-32.676-34.782-56.323-39.723l-0.566-0.099c-5.452-1.322-11.712-2.080-18.149-2.080-17.283 0-33.289 5.466-46.384 14.763l0.248-0.167c-102.676 71.139-188.851 157.858-257.22 257.728l-2.193 3.392c-9.13 12.847-14.596 28.853-14.596 46.136 0 6.437 0.758 12.696 2.19 18.695l-0.11-0.546c5.040 24.213 19.577 44.335 39.451 56.674l0.371 0.214c8.397 4.908 13.949 13.879 13.949 24.147 0 4.242-0.948 8.263-2.643 11.863l0.072-0.17c-20.702 39.605-40.009 86.33-55.211 134.87l-1.678 6.214c-4.168 10.476-14.22 17.746-25.97 17.746-0.871 0-1.733-0.040-2.584-0.118l0.109 0.008z" />
<glyph unicode="&#xe94e;" glyph-name="pinterest" d="M556.373 302.080c-11.66 0.832-22.506 3.060-32.78 6.528l0.922-0.27c-12.821 5.472-23.879 12.15-33.849 20.131l0.284-0.22-25.031 16.498c-10.827-54.683-24.385-101.975-41.378-147.595l2.125 6.51c-12.999-36.803-35.894-67.406-65.496-89.53l-0.495-0.354c-4.046 17.983-6.364 38.636-6.364 59.831 0 14.417 1.073 28.583 3.142 42.424l-0.192-1.561c4.551 39.253 9.671 69.973 14.222 90.453s11.947 48.924 21.618 85.333 15.929 64.853 19.342 85.902c-9.277 19.439-14.696 42.249-14.696 66.324 0 4.288 0.172 8.535 0.509 12.737l-0.036-0.554c2.546 28.018 14.898 52.749 33.549 71.096l0.015 0.015c10.464 11.683 25.595 19.001 42.436 19.001 9.203 0 17.896-2.185 25.587-6.065l-0.326 0.149c17.39-5.622 29.986-21.095 31.281-39.681l0.008-0.141c0.237-3.222 0.372-6.979 0.372-10.768 0-19.207-3.474-37.602-9.827-54.592l0.353 1.076-22.187-68.267c-3.971-10.889-6.268-23.459-6.268-36.566 0-8.822 1.040-17.401 3.005-25.621l-0.151 0.748c5.921-18.708 22.552-32.268 42.526-33.557l0.141-0.007c5.222-1.091 11.222-1.716 17.368-1.716 25.707 0 48.862 10.93 65.069 28.397l0.052 0.056c24.107 23.442 41.821 53.338 50.355 86.899l0.276 1.279c6.16 22.091 9.701 47.458 9.701 73.653 0 12.742-0.838 25.289-2.461 37.587l0.156-1.444c-2.735 33.305-15.829 63.117-36.012 86.677l0.172-0.206c-26.138 27.768-62.182 45.955-102.459 48.895l-0.51 0.030c-5.156 0.465-11.154 0.731-17.213 0.731-34.25 0-66.52-8.478-94.825-23.45l1.105 0.533c-34.823-18.472-62.778-45.879-81.404-79.208l-0.516-1.006c-15.31-24.72-24.384-54.701-24.384-86.801 0-9.527 0.799-18.867 2.334-27.957l-0.137 0.98c2.942-10.836 6.827-20.288 11.714-29.106l-0.337 0.662c5.689-9.102 9.671-17.067 13.653-22.756 3.267-6.956 5.173-15.107 5.173-23.704 0-0.867-0.019-1.73-0.058-2.587l0.004 0.122c-1.065-13.906-6.252-26.427-14.325-36.543l0.103 0.134c-64.853 15.36-96.142 67.698-92.16 156.444 0 0.083 0 0.181 0 0.279 0 63.086 27.383 119.776 70.912 158.834l0.199 0.176c41.645 40.437 96.143 67.843 156.791 75.522l1.36 0.141c12.535 1.809 27.009 2.841 41.724 2.841 56.464 0 109.377-15.205 154.867-41.745l-1.462 0.788c53.842-30.655 91.474-84.456 99.455-147.502l0.101-0.978c2.406-14.537 3.781-31.288 3.781-48.361 0-62.795-18.6-121.245-50.59-170.143l0.73 1.188c-30.945-52.976-87.531-88.002-152.299-88.002-6.47 0-12.858 0.35-19.147 1.031l0.779-0.068zM512 967.111c-282.77 0-512-229.23-512-512s229.23-512 512-512c282.77 0 512 229.23 512 512v0c0 282.77-229.23 512-512 512v0zM967.111 455.111c0-251.351-203.76-455.111-455.111-455.111s-455.111 203.76-455.111 455.111c0 251.351 203.76 455.111 455.111 455.111v0c251.351 0 455.111-203.76 455.111-455.111v0z" />
<glyph unicode="&#xe94f;" glyph-name="play" d="M284.444 750.933l512-295.822-512-295.822v591.644zM227.556 849.351v-788.48l682.667 394.24-682.667 394.24z" />
<glyph unicode="&#xe950;" glyph-name="plus" d="M853.333 455.111h-341.333v341.333h-56.889v-341.333h-341.333v-56.889h341.333v-341.333h56.889v341.333h341.333v56.889z" />
<glyph unicode="&#xe951;" glyph-name="printer" d="M796.444 568.889v284.444h-568.889v-284.444h-170.667v-398.222h170.667v-113.778h568.889v113.778h170.667v398.222zM284.444 796.444h455.111v-227.556h-455.111zM739.556 113.778h-455.111v113.778h455.111zM910.222 227.555h-113.778v56.889h-568.889v-56.889h-113.778v284.444h796.444z" />
<glyph unicode="&#xe952;" glyph-name="reddit" d="M948.338 449.991c-11.898-18.595-28.532-33.219-48.223-42.374l-0.702-0.293c6.852-19.38 10.811-41.729 10.811-65.003 0-0.348-0.001-0.695-0.003-1.042v0.053c-1.558-84.456-46.184-158.157-112.783-200.231l-0.995-0.587c-74.676-52.515-167.498-83.927-267.657-83.927-5.904 0-11.782 0.109-17.632 0.325l0.845-0.025c-4.193-0.135-9.123-0.211-14.071-0.211-100.104 0-192.88 31.378-269.027 84.835l1.498-0.997c-68.719 42.058-114.414 115.867-116.616 200.503l-0.006 0.315c-0.002 0.294-0.002 0.641-0.002 0.989 0 23.274 3.959 45.623 11.241 66.41l-0.429-1.408c-20.392 9.448-37.026 24.071-48.652 42.212l-0.273 0.455c-11.78 17.634-18.798 39.319-18.798 62.644 0 31.267 12.612 59.589 33.027 80.154l-0.007-0.007c19.774 20.382 47.42 33.031 78.020 33.031 0.971 0 1.94-0.013 2.905-0.038l-0.143 0.003c1.79 0.109 3.883 0.171 5.99 0.171 40.527 0 75.705-22.907 93.29-56.48l0.276-0.579c58.567 32.297 127.734 52.892 201.323 56.837l1.201 0.051 92.729 205.938c3.457 12.092 14.41 20.794 27.396 20.794 4.3 0 8.378-0.954 12.032-2.663l-0.175 0.073 145.636-40.96c12.816 26.517 39.506 44.483 70.392 44.483 1.454 0 2.898-0.040 4.332-0.118l-0.2 0.009c0.4 0.007 0.873 0.011 1.346 0.011 23.138 0 44.036-9.593 58.933-25.018l0.023-0.024c15.449-14.92 25.042-35.818 25.042-58.956 0-0.473-0.004-0.946-0.012-1.417l0.001 0.071c0.007-0.4 0.011-0.873 0.011-1.346 0-23.138-9.593-44.036-25.018-58.933l-0.024-0.023c-14.92-15.449-35.818-25.042-58.956-25.042-0.473 0-0.946 0.004-1.417 0.012l0.071-0.001c-0.169-0.001-0.369-0.002-0.57-0.002-18.206 0-35.015 5.981-48.57 16.084l0.215-0.153c-14.101 10.191-24.92 24.127-31.087 40.354l-0.202 0.606-129.707 37.547-69.404-151.324c76.735-3.765 147.871-24.379 210.867-58.19l-2.654 1.301c18.014 34.155 53.285 57.040 93.902 57.040 1.989 0 3.964-0.055 5.926-0.163l-0.273 0.012c62.838 0 113.778-50.94 113.778-113.778v0c0.002-0.231 0.003-0.505 0.003-0.778 0-22.853-7.019-44.068-19.018-61.605l0.242 0.374zM151.893 458.524c19.096 30.74 42.559 56.74 69.884 78.013l0.659 0.493c-9.472 19.022-28.78 31.862-51.088 31.862-0.239 0-0.478-0.001-0.717-0.004h0.036c-0.194 0.003-0.423 0.004-0.652 0.004-15.455 0-29.378-6.556-39.141-17.038l-0.030-0.032c-10.351-10.149-16.837-24.206-17.066-39.779v-0.043c-0.068-1.005-0.107-2.178-0.107-3.361 0-23.149 14.868-42.826 35.575-50.003l0.372-0.112zM842.524 341.333c-2.866 66.465-40.842 123.446-95.744 153.122l-0.967 0.478c-62.972 39.739-139.592 63.321-221.72 63.321-4.253 0-8.49-0.063-12.712-0.189l0.619 0.015c-3.603 0.111-7.841 0.174-12.093 0.174-82.128 0-158.748-23.582-223.458-64.343l1.738 1.022c-56.025-29.981-94.089-87.062-96.7-153.253l-0.011-0.347c2.622-66.538 40.686-123.619 95.74-153.124l0.971-0.476c62.972-39.739 139.592-63.321 221.72-63.321 4.253 0 8.49 0.063 12.712 0.189l-0.619-0.015c3.603-0.111 7.841-0.174 12.093-0.174 82.128 0 158.748 23.582 223.458 64.343l-1.738-1.022c55.869 30.154 93.846 87.135 96.698 153.221l0.013 0.379zM341.333 455.111c31.419 0 56.889-25.47 56.889-56.889v0c0.003-0.194 0.004-0.423 0.004-0.652 0-15.455-6.556-29.378-17.038-39.141l-0.032-0.030c-10.149-10.351-24.206-16.837-39.779-17.066h-0.043c-31.419 0-56.889 25.47-56.889 56.889v0c0.229 15.616 6.716 29.673 17.057 39.813l0.009 0.009c9.792 10.515 23.716 17.071 39.17 17.071 0.229 0 0.458-0.001 0.687-0.004h-0.035zM512 238.364c-1.067-0.022-2.324-0.035-3.585-0.035-42.968 0-82.534 14.568-114.027 39.034l0.421-0.315c-6.049 4.644-13.726 7.442-22.057 7.442-0.646 0-1.288-0.017-1.925-0.050l0.089 0.004c-9.125-0.421-17.102-4.996-22.13-11.865l-0.057-0.082c-4.761-5.608-7.656-12.929-7.656-20.927 0-1.447 0.095-2.872 0.278-4.269l-0.018 0.164c0.961-9.101 5.626-16.955 12.437-22.129l0.079-0.057c41.898-34.030 95.893-54.637 154.701-54.637 1.213 0 2.424 0.009 3.633 0.026l-0.183-0.002c1.441-0.030 3.139-0.048 4.841-0.048 58.181 0 111.652 20.171 153.799 53.901l-0.489-0.378c6.89 5.232 11.555 13.086 12.504 22.048l0.012 0.139c0.151 1.215 0.237 2.621 0.237 4.047 0 7.923-2.655 15.226-7.125 21.068l0.061-0.083c-5.4 6.853-13.498 11.372-22.666 11.942l-0.089 0.004c-0.98 0.094-2.118 0.147-3.269 0.147-7.709 0-14.858-2.396-20.744-6.484l0.12 0.079c-31.073-24.151-70.638-38.719-113.606-38.719-1.261 0-2.518 0.013-3.773 0.037l0.188-0.003zM682.667 455.111c31.419 0 56.889-25.47 56.889-56.889v0c0.003-0.194 0.004-0.423 0.004-0.652 0-15.455-6.556-29.378-17.038-39.141l-0.032-0.030c-10.149-10.351-24.206-16.837-39.779-17.066h-0.043c-31.419 0-56.889 25.47-56.889 56.889v0c0.229 15.616 6.716 29.673 17.057 39.813l0.009 0.009c9.792 10.515 23.716 17.071 39.17 17.071 0.229 0 0.458-0.001 0.687-0.004h-0.035zM793.031 768c-0.007-0.241-0.011-0.523-0.011-0.807 0-8.506 3.734-16.14 9.651-21.352l0.031-0.027c5.678-5.678 13.522-9.19 22.187-9.19 17.329 0 31.377 14.048 31.377 31.377 0 8.664-3.512 16.509-9.19 22.187v0c-5.528 5.993-13.42 9.734-22.187 9.734s-16.659-3.741-22.168-9.714l-0.019-0.021c-5.949-5.24-9.683-12.873-9.683-21.379 0-0.284 0.004-0.567 0.012-0.849l-0.001 0.041zM910.222 512c0.012 0.443 0.019 0.964 0.019 1.487 0 31.419-25.47 56.889-56.889 56.889-22.884 0-42.613-13.512-51.642-32.993l-0.146-0.352c28.781-21.952 53.116-47.916 72.658-77.34l0.729-1.167c20.797 7.643 35.365 27.278 35.365 50.315 0 1.112-0.034 2.216-0.101 3.311l0.007-0.15z" />
<glyph unicode="&#xe953;" glyph-name="refresh" d="M512 853.333c144.433-0.326 270.769-77.492 340.333-192.773l1.001-1.787 49.493 234.382 56.889-11.947-72.249-333.938-333.938 71.111 11.947 56.889 242.916-51.769c-59.527 105.136-170.625 174.933-298.026 174.933-188.513 0-341.333-152.82-341.333-341.333s152.82-341.333 341.333-341.333c127.401 0 238.499 69.797 297.142 173.239l0.884 1.694 50.062-27.876c-69.179-123.687-199.344-205.931-348.719-205.931-219.932 0-398.222 178.29-398.222 398.222s178.29 398.222 398.222 398.222c0.797 0 1.593-0.002 2.388-0.007l-0.122 0.001z" />
<glyph unicode="&#xe954;" glyph-name="search" d="M967.111 120.604l-218.453 220.729c29.611 48.751 47.317 107.593 47.786 170.536l0.001 0.131c0 188.513-152.82 341.333-341.333 341.333s-341.333-152.82-341.333-341.333c0-188.513 152.82-341.333 341.333-341.333v0c63.074 0.469 121.916 18.175 172.169 48.632l-1.503-0.846 220.729-218.453zM170.667 512c0 157.094 127.35 284.444 284.444 284.444s284.444-127.35 284.444-284.444c0-157.094-127.35-284.444-284.444-284.444v0c-157.094 0-284.444 127.35-284.444 284.444v0zM715.662 291.84l170.667-170.667-40.391-40.391-170.667 170.667c14.704 12.475 27.916 25.687 39.985 39.901l0.406 0.49z" />
<glyph unicode="&#xe955;" glyph-name="search-small" d="M880.071 126.862l-205.369 205.938c39.927 48.597 64.133 111.432 64.133 179.921 0 157.094-127.35 284.444-284.444 284.444s-284.444-127.35-284.444-284.444c0-157.094 127.35-284.444 284.444-284.444 68.488 0 131.323 24.205 180.416 64.528l-0.496-0.395 205.938-205.369zM455.111 284.444c-125.675 0-227.556 101.88-227.556 227.556s101.88 227.556 227.556 227.556c125.675 0 227.556-101.88 227.556-227.556v0c0-125.675-101.88-227.556-227.556-227.556v0z" />
<glyph unicode="&#xe956;" glyph-name="share" d="M910.222 512v-512h-853.333v512h284.444v-56.889h-227.556v-398.222h739.556v398.222h-227.556v56.889zM455.111 341.333h56.889v460.231l137.102-137.671 40.391 40.391-205.938 205.938-205.938-205.938 40.391-40.391 137.102 137.671z" />
<glyph unicode="&#xe957;" glyph-name="shopping-cart" d="M739.556 227.555h-353.849l-28.444 113.778h467.627l85.333 341.333h-638.293l-44.373 170.667h-170.667v-56.889h128l113.778-455.111 29.013-113.778c-56.195-7.53-99.079-55.169-99.079-112.824 0-62.838 50.94-113.778 113.778-113.778s113.778 50.94 113.778 113.778c0 20.56-5.453 39.846-14.992 56.491l0.293-0.556h202.524c-9.569-16.31-15.221-35.92-15.221-56.85 0-62.838 50.94-113.778 113.778-113.778s113.778 50.94 113.778 113.778c0 62.838-50.94 113.778-113.778 113.778-1.049 0-2.095-0.014-3.137-0.042l0.154 0.003zM837.404 625.778l-56.889-227.556h-439.182l-56.889 227.556zM341.333 56.889c-31.419 0-56.889 25.47-56.889 56.889s25.47 56.889 56.889 56.889c31.419 0 56.889-25.47 56.889-56.889v0c0-31.419-25.47-56.889-56.889-56.889v0zM739.556 56.889c-31.419 0-56.889 25.47-56.889 56.889s25.47 56.889 56.889 56.889c31.419 0 56.889-25.47 56.889-56.889v0c0-31.419-25.47-56.889-56.889-56.889v0z" />
<glyph unicode="&#xe958;" glyph-name="shopping-cart-add" d="M682.667 170.667h-353.849l-28.444 113.778h467.627l28.444 113.778h-56.889l-14.222-56.889h-440.889l-56.889 227.556h284.444v56.889h-296.96l-44.373 170.667h-170.667v-56.889h128l113.778-455.111 29.013-113.778c-56.195-7.53-99.079-55.169-99.079-112.824 0-62.838 50.94-113.778 113.778-113.778s113.778 50.94 113.778 113.778c0 20.56-5.453 39.846-14.992 56.491l0.293-0.556h202.524c-9.569-16.31-15.221-35.92-15.221-56.85 0-62.838 50.94-113.778 113.778-113.778s113.778 50.94 113.778 113.778c0 62.838-50.94 113.778-113.778 113.778-1.049 0-2.095-0.014-3.137-0.042l0.154 0.003zM284.444 0c-31.419 0-56.889 25.47-56.889 56.889s25.47 56.889 56.889 56.889c31.419 0 56.889-25.47 56.889-56.889v0c0-31.419-25.47-56.889-56.889-56.889v0zM682.667 0c-31.419 0-56.889 25.47-56.889 56.889s25.47 56.889 56.889 56.889c31.419 0 56.889-25.47 56.889-56.889v0c0-31.419-25.47-56.889-56.889-56.889v0zM1024 625.778h-170.667v-170.667h-113.778v170.667h-170.667v113.778h170.667v170.667h113.778v-170.667h170.667z" />
<glyph unicode="&#xe959;" glyph-name="show-bottom-panel" d="M967.111 0v56.889h-56.889v113.778h-853.333v-113.778h-56.889v-56.889zM853.333 56.889h-739.556v56.889h739.556zM455.111 673.564l-137.102-137.671-40.391 40.391 205.938 205.938 205.938-205.938-40.391-40.391-137.102 137.671v-389.12h-56.889z" />
<glyph unicode="&#xe95a;" glyph-name="show-top-panel" d="M0 910.222v-56.889h56.889v-113.778h853.333v113.778h56.889v56.889zM853.333 796.444h-739.556v56.889h739.556zM455.111 625.778h56.889v-389.12l137.102 137.671 40.391-40.391-205.938-205.938-205.938 205.938 40.391 40.391 137.102-137.671z" />
<glyph unicode="&#xe95b;" glyph-name="site" horiz-adv-x="1081" d="M967.111 341.333v170.667h-398.222v113.778h113.778v284.444h-284.444v-284.444h113.778v-113.778h-398.222v-170.667h-113.778v-284.444h284.444v284.444h-113.778v113.778h341.333v-113.778h-113.778v-284.444h284.444v284.444h-113.778v113.778h341.333v-113.778h-113.778v-284.444h284.444v284.444zM455.111 682.667v170.667h170.667v-170.667zM227.556 284.444v-170.667h-170.667v170.667zM625.778 284.444v-170.667h-170.667v170.667zM1024 113.778h-170.667v170.667h170.667z" />
<glyph unicode="&#xe95c;" glyph-name="skype" d="M685.511 29.013c-0.27-0.001-0.59-0.002-0.911-0.002-41.215 0-80.071 10.099-114.228 27.956l1.361-0.648c-17.527-2.733-37.741-4.294-58.32-4.294-110.678 0-210.81 45.151-282.981 118.039l-0.032 0.032c-74.554 73.849-120.715 176.247-120.715 289.427 0 20.318 1.488 40.289 4.36 59.81l-0.268-2.214c-16.156 31.851-25.62 69.447-25.62 109.253 0 68.57 28.083 130.581 73.374 175.16l0.032 0.032c44.896 47.396 108.28 76.89 178.552 76.89 38.492 0 74.917-8.849 107.351-24.624l-1.459 0.64c18.769 3.073 40.402 4.829 62.445 4.829 112.55 0 214.409-45.777 287.973-119.727l0.017-0.017c73.235-72.253 118.599-172.596 118.599-283.535 0-21.81-1.753-43.21-5.127-64.068l0.305 2.287c17.085-32.565 27.11-71.146 27.11-112.069 0-69.781-29.151-132.754-75.939-177.405l-0.096-0.091c-44.711-45.883-106.793-74.652-175.598-75.66l-0.188-0.002zM583.111 113.778l9.102-4.551c26.48-15.022 58.164-23.875 91.916-23.875 53.201 0 101.265 21.997 135.593 57.391l0.046 0.048c36.379 34.768 58.995 83.674 58.995 137.861 0 34.202-9.010 66.3-24.785 94.050l0.493-0.942-1.138 10.809v10.24c3.758 18.917 5.909 40.666 5.909 62.918 0 94.274-38.605 179.532-100.87 240.826l-0.044 0.043c-62.672 64.206-150.079 104.025-246.786 104.025-22.979 0-45.432-2.248-67.152-6.536l2.188 0.36h-10.24l-8.533 4.551c-25.847 14.089-56.611 22.373-89.309 22.373-54.482 0-103.593-22.999-138.152-59.818l-0.094-0.101c-35.505-34.559-57.531-82.812-57.531-136.209 0-33.504 8.671-64.982 23.892-92.313l-0.495 0.967 4.551-9.102v-9.671c-3.071-17.411-4.826-37.457-4.826-57.913 0-97.558 39.93-185.79 104.339-249.245l0.043-0.042c61.91-62.637 147.828-101.429 242.805-101.429 21.15 0 41.851 1.924 61.937 5.605l-2.094-0.319zM512 227.555c-133.689 0-193.422 65.991-193.422 113.778 0 0.004 0 0.010 0 0.015 0 23.478 18.714 42.586 42.039 43.219l0.059 0.001c56.889 0 42.667-82.489 149.049-82.489 56.889 0 84.764 29.582 84.764 60.302 0 18.204-9.102 38.116-44.942 47.218l-114.916 29.582c-95.573 24.462-113.778 76.231-113.778 124.587 0 101.262 95.004 139.378 184.32 139.378s177.493-45.511 177.493-106.382c-1.224-22.895-20.087-40.996-43.178-40.996-0.621 0-1.238 0.013-1.853 0.039l0.088-0.003h-2.844c-46.649 0-37.547 69.973-135.964 69.973-48.924 0-75.662-22.187-75.662-56.889s38.116-41.529 71.68-48.924l88.178-19.911c96.142-21.618 120.604-77.938 120.604-130.844 0-84.764-63.147-141.653-191.716-141.653zM880.64 389.12s0 0 0 0z" />
<glyph unicode="&#xe95d;" glyph-name="star" d="M512 796.444l88.178-215.609 13.084-32.427 35.271-2.844 232.107-17.067-178.062-147.342-26.738-22.756 65.422-261.689-229.262 142.791-227.556-141.653 65.422 261.689-26.738 22.756-179.769 149.049 267.378 19.911 13.084 32.427 88.178 212.764zM512 950.044l-140.516-344.747-371.484-27.307 284.444-240.071-88.747-361.813 316.302 194.56 316.302-196.267-88.747 363.52 284.444 240.071-371.484 27.307-140.516 344.747z" />
<glyph unicode="&#xe95e;" glyph-name="start" d="M739.556 651.947v-393.671l-341.333 196.836 341.333 196.836zM796.444 750.933l-512-295.822 512-295.822v591.644zM227.556 170.667h56.889v568.889h-56.889z" />
<glyph unicode="&#xe95f;" glyph-name="stumbleupon" d="M568.889 638.293v-56.889l40.96-21.618 72.818 23.324v56.889c-0.557 43.926-19.958 83.213-50.473 110.227l-0.158 0.137c-30.436 28.565-71.507 46.113-116.677 46.113-1.181 0-2.359-0.012-3.535-0.036l0.176 0.003c-0.943 0.020-2.054 0.031-3.169 0.031-46.129 0-87.774-19.197-117.383-50.038l-0.053-0.055c-30.896-29.661-50.093-71.307-50.093-117.436 0-1.114 0.011-2.226 0.033-3.334l-0.003 0.166v-227.556c0.003-0.194 0.004-0.423 0.004-0.652 0-15.455-6.556-29.378-17.038-39.141l-0.032-0.030c-10.149-10.351-24.206-16.837-39.779-17.066h-0.043c-0.194-0.003-0.423-0.004-0.652-0.004-15.455 0-29.378 6.556-39.141 17.038l-0.030 0.032c-10.515 9.792-17.071 23.716-17.071 39.17 0 0.229 0.001 0.458 0.004 0.687v-0.035 113.778h-113.778v-113.778c0-94.257 76.41-170.667 170.667-170.667v0c94.257 0 170.667 76.41 170.667 170.667v0 227.556c0.229 15.616 6.716 29.673 17.057 39.813l0.009 0.009c9.792 10.515 23.716 17.071 39.17 17.071 0.229 0 0.458-0.001 0.687-0.004h-0.035c0.641 0.026 1.392 0.041 2.148 0.041 14.478 0 27.692-5.408 37.733-14.314l-0.059 0.051c9.727-6.8 16.228-17.638 17.060-30.030l0.007-0.121zM910.222 398.222v113.778h-113.778v-113.778c0.003-0.194 0.004-0.423 0.004-0.652 0-15.455-6.556-29.378-17.038-39.141l-0.032-0.030c-10.149-10.351-24.206-16.837-39.779-17.066h-0.043c-0.315-0.007-0.687-0.011-1.060-0.011-16.017 0-30.336 7.274-39.832 18.7l-0.068 0.085c-10.015 12.508-16.072 28.562-16.072 46.032 0 1.618 0.052 3.224 0.154 4.817l-0.011-0.217v110.364l-72.818-21.618-40.96 21.618v-110.364c-0.055-1.668-0.086-3.63-0.086-5.598 0-48.601 19.105-92.74 50.215-125.316l-0.066 0.070c29.446-32.219 71.651-52.351 118.559-52.351 0.719 0 1.437 0.005 2.154 0.014l-0.109-0.001c94.257 0 170.667 76.41 170.667 170.667v0zM1024 455.111c0-282.77-229.23-512-512-512s-512 229.23-512 512c0 282.77 229.23 512 512 512v0c282.77 0 512-229.23 512-512v0zM512 910.222c-251.351 0-455.111-203.76-455.111-455.111s203.76-455.111 455.111-455.111c251.351 0 455.111 203.76 455.111 455.111v0c0 251.351-203.76 455.111-455.111 455.111v0z" />
<glyph unicode="&#xe960;" glyph-name="tag" d="M193.422 853.333h238.933c26.513-0.78 51.432-6.776 74.036-16.99l-1.218 0.492c24.687-9.803 45.844-23.47 63.806-40.476l-0.091 0.085 375.467-375.467c14.404-13.888 23.35-33.353 23.35-54.907 0-0.697-0.009-1.392-0.028-2.084l0.002 0.102c-0.289-22.125-9.125-42.131-23.35-56.916l0.026 0.027-284.444-284.444c-14.758-14.199-34.764-23.036-56.833-23.324l-0.056-0.001c-0.59-0.016-1.285-0.026-1.982-0.026-21.554 0-41.019 8.946-54.885 23.327l-0.022 0.023-375.467 375.467c-16.654 17.74-30.125 38.701-39.353 61.815l-0.469 1.332c-9.976 21.522-16.172 46.622-17.058 73.068l-0.008 0.319v238.933c0 43.986 35.658 79.644 79.644 79.644v0zM193.422 796.444c-0.359 0.022-0.779 0.035-1.201 0.035-6.073 0-11.528-2.643-15.279-6.842l-0.018-0.020c-3.88-3.732-6.291-8.969-6.291-14.768 0-0.408 0.012-0.814 0.036-1.216l-0.003 0.056v-238.933c0.775-18.688 5.096-36.177 12.303-52.079l-0.357 0.879c6.96-17.327 16.37-32.217 27.991-45.071l-0.115 0.129 375.467-374.898c8.533-9.102 17.067-14.791 33.564 0l284.444 284.444c4.225 4.046 6.851 9.733 6.851 16.033 0 0.364-0.009 0.725-0.026 1.084l0.002-0.051c0.035 0.414 0.054 0.896 0.054 1.383 0 5.673-2.679 10.721-6.841 13.947l-0.040 0.030-376.036 376.036c-12.471 11.66-27.2 21.091-43.435 27.547l-0.938 0.329c-15.023 6.851-32.512 11.172-50.919 11.937l-0.281 0.009zM284.444 739.555c-31.419 0-56.889-25.47-56.889-56.889s25.47-56.889 56.889-56.889c31.419 0 56.889 25.47 56.889 56.889v0c0 31.419-25.47 56.889-56.889 56.889v0z" />
<glyph unicode="&#xe961;" glyph-name="text-document" d="M628.622 910.222h-514.844v-910.222h796.444v625.778zM625.778 832.284l204.231-206.507h-204.231zM853.333 56.889h-682.667v796.444h398.222v-284.444h284.444zM455.111 682.667h-170.667v56.889h170.667zM455.111 512h-170.667v56.889h170.667zM739.556 341.333h-455.111v56.889h455.111zM739.556 170.667h-455.111v56.889h455.111z" />
<glyph unicode="&#xe962;" glyph-name="thumbnails" d="M455.111 512h-398.222v398.222h398.222zM398.222 853.333h-284.444v-284.444h284.444zM967.111 512h-398.222v398.222h398.222zM910.222 853.333h-284.444v-284.444h284.444zM455.111 0h-398.222v398.222h398.222zM398.222 341.333h-284.444v-284.444h284.444zM967.111 0h-398.222v398.222h398.222zM910.222 341.333h-284.444v-284.444h284.444z" />
<glyph unicode="&#xe963;" glyph-name="thumbnails-9" d="M284.444 625.778h-284.444v284.444h284.444zM227.556 853.333h-170.667v-170.667h170.667zM625.778 625.778h-284.444v284.444h284.444zM568.889 853.333h-170.667v-170.667h170.667zM284.444 284.444h-284.444v284.444h284.444zM227.556 512h-170.667v-170.667h170.667zM625.778 284.444h-284.444v284.444h284.444zM568.889 512h-170.667v-170.667h170.667zM967.111 625.778h-284.444v284.444h284.444zM910.222 853.333h-170.667v-170.667h170.667zM967.111 284.444h-284.444v284.444h284.444zM910.222 512h-170.667v-170.667h170.667zM284.444-56.889h-284.444v284.444h284.444zM227.556 170.667h-170.667v-170.667h170.667zM625.778-56.889h-284.444v284.444h284.444zM568.889 170.667h-170.667v-170.667h170.667zM967.111-56.889h-284.444v284.444h284.444zM910.222 170.667h-170.667v-170.667h170.667z" />
<glyph unicode="&#xe964;" glyph-name="trash" d="M668.444 113.778h-56.889l14.222 398.222h56.889zM512 512h-56.889v-398.222h56.889zM355.556 113.778l-14.222 398.222h-56.889l14.222-398.222zM853.333 711.111v-85.333l-56.889-625.778h-625.778l-56.889 625.778v85.333c0 47.128 38.205 85.333 85.333 85.333v0h85.333v56.889c0 31.419 25.47 56.889 56.889 56.889v0h284.444c31.419 0 56.889-25.47 56.889-56.889v0-56.889h85.333c47.128 0 85.333-38.205 85.333-85.333v0zM341.333 796.444h284.444v42.667c0 7.855-6.368 14.222-14.222 14.222v0h-256c-7.855 0-14.222-6.368-14.222-14.222v0zM790.756 568.889h-614.4l46.080-512h522.24zM796.444 699.164c0 22.307-18.084 40.391-40.391 40.391v0h-544.996c-22.307 0-40.391-18.084-40.391-40.391v0-73.387h625.778z" />
<glyph unicode="&#xe965;" glyph-name="tumblr" d="M617.813 0c-6.74-0.642-14.573-1.008-22.492-1.008-138.871 0-251.449 112.578-251.449 251.449 0 4.357 0.111 8.687 0.33 12.989l-0.024-0.604v211.627h-51.2c-24.821 0-44.942 20.121-44.942 44.942v0 113.778c0.073 23.986 14.979 44.472 36.023 52.773l0.386 0.134c70.305 25.159 120.21 90.049 122.871 166.942l0.009 0.312c-0.003 0.202-0.004 0.44-0.004 0.678 0 29.534 23.942 53.476 53.476 53.476 1.202 0 2.396-0.040 3.578-0.118l-0.161 0.009h118.329c24.62-0.296 44.576-19.855 45.509-44.288l0.003-0.086v-161.564h109.796c24.821 0 44.942-20.121 44.942-44.942v-135.964c0.002-0.169 0.004-0.369 0.004-0.569 0-24.821-20.121-44.942-44.942-44.942-0.001 0-0.003 0-0.004 0h-112.071v-193.422c0-39.822 23.324-42.667 30.72-42.667 15.973 0.824 30.912 4.301 44.7 9.999l-0.895-0.328c7.851 3.64 17.041 5.763 26.727 5.763 3.215 0 6.375-0.234 9.464-0.686l-0.351 0.042c17.839-3.865 31.693-17.529 35.778-34.955l0.062-0.316 35.84-104.676c2.681-6.011 4.242-13.027 4.242-20.406 0-12.38-4.394-23.734-11.707-32.587l0.069 0.087c-46.091-37.913-105.706-60.9-170.69-60.9-1.392 0-2.782 0.011-4.169 0.032l0.21-0.003zM304.924 531.342h67.698c15.709 0 28.444-12.735 28.444-28.444v0-240.071c0-48.356 15.36-205.938 216.747-205.938h7.964c0.74-0.009 1.615-0.014 2.491-0.014 47.705 0 91.982 14.68 128.559 39.769l-0.775-0.502-34.133 98.987c-18.22-7.966-39.372-13.088-61.579-14.205l-0.43-0.017c-0.533-0.011-1.162-0.018-1.792-0.018-49.642 0-89.884 40.243-89.884 89.884 0 3.816 0.238 7.576 0.699 11.267l-0.045-0.44v221.867c0 15.709 12.735 28.444 28.444 28.444v0h126.862v113.778h-126.293c-15.709 0-28.444 12.735-28.444 28.444v0 179.2h-106.951c-1.031-101.421-65.701-187.473-155.935-220.207l-1.647-0.522zM580.836 853.333v0z" />
<glyph unicode="&#xe966;" glyph-name="twitter" d="M686.080 824.889c1.657 0.055 3.605 0.086 5.56 0.086 51.833 0 98.558-21.867 131.453-56.88l0.088-0.095c44.773 8.344 84.675 23.792 120.538 45.285l-1.641-0.911c-14.145-43.886-42.951-79.703-80.53-102.506l-0.822-0.463c39.553 5.161 75.446 15.753 108.688 31.106l-2.306-0.955c-25.334-38.242-55.912-70.631-91.166-97.134l-0.994-0.715v-23.324c-0.285-67.434-13.418-131.72-37.075-190.648l1.235 3.483c-25.315-65.542-59.328-122.049-101.386-171.502l0.693 0.835c-46.211-53.171-103.163-95.725-167.614-124.506l-3.053-1.218c-64.919-30.205-140.927-47.826-221.051-47.826-2.287 0-4.571 0.014-6.852 0.043l0.347-0.003c-105.292 0.103-203.281 31.281-285.314 84.856l2.007-1.23q21.618 0 44.373 0c0.772-0.006 1.684-0.009 2.598-0.009 87.396 0 167.786 29.996 231.436 80.255l-0.789-0.601c-0.732-0.011-1.597-0.017-2.463-0.017-39.3 0-75.608 12.814-104.973 34.492l0.484-0.341c-30.323 23.692-53.384 55.376-66.134 91.897l-0.426 1.401c10.772-2.163 23.158-3.405 35.833-3.413h0.007c0.281-0.001 0.613-0.002 0.945-0.002 17.225 0 33.966 2.075 49.986 5.988l-1.437-0.297c-44.727 7.987-83.001 31.198-110.117 63.976l-0.248 0.308c-25.85 31.13-41.536 71.505-41.536 115.544 0 0.579 0.003 1.158 0.008 1.736l-0.001-0.088v3.982c23.685-14.646 52.402-23.325 83.147-23.325 0.169 0 0.337 0 0.506 0.001h-0.026c-50.545 31.333-83.707 86.505-83.707 149.423 0 1.869 0.029 3.731 0.087 5.586l-0.007-0.271c-0.001 0.222-0.002 0.486-0.002 0.749 0 34.7 9.958 67.075 27.172 94.422l-0.432-0.736c45.893-57.585 102.802-104.312 167.787-137.475l2.88-1.334c62.263-32.912 135.6-53.57 213.431-56.854l1.040-0.035c-3.613 12.557-5.691 26.98-5.691 41.889 0 0.273 0.001 0.547 0.002 0.82v-0.042c-0.004 0.468-0.007 1.022-0.007 1.577 0 51.641 21.843 98.18 56.795 130.881l0.101 0.093c33.111 34.831 79.692 56.587 131.357 56.889h0.056zM944.924 813.511v0zM686.080 881.778c-0.623 0.006-1.36 0.009-2.097 0.009-65.964 0-125.624-26.987-168.542-70.523l-0.028-0.028c-40.555-38.556-67.154-91.46-71.632-150.543l-0.048-0.781c-47.672 8.873-90.197 23.882-129.361 44.43l2.499-1.194c-60.22 30.646-110.692 72.208-150.613 122.521l-0.711 0.928c-10.458 13.152-26.428 21.532-44.359 21.618h-3.996c-19.071-1.288-35.436-11.795-44.801-27.059l-0.141-0.248c-21.787-34.917-34.706-77.318-34.706-122.737 0-0.45 0.001-0.901 0.004-1.351v0.070c0.729-33.211 7.771-64.586 19.965-93.239l-0.623 1.648c-10.142-10.223-16.43-24.282-16.498-39.809v-3.995c0.385-58.58 21.842-112.075 57.161-153.357l-0.272 0.326 12.516-14.222c-2.027-5.327-3.2-11.486-3.2-17.92s1.174-12.593 3.319-18.276l-0.118 0.356c16.595-48.882 46.224-89.711 84.76-119.608l0.573-0.428h2.844c-26.595-7.952-57.154-12.528-88.782-12.528-0.988 0-1.974 0.004-2.96 0.013l0.151-0.001c-13.653 0-26.738 0-39.822 0h-9.671c-0.044 0-0.095 0-0.147 0-24.904 0-46.070-16.002-53.777-38.285l-0.12-0.4c-1.963-5.519-3.098-11.886-3.098-18.517 0-20.115 10.439-37.791 26.196-47.907l0.226-0.136c89.161-57.748 198.145-92.101 315.149-92.16h0.016c1.698-0.018 3.704-0.028 5.713-0.028 89.105 0 173.605 19.717 249.375 55.025l-3.638-1.522c74.24 33.703 136.854 81.014 187.153 139.259l0.581 0.688c45.068 53.353 82.157 115.317 108.288 182.743l1.508 4.422c24.354 60.317 38.717 130.237 39.252 203.445l0.001 0.217c32.072 27.080 59.706 57.968 82.625 92.274l1.002 1.593c5.804 8.771 9.26 19.537 9.26 31.11 0 14.236-5.229 27.251-13.871 37.228l0.060-0.071c-4.439 5.237-9.712 9.603-15.643 12.937l-0.286 0.148c2.699 6.391 4.268 13.822 4.268 21.618 0 31.319-25.309 56.727-56.59 56.888h-0.015c-10.114-0.523-19.45-3.413-27.603-8.122l0.296 0.158c-21.082-12.535-45.433-23.194-71.122-30.72l-2.265-0.569c-39.967 33.311-91.861 53.532-148.477 53.532-1.801 0-3.598-0.020-5.389-0.061l0.267 0.005z" />
<glyph unicode="&#xe967;" glyph-name="upload" d="M455.111 730.453l-193.991-194.56-40.391 40.391 262.827 262.827 262.827-262.827-40.391-40.391-193.991 194.56v-389.12h-56.889zM853.333 284.444v-170.667h-739.556v170.667h-56.889v-227.556h853.333v227.556z" />
<glyph unicode="&#xe968;" glyph-name="user" d="M753.778 244.622c-51.274 14.894-90.576 55.14-103.875 105.91l-0.232 1.042c21.505 33.934 40.699 72.989 55.559 114.117l1.329 4.212c41.222 19.171 70.825 57.249 77.841 102.778l0.096 0.76c2.679 7.692 4.226 16.558 4.226 25.785 0 33.194-20.021 61.712-48.646 74.137l-0.522 0.202c1.615 9.952 2.537 21.424 2.537 33.112 0 50.831-17.452 97.586-46.691 134.6l0.349-0.458c-43.816 43.137-103.988 69.773-170.381 69.773-4.703 0-9.376-0.134-14.013-0.397l0.642 0.029c-4.64 0.316-10.057 0.496-15.516 0.496-66.456 0-126.68-26.687-170.539-69.928l0.028 0.028c-27.741-36.113-44.456-81.956-44.456-131.703 0-12.556 1.065-24.862 3.109-36.835l-0.181 1.285c-28.077-13.063-47.192-41.033-47.192-73.467 0-9.552 1.658-18.716 4.701-27.221l-0.176 0.564c6.64-45.869 35.366-83.821 74.861-103.183l0.801-0.355c16.19-45.34 35.384-84.395 58.359-120.827l-1.47 2.498c-13.53-51.811-52.833-92.057-103.049-106.687l-1.057-0.264c-81.351-30.72-156.444-70.542-156.444-154.738v-19.342l18.204-6.827c109.23-40.412 235.398-63.793 367.026-63.793 4.568 0 9.129 0.028 13.683 0.084l-0.691-0.007c3.862-0.049 8.424-0.078 12.992-0.078 131.628 0 257.795 23.381 374.574 66.215l-7.548-2.422 18.204 6.827v19.342c0 84.196-75.093 124.018-156.444 154.738zM360.676 519.395h-17.067c-25.6 3.413-42.667 36.978-48.924 64.853s0 33.564 25.031 40.391l25.031 5.689-3.413 27.876c-3.362 12.808-5.292 27.513-5.292 42.669 0 38.47 12.438 74.036 33.513 102.894l-0.345-0.495c33.467 31.363 78.604 50.627 128.241 50.627 5.121 0 10.194-0.205 15.212-0.607l-0.661 0.043c4.356 0.36 9.43 0.565 14.551 0.565 49.637 0 94.774-19.264 128.344-50.723l-0.103 0.096c20.73-28.362 33.168-63.928 33.168-102.398 0-15.155-1.93-29.86-5.559-43.881l0.266 1.213-3.413-25.6 25.031-5.689c25.031-6.827 30.72-15.36 25.031-40.391s-23.324-61.44-46.649-64.853h-17.067l-5.689-16.498c-34.133-94.436-87.040-192.284-147.911-192.284s-113.778 97.849-145.636 190.009zM173.511 109.227c7.964 26.169 36.409 51.769 116.622 81.92 55.483 18.093 99.837 57.074 124.607 107.425l0.548 1.233c24.406-25.904 58.503-42.443 96.468-43.798l0.243-0.007c38.208 1.362 72.305 17.9 96.646 43.734l0.065 0.070c25.319-51.584 69.672-90.565 123.671-108.237l1.484-0.42c80.213-30.151 108.658-56.889 113.778-81.92-100.834-31.935-216.801-50.337-337.067-50.337s-236.233 18.402-345.24 52.543l8.173-2.207z" />
<glyph unicode="&#xe969;" glyph-name="video" d="M56.889 910.222v-910.222h910.222v910.222zM227.556 56.889h-113.778v113.778h113.778zM227.556 227.555h-113.778v113.778h113.778zM227.556 398.222h-113.778v113.778h113.778zM227.556 568.889h-113.778v113.778h113.778zM227.556 739.555h-113.778v113.778h113.778zM739.556 56.889h-455.111v796.444h455.111zM910.222 56.889h-113.778v113.778h113.778zM910.222 227.555h-113.778v113.778h113.778zM910.222 398.222h-113.778v113.778h113.778zM910.222 568.889h-113.778v113.778h113.778zM910.222 739.555h-113.778v113.778h113.778z" />
<glyph unicode="&#xe96a;" glyph-name="video-play" d="M910.222 853.333h-796.444c-62.838 0-113.778-50.94-113.778-113.778v0-568.889c0-62.838 50.94-113.778 113.778-113.778v0h796.444c62.838 0 113.778 50.94 113.778 113.778v0 568.889c0 62.838-50.94 113.778-113.778 113.778v0zM967.111 170.667c0-31.419-25.47-56.889-56.889-56.889v0h-796.444c-31.419 0-56.889 25.47-56.889 56.889v0 568.889c0 31.419 25.47 56.889 56.889 56.889v0h796.444c31.419 0 56.889-25.47 56.889-56.889v0zM341.333 711.111v-512l443.164 256-443.164 256zM398.222 297.529v315.164l272.498-157.582-272.498-157.582zM853.333 682.667h56.889v56.889h-56.889zM853.333 512h56.889v56.889h-56.889zM853.333 341.333h56.889v56.889h-56.889zM853.333 170.667h56.889v56.889h-56.889zM113.778 682.667h56.889v56.889h-56.889zM113.778 512h56.889v56.889h-56.889zM113.778 341.333h56.889v56.889h-56.889zM113.778 170.667h56.889v56.889h-56.889z" />
<glyph unicode="&#xe96b;" glyph-name="vimeo" d="M470.471 83.627c-62.578 0-113.778 50.062-152.462 147.342l-70.542 238.364c-25.6 84.196-45.511 99.556-52.907 106.382-20.028-8.303-37.247-17.839-53.221-29.031l0.883 0.586-21.049-14.791-76.8 86.471 147.342 120.604c37.559 35.601 83.297 62.969 134.075 78.976l2.458 0.668h19.911c51.2 0 117.191-26.169 141.653-151.324 7.964-49.493 14.791-88.747 20.48-118.898 3.413-21.618 7.396-42.098 12.516-62.009 18.204-88.178 36.409-100.124 36.409-100.124 20.419 19.943 38.296 42.345 53.192 66.764l0.852 1.503c23.545 30.153 41.431 65.967 51.341 104.964l0.428 1.987v11.378c0 18.204-3.982 25.6-28.444 25.6-19.222-0.843-37.288-4.736-54.074-11.204l1.167 0.395-55.751-19.342 18.204 56.889c44.373 134.827 131.413 203.093 258.844 203.093h9.671c98.418 0 152.462-56.889 152.462-166.116v-18.773c-3.982-86.471-62.578-196.267-180.338-336.782s-224.711-222.436-316.302-223.573zM186.027 633.173h5.12c56.889 0 88.747-79.076 109.796-147.911l69.973-235.52c18.773-48.356 52.338-109.227 98.418-109.227s138.809 35.84 272.498 200.818c111.502 129.138 168.391 227.556 168.391 301.511v17.636c0 96.711-51.2 109.227-95.573 109.227h-9.671c-3.201 0.192-6.943 0.302-10.71 0.302-77.476 0-144.121-46.37-173.698-112.87l-0.48-1.209h15.929c2.622 0.315 5.659 0.495 8.737 0.495 42.73 0 77.369-34.639 77.369-77.369 0-1.976-0.074-3.935-0.22-5.873l0.016 0.258v-21.049c-12.1-49.89-33.566-93.555-62.599-131.068l0.59 0.792c-37.547-54.044-64.853-90.453-103.538-90.453-52.338 0-74.524 76.8-88.178 143.929-5.332 18.134-9.915 40.098-12.843 62.583l-0.242 2.271c-5.689 30.151-12.516 69.404-20.48 118.329-18.204 93.298-56.889 104.676-85.902 104.676h-7.396c-44.253-13.518-82.358-35.816-113.974-65.032l0.196 0.179-101.262-85.902 4.551-5.12c14.636 8.724 31.697 16.957 49.489 23.703l2.28 0.759z" />
<glyph unicode="&#xe96c;" glyph-name="warning" d="M512 816.924c0.137 0.002 0.298 0.003 0.46 0.003 14.893 0 27.877-8.176 34.708-20.284l0.103-0.199 391.964-679.253c3.301-5.725 5.249-12.591 5.249-19.911 0-22.307-18.084-40.391-40.391-40.391-0.045 0-0.091 0-0.136 0h-783.922c-0.136-0.002-0.297-0.003-0.459-0.003-22.307 0-40.391 18.084-40.391 40.391 0 7.553 2.073 14.621 5.681 20.667l-0.102-0.185 391.964 678.684c6.934 12.307 19.918 20.483 34.811 20.483 0.162 0 0.323-0.001 0.485-0.003h-0.025zM512 873.813c-0.202 0.002-0.442 0.002-0.681 0.002-35.703 0-66.914-19.234-83.836-47.905l-0.248-0.453-391.964-679.253c-8.303-13.925-13.212-30.709-13.212-48.64s4.909-34.715 13.455-49.082l-0.244 0.442c16.956-29.432 48.242-48.927 84.082-48.927 0.24 0 0.48 0.001 0.72 0.003h783.892c53.911 0.171 97.548 43.914 97.548 97.848 0 17.783-4.744 34.458-13.035 48.829l0.252-0.473-391.964 679.253c-17.17 29.124-48.381 48.358-84.083 48.358-0.239 0-0.479-0.001-0.718-0.003h0.037zM568.889 227.555c0 31.419-25.47 56.889-56.889 56.889v0 0c-31.419 0-56.889-25.47-56.889-56.889v0 0c0-31.419 25.47-56.889 56.889-56.889v0 0c31.419 0 56.889 25.47 56.889 56.889v0zM568.889 625.778h-113.778v-284.444h113.778z" />
<glyph unicode="&#xe96d;" glyph-name="zoom-in" d="M967.111 40.391l-203.093 202.524c55.511 64.385 89.319 148.847 89.319 241.205 0 204.537-165.81 370.347-370.347 370.347s-370.347-165.81-370.347-370.347c0-204.537 165.81-370.347 370.347-370.347 92.358 0 176.82 33.808 241.686 89.724l-0.48-0.405 202.524-203.093zM483.556 170.667c-172.804 0-312.889 140.085-312.889 312.889s140.085 312.889 312.889 312.889c172.804 0 312.889-140.085 312.889-312.889v0c0-172.804-140.085-312.889-312.889-312.889v0zM682.667 455.111h-170.667v-170.667h-56.889v170.667h-170.667v56.889h170.667v170.667h56.889v-170.667h170.667z" />
<glyph unicode="&#xe96e;" glyph-name="zoom-level" d="M1024-15.36l-217.884 218.453c65.697 74.824 105.78 173.547 105.78 281.633 0 236.27-191.535 427.804-427.804 427.804s-427.804-191.535-427.804-427.804c0-236.27 191.535-427.804 427.804-427.804 108.086 0 206.809 40.084 282.117 106.197l-0.484-0.416 216.747-219.591zM113.778 483.555c0 204.223 165.555 369.778 369.778 369.778s369.778-165.555 369.778-369.778c0-204.223-165.555-369.778-369.778-369.778v0c-204.223 0-369.778 165.555-369.778 369.778v0zM512 659.342v-351.573l92.16 90.453 40.391-40.391-160.996-158.72-160.996 160.996 40.391 38.116 92.16-90.453v351.573l-92.16-90.453-40.391 40.391 160.996 158.72 160.996-160.996-40.391-38.116z" />
<glyph unicode="&#xe96f;" glyph-name="zoom-out" d="M967.111 40.391l-203.093 202.524c55.511 64.385 89.319 148.847 89.319 241.205 0 204.537-165.81 370.347-370.347 370.347s-370.347-165.81-370.347-370.347c0-204.537 165.81-370.347 370.347-370.347 92.358 0 176.82 33.808 241.686 89.724l-0.48-0.405 202.524-203.093zM483.556 170.667c-172.804 0-312.889 140.085-312.889 312.889s140.085 312.889 312.889 312.889c172.804 0 312.889-140.085 312.889-312.889v0c0-172.804-140.085-312.889-312.889-312.889v0zM682.667 455.111h-398.222v56.889h398.222z" />
<glyph unicode="&#xe970;" glyph-name="volume-down" d="M910.222 455.111c0-0.053 0-0.116 0-0.179 0-62.793-25.434-119.646-66.562-160.818l0.002 0.002-40.391 40.391c30.84 30.877 49.912 73.514 49.912 120.604s-19.072 89.727-49.914 120.606l0.002-0.002 40.391 40.391c41.126-41.17 66.56-98.023 66.56-160.817 0-0.063 0-0.126 0-0.188v0.010zM682.667 884.053l-323.129-258.276h-188.871v-341.333h188.871l323.129-258.276zM227.556 568.889h152.462l245.76 196.836v-621.227l-245.76 196.836h-152.462z" />
<glyph unicode="&#xe971;" glyph-name="volume-up" d="M910.222 455.111c0.001-0.332 0.002-0.724 0.002-1.117 0-93.885-38.288-178.828-100.1-240.066l-0.026-0.026-40.391 40.391c51.287 51.443 82.998 122.427 82.998 200.818s-31.711 149.375-83.005 200.825l0.007-0.007 40.391 40.391c61.839-61.264 100.126-146.206 100.126-240.092 0-0.393-0.001-0.785-0.002-1.178v0.061zM729.884 616.107l-40.391-40.391c30.84-30.877 49.912-73.514 49.912-120.604s-19.072-89.727-49.914-120.606l0.002 0.002 40.391-40.391c41.233 41.188 66.739 98.113 66.739 160.996s-25.506 119.807-66.737 160.993l-0.002 0.002zM890.88 777.102l-37.547-40.391c72.925-72.204 118.081-172.34 118.081-283.022s-45.155-210.818-118.048-282.99l-0.033-0.032 40.391-40.391c82.466 82.377 133.478 196.227 133.478 321.991s-51.012 239.614-133.474 321.987l-0.004 0.004zM568.889 884.053l-323.129-258.276h-188.871v-341.333h188.871l323.129-258.276zM113.778 568.889h152.462l245.76 196.836v-621.227l-245.76 196.836h-152.462z" />
</font>
</defs>
</svg>
