<svg xmlns="http://www.w3.org/2000/svg" width="800" height="480" viewBox="0 0 800 480"><title>lightbox</title><rect width="800" height="480" style="fill:#181818"/><path d="M20,0H780a0,0,0,0,1,0,0V59a5,5,0,0,1-5,5H25a5,5,0,0,1-5-5V0a0,0,0,0,1,0,0Z" style="fill:#404040"/><path d="M25,416H775a5,5,0,0,1,5,5v59a0,0,0,0,1,0,0H20a0,0,0,0,1,0,0V421A5,5,0,0,1,25,416Z" style="fill:#404040"/><rect x="110" y="86" width="580" height="304" style="fill:#3b7aff"/><path d="M690,390H110V232.28s55.83,52,115.61,52S372.35,183.55,503.87,183.55,690,232.28,690,232.28Z" style="fill:#388dff"/><rect x="40" y="6" width="60" height="52" style="fill:#388dff"/><rect x="104" y="6" width="60" height="52" style="fill:#3b7aff"/><rect x="168" y="6" width="60" height="52" style="fill:#388dff"/><rect x="232" y="6" width="60" height="52" style="fill:#388dff"/><rect x="296" y="6" width="60" height="52" style="fill:#3b7aff"/><rect x="360" y="6" width="60" height="52" style="fill:#388dff"/><rect x="424" y="6" width="60" height="52" style="fill:#3b7aff"/><rect x="488" y="6" width="60" height="52" style="fill:#388dff"/><rect x="552" y="6" width="60" height="52" style="fill:#3b7aff"/><rect x="616" y="6" width="60" height="52" style="fill:#3b7aff"/><rect x="680" y="6" width="60" height="52" style="fill:#388dff"/><rect x="744" y="6" width="16" height="52" style="fill:#3b7aff"/><path d="M28.89,31,34,25.89,32.11,24l-7,7,7,7L34,36.11Z" style="fill:#aaa;fill-rule:evenodd"/><path d="M766,36.11,767.89,38l7-7-7-7L766,25.89,771.11,31Z" style="fill:#aaa;fill-rule:evenodd"/><path d="M38.63,456H36V440.6h2.62Z" style="fill:#fff"/><path d="M59.22,456H56.67v-6.46a4.12,4.12,0,0,0-.52-2.32,2,2,0,0,0-1.69-.73,2.06,2.06,0,0,0-1.7.91,3.59,3.59,0,0,0-.69,2.23V456H49.51v-6.61a3.54,3.54,0,0,0-.55-2.17,1.93,1.93,0,0,0-1.65-.73,2.06,2.06,0,0,0-1.72.87,3.67,3.67,0,0,0-.67,2.29V456H42.36V444.73h2.56v1.77h0a4.12,4.12,0,0,1,1.49-1.5,4,4,0,0,1,2.07-.54,3.43,3.43,0,0,1,2,.59,3.25,3.25,0,0,1,1.22,1.64,4.08,4.08,0,0,1,3.76-2.23,3.36,3.36,0,0,1,2.77,1.14,5.33,5.33,0,0,1,.93,3.42Z" style="fill:#fff"/><path d="M71.07,456H68.6v-1.71h0a4,4,0,0,1-1.43,1.48,3.83,3.83,0,0,1-2,.5,3.62,3.62,0,0,1-2.55-.91,3.15,3.15,0,0,1-1-2.46,3.28,3.28,0,0,1,1-2.49,5.4,5.4,0,0,1,3-1.24l3-.4v-.24a2.14,2.14,0,0,0-.59-1.66,2.38,2.38,0,0,0-1.62-.53,4.83,4.83,0,0,0-1.64.3,6.14,6.14,0,0,0-1.62.88L62.06,446a7.42,7.42,0,0,1,2.13-1.16,7.53,7.53,0,0,1,2.42-.38A4.49,4.49,0,0,1,70,445.58a4.6,4.6,0,0,1,1.11,3.36Zm-2.45-4.6v-.94l-2.43.32a3.22,3.22,0,0,0-1.6.58,1.5,1.5,0,0,0-.53,1.26,1.6,1.6,0,0,0,.5,1.26,1.82,1.82,0,0,0,1.3.47,2.61,2.61,0,0,0,2-.83A3,3,0,0,0,68.62,451.4Z" style="fill:#fff"/><path d="M84.63,454.94A6.23,6.23,0,0,1,83,459.51a6.17,6.17,0,0,1-4.62,1.67,9.33,9.33,0,0,1-4.28-1l.83-1.81a7.55,7.55,0,0,0,3.47.77,3.56,3.56,0,0,0,2.7-1,4,4,0,0,0,1-2.86v-1.08h0a4.13,4.13,0,0,1-1.55,1.53,4.42,4.42,0,0,1-2.16.51,4.22,4.22,0,0,1-3.4-1.52,6.08,6.08,0,0,1-1.27-4.05,6.89,6.89,0,0,1,1.41-4.52,4.55,4.55,0,0,1,3.72-1.72,4,4,0,0,1,1.91.43A3.38,3.38,0,0,1,82,446.18h0v-1.45h2.56Zm-2.55-4.17v-1.32a3,3,0,0,0-.78-2.09,2.54,2.54,0,0,0-2-.87,2.71,2.71,0,0,0-2.26,1.05,4.82,4.82,0,0,0-.82,3,4.16,4.16,0,0,0,.77,2.69,2.56,2.56,0,0,0,2.12,1,2.66,2.66,0,0,0,2.14-1A3.76,3.76,0,0,0,82.08,450.77Z" style="fill:#fff"/><path d="M97.59,451H89.9a3.48,3.48,0,0,0,.93,2.43,3.29,3.29,0,0,0,2.41.84,4.84,4.84,0,0,0,1.43-.25,5.71,5.71,0,0,0,1.61-.82l1.14,1.6a7.52,7.52,0,0,1-2.15,1.09,7.82,7.82,0,0,1-2.38.35,5.39,5.39,0,0,1-4.08-1.52,5.88,5.88,0,0,1-1.48-4.24,6.29,6.29,0,0,1,1.52-4.38,5,5,0,0,1,3.88-1.67,4.57,4.57,0,0,1,3.57,1.43,5.77,5.77,0,0,1,1.29,4Zm-2.45-1.77a3.33,3.33,0,0,0-.64-2.19,2.24,2.24,0,0,0-1.79-.74,2.49,2.49,0,0,0-1.86.8,3.68,3.68,0,0,0-.94,2.13Z" style="fill:#fff"/><path d="M114.72,455.27A6.25,6.25,0,0,1,113,456a6.69,6.69,0,0,1-1.83.24,5.67,5.67,0,0,1-4.15-1.53,5.51,5.51,0,0,1-1.55-4.11,6.21,6.21,0,0,1,1.62-4.5,5.82,5.82,0,0,1,4.36-1.67,6.67,6.67,0,0,1,1.73.21,6.21,6.21,0,0,1,1.58.65l-1,1.79a4.14,4.14,0,0,0-1.1-.47,4.34,4.34,0,0,0-1.16-.15,3.1,3.1,0,0,0-2.52,1.07,4.34,4.34,0,0,0-.89,2.85,3.93,3.93,0,0,0,.94,2.83,3.13,3.13,0,0,0,2.39,1,4,4,0,0,0,2.21-.71Z" style="fill:#fff"/><path d="M125.7,456h-2.48v-1.71h0a4,4,0,0,1-1.42,1.48,3.83,3.83,0,0,1-2,.5,3.65,3.65,0,0,1-2.56-.91,3.18,3.18,0,0,1-1-2.46,3.29,3.29,0,0,1,1-2.49,5.4,5.4,0,0,1,3-1.24l3-.4v-.24a2.1,2.1,0,0,0-.6-1.66,2.38,2.38,0,0,0-1.62-.53,4.78,4.78,0,0,0-1.63.3,5.85,5.85,0,0,0-1.62.88l-1.1-1.52a7.42,7.42,0,0,1,2.13-1.16,7.59,7.59,0,0,1,2.43-.38,4.52,4.52,0,0,1,3.35,1.12,4.6,4.6,0,0,1,1.11,3.36Zm-2.45-4.6v-.94l-2.43.32a3.26,3.26,0,0,0-1.61.58,1.53,1.53,0,0,0-.53,1.26,1.63,1.63,0,0,0,.5,1.26,1.84,1.84,0,0,0,1.31.47,2.59,2.59,0,0,0,2-.83A3,3,0,0,0,123.25,451.4Z" style="fill:#fff"/><path d="M131.56,454.51h0v6.55H129V444.73h2.56v1.85h0a4.22,4.22,0,0,1,3.77-2.12,4.15,4.15,0,0,1,3.41,1.51A6.31,6.31,0,0,1,140,450a6.94,6.94,0,0,1-1.39,4.53,4.6,4.6,0,0,1-3.74,1.7,3.67,3.67,0,0,1-3.26-1.76Zm-.07-4.57v1.25a3.14,3.14,0,0,0,.77,2.18,2.79,2.79,0,0,0,4.25-.24,5.16,5.16,0,0,0,.81-3.09,4.12,4.12,0,0,0-.74-2.63,2.51,2.51,0,0,0-2.07-.92,2.75,2.75,0,0,0-2.19,1A3.63,3.63,0,0,0,131.49,449.94Z" style="fill:#fff"/><path d="M148.83,455.84a4.31,4.31,0,0,1-1,.31,6.84,6.84,0,0,1-1.15.1,3.28,3.28,0,0,1-2.42-.84,3.33,3.33,0,0,1-.84-2.47v-6.22h-1.88v-2h1.88v-2.56l2.56-.77v3.33h2.69v2H146v6a1.94,1.94,0,0,0,.3,1.21,1.18,1.18,0,0,0,.94.36,2.22,2.22,0,0,0,.59-.07,1.93,1.93,0,0,0,.51-.19Z" style="fill:#fff"/><path d="M152.33,442.74a1.57,1.57,0,0,1-1.16-.44,1.45,1.45,0,0,1-.46-1.08,1.48,1.48,0,0,1,.46-1.11,1.64,1.64,0,0,1,1.16-.43,1.68,1.68,0,0,1,1.16.43,1.48,1.48,0,0,1,.46,1.11,1.46,1.46,0,0,1-.46,1.09A1.63,1.63,0,0,1,152.33,442.74ZM153.58,456H151V444.73h2.55Z" style="fill:#fff"/><path d="M162.2,456.27a5.59,5.59,0,0,1-4.2-1.59,5.8,5.8,0,0,1-1.55-4.23,5.93,5.93,0,0,1,1.61-4.4,5.87,5.87,0,0,1,4.34-1.59,5.44,5.44,0,0,1,4.14,1.56,5.89,5.89,0,0,1,1.5,4.24,6,6,0,0,1-1.58,4.38A5.64,5.64,0,0,1,162.2,456.27Zm.12-2a2.79,2.79,0,0,0,2.32-1,4.58,4.58,0,0,0,.79-2.9,4.42,4.42,0,0,0-.8-2.85,2.82,2.82,0,0,0-2.33-1,2.91,2.91,0,0,0-2.37,1,5.17,5.17,0,0,0,0,5.71A3,3,0,0,0,162.32,454.24Z" style="fill:#fff"/><path d="M180.81,456h-2.55v-6.36a4,4,0,0,0-.58-2.36,2,2,0,0,0-1.7-.79,2.4,2.4,0,0,0-1.9.87,3.27,3.27,0,0,0-.75,2.21V456h-2.56V444.73h2.56v1.83h0a4,4,0,0,1,3.66-2.1,3.44,3.44,0,0,1,2.82,1.18,5.37,5.37,0,0,1,1,3.46Z" style="fill:#fff"/><circle cx="228" cy="164" r="18" style="fill:#e00000"/><path d="M230.71,173h-3.56V160.08a7.51,7.51,0,0,1-1.44.76c-.53.21-1.11.41-1.72.6l-1-2.87a19,19,0,0,0,3-1.17,15,15,0,0,0,2.53-1.57h2.14Z" style="fill:#fefefe"/><circle cx="278" cy="164" r="18" style="fill:#e00000"/><path d="M272.62,173v-1.25a5.76,5.76,0,0,1,.43-2.28,7.61,7.61,0,0,1,1.08-1.83,8.47,8.47,0,0,1,1.43-1.44c.52-.42,1-.81,1.52-1.16a14.48,14.48,0,0,0,1.3-1,10.59,10.59,0,0,0,.95-.94,3,3,0,0,0,.63-1,3.52,3.52,0,0,0,.2-1.23,2.11,2.11,0,0,0-.57-1.5,2.16,2.16,0,0,0-1.64-.6,5.08,5.08,0,0,0-1.76.39,6.74,6.74,0,0,0-2,1.19l-1.82-2.23a10.16,10.16,0,0,1,2.86-1.67,9.51,9.51,0,0,1,3.27-.54,5.42,5.42,0,0,1,3.82,1.31,4.2,4.2,0,0,1,1.41,3.18,6.56,6.56,0,0,1-.35,2.34,6.76,6.76,0,0,1-.93,1.61,8.6,8.6,0,0,1-1.34,1.36c-.51.41-1.05.81-1.61,1.19l-1.14.83a11.7,11.7,0,0,0-.95.79,5.13,5.13,0,0,0-.63.78,1.28,1.28,0,0,0-.23.72h7.21v3Z" style="fill:#fefefe"/><circle cx="338" cy="164" r="18" style="fill:#e00000"/><path d="M332.41,171.85l1.44-2.38a8.3,8.3,0,0,0,1.65.81,5.63,5.63,0,0,0,1.8.25,2.86,2.86,0,0,0,2.11-.68,2.15,2.15,0,0,0,.69-1.59,2.11,2.11,0,0,0-1-1.88,5.1,5.1,0,0,0-2.74-.63H335V163h1.25a4.57,4.57,0,0,0,2.51-.56,2.09,2.09,0,0,0,.83-1.87,1.79,1.79,0,0,0-.54-1.43,2.26,2.26,0,0,0-1.53-.48,5,5,0,0,0-1.56.27,8,8,0,0,0-1.76.81l-1.37-2.34a10.09,10.09,0,0,1,2.51-1.13,9.82,9.82,0,0,1,2.74-.36,5.77,5.77,0,0,1,3.73,1.16,3.7,3.7,0,0,1,1.43,3,4.06,4.06,0,0,1-2.9,4.13v.06a4.09,4.09,0,0,1,2.49,1.35,3.85,3.85,0,0,1,.92,2.58,4.62,4.62,0,0,1-1.65,3.66,6.52,6.52,0,0,1-4.43,1.43,10.29,10.29,0,0,1-2.75-.35A10.66,10.66,0,0,1,332.41,171.85Z" style="fill:#fefefe"/><circle cx="400" cy="164" r="18" style="fill:#e00000"/><path d="M404.46,156.19v10.64h1.64v2.71h-1.64V173H401v-3.48h-7v-2.82c.62-.73,1.27-1.53,1.93-2.4s1.3-1.77,1.92-2.69,1.19-1.85,1.73-2.78a24.74,24.74,0,0,0,1.35-2.66Zm-7.26,10.64H401v-6c-.28.54-.58,1.09-.9,1.63s-.64,1.06-1,1.57-.67,1-1,1.45Z" style="fill:#fefefe"/><circle cx="460" cy="164" r="18" style="fill:#e00000"/><path d="M454.36,171.55l1.68-2.21a6.14,6.14,0,0,0,1.65.91,5.28,5.28,0,0,0,1.71.28,2.79,2.79,0,0,0,2-.71,2.46,2.46,0,0,0,.74-1.84,2.31,2.31,0,0,0-.91-2,4.65,4.65,0,0,0-2.69-.64c-.44,0-.91,0-1.41.05s-1,.08-1.59.15l.63-9.32H465v2.93h-6.08l-.24,3.48.85-.05.71,0a5.75,5.75,0,0,1,4.07,1.36,4.87,4.87,0,0,1,1.47,3.75,5.37,5.37,0,0,1-1.67,4,6.31,6.31,0,0,1-4.57,1.61,8.14,8.14,0,0,1-5.19-1.75Z" style="fill:#fefefe"/><circle cx="520" cy="164" r="18" style="fill:#e00000"/><path d="M525.78,167.53a5.7,5.7,0,0,1-1.59,4.12,5.35,5.35,0,0,1-4,1.65,5.05,5.05,0,0,1-4.27-2,9.39,9.39,0,0,1-1.54-5.79,15.49,15.49,0,0,1,.47-3.92,8.5,8.5,0,0,1,1.44-3.06,6.51,6.51,0,0,1,2.22-1.92,6.74,6.74,0,0,1,3.18-.67,5.87,5.87,0,0,1,3.8,1.38l-1.83,2.14a3.37,3.37,0,0,0-.95-.58,3.06,3.06,0,0,0-1.16-.19A3.18,3.18,0,0,0,520,159a3.8,3.8,0,0,0-1.18,1,4.79,4.79,0,0,0-.79,1.6,8.11,8.11,0,0,0-.29,2.05h.07a4.24,4.24,0,0,1,1.52-1.11,5,5,0,0,1,2-.38,4.05,4.05,0,0,1,3.25,1.45A5.8,5.8,0,0,1,525.78,167.53Zm-3.36.13a3.21,3.21,0,0,0-.56-2.08,1.93,1.93,0,0,0-1.57-.7,2.2,2.2,0,0,0-1.79.78,3,3,0,0,0-.63,2,3.35,3.35,0,0,0,.63,2.07,2,2,0,0,0,1.67.84,2,2,0,0,0,1.65-.75A3.3,3.3,0,0,0,522.42,167.66Z" style="fill:#fefefe"/><circle cx="572" cy="164" r="18" style="fill:#e00000"/><path d="M577.91,158.26a72,72,0,0,0-3.62,7.3,30.81,30.81,0,0,0-2,7.45h-3.76a30.94,30.94,0,0,1,2.13-7.38,50.08,50.08,0,0,1,3.42-6.5h-7.89V156.2h11.68Z" style="fill:#fefefe"/><circle cx="748" cy="400" r="18" style="fill:#e00000"/><path d="M744.32,409h-3.56V396.08a7.51,7.51,0,0,1-1.44.76c-.53.21-1.11.41-1.73.6l-1-2.87a19.39,19.39,0,0,0,3-1.17,15,15,0,0,0,2.53-1.57h2.14Z" style="fill:#fefefe"/><path d="M747.12,407.85l1.44-2.38a8.3,8.3,0,0,0,1.65.81,5.6,5.6,0,0,0,1.79.25,2.87,2.87,0,0,0,2.12-.68,2.14,2.14,0,0,0,.68-1.59,2.1,2.1,0,0,0-1-1.88,5.12,5.12,0,0,0-2.74-.63H749.7V399H751a4.57,4.57,0,0,0,2.51-.56,2.09,2.09,0,0,0,.83-1.87,1.76,1.76,0,0,0-.55-1.43,2.23,2.23,0,0,0-1.53-.48,5,5,0,0,0-1.55.27,8,8,0,0,0-1.76.81l-1.37-2.34a10.09,10.09,0,0,1,2.51-1.13,9.77,9.77,0,0,1,2.74-.36,5.73,5.73,0,0,1,3.72,1.16,3.68,3.68,0,0,1,1.43,3,4.38,4.38,0,0,1-.72,2.57,4.27,4.27,0,0,1-2.17,1.56v.06a4,4,0,0,1,2.48,1.35,3.81,3.81,0,0,1,.93,2.58,4.62,4.62,0,0,1-1.65,3.66,6.52,6.52,0,0,1-4.43,1.43,10.29,10.29,0,0,1-2.75-.35A10.49,10.49,0,0,1,747.12,407.85Z" style="fill:#fefefe"/><circle cx="700" cy="400" r="18" style="fill:#e00000"/><path d="M696.32,409h-3.56V396.08a7.51,7.51,0,0,1-1.44.76c-.53.21-1.11.41-1.73.6l-1-2.87a19.39,19.39,0,0,0,3-1.17,15,15,0,0,0,2.53-1.57h2.14Z" style="fill:#fefefe"/><path d="M699.33,409v-1.25a5.76,5.76,0,0,1,.43-2.28,7.61,7.61,0,0,1,1.08-1.83,8.8,8.8,0,0,1,1.42-1.44c.53-.42,1-.81,1.53-1.16a16.07,16.07,0,0,0,1.3-1,10.59,10.59,0,0,0,.95-.94,3,3,0,0,0,.63-1,3.53,3.53,0,0,0,.19-1.23,2,2,0,0,0-2.2-2.1,5.08,5.08,0,0,0-1.76.39,6.74,6.74,0,0,0-2,1.19l-1.82-2.23a10,10,0,0,1,2.86-1.67,9.51,9.51,0,0,1,3.27-.54,5.43,5.43,0,0,1,3.82,1.31,4.2,4.2,0,0,1,1.41,3.18,6.56,6.56,0,0,1-.35,2.34,6.76,6.76,0,0,1-.93,1.61,8.6,8.6,0,0,1-1.34,1.36c-.51.41-1.05.81-1.61,1.19l-1.14.83a10.19,10.19,0,0,0-1,.79,4.59,4.59,0,0,0-.63.78,1.29,1.29,0,0,0-.24.72h7.22v3Z" style="fill:#fefefe"/><circle cx="652" cy="400" r="18" style="fill:#e00000"/><path d="M650,409h-3.56V396.08a7.51,7.51,0,0,1-1.44.76c-.53.21-1.11.41-1.72.6l-1-2.87a19,19,0,0,0,3-1.17,15,15,0,0,0,2.53-1.57H650Z" style="fill:#fefefe"/><path d="M659.42,409h-3.56V396.08a7.51,7.51,0,0,1-1.44.76c-.53.21-1.11.41-1.73.6l-1-2.87a18.9,18.9,0,0,0,3-1.17,14.68,14.68,0,0,0,2.54-1.57h2.14Z" style="fill:#fefefe"/><circle cx="604" cy="400" r="18" style="fill:#e00000"/><path d="M600.32,409h-3.56V396.08a7.51,7.51,0,0,1-1.44.76c-.53.21-1.11.41-1.73.6l-1-2.87a19.39,19.39,0,0,0,3-1.17,15,15,0,0,0,2.53-1.57h2.14Z" style="fill:#fefefe"/><path d="M608.78,409.3a4.94,4.94,0,0,1-4.43-2.12q-1.41-2.12-1.41-6.3a12.11,12.11,0,0,1,1.52-6.66,4.92,4.92,0,0,1,4.34-2.3,4.85,4.85,0,0,1,4.49,2.14q1.32,2.13,1.32,6.44a12.08,12.08,0,0,1-1.46,6.53A4.86,4.86,0,0,1,608.78,409.3Zm0-14.63q-1.17,0-1.68,1.53a15.79,15.79,0,0,0-.5,4.59,13.34,13.34,0,0,0,.52,4.31c.35.95.9,1.43,1.67,1.43a1.76,1.76,0,0,0,1.71-1.47,15.89,15.89,0,0,0,.47-4.46,15.34,15.34,0,0,0-.48-4.44C610.17,395.17,609.6,394.67,608.78,394.67Z" style="fill:#fefefe"/><circle cx="556" cy="400" r="18" style="fill:#e00000"/><path d="M561.8,399.78a12.23,12.23,0,0,1-1.72,7,6,6,0,0,1-5.35,2.49,6.53,6.53,0,0,1-4.38-1.57l1.76-2.16a4.38,4.38,0,0,0,1.23.73,4.31,4.31,0,0,0,1.53.24,3.1,3.1,0,0,0,2.69-1.28,6.37,6.37,0,0,0,1-3.73l-.07,0a3.51,3.51,0,0,1-1.38,1.12,4.74,4.74,0,0,1-1.95.38,4.26,4.26,0,0,1-3.32-1.46,5.4,5.4,0,0,1-1.31-3.72,5.85,5.85,0,0,1,1.58-4.28,5.44,5.44,0,0,1,4.1-1.63A4.83,4.83,0,0,1,560.3,394,9.77,9.77,0,0,1,561.8,399.78Zm-3.43-1.94a3.89,3.89,0,0,0-.64-2.26,2,2,0,0,0-3.28-.1,3.21,3.21,0,0,0-.63,2,3.06,3.06,0,0,0,.64,2.09,2.1,2.1,0,0,0,1.68.73,2,2,0,0,0,1.62-.73A2.69,2.69,0,0,0,558.37,397.84Z" style="fill:#fefefe"/><circle cx="508" cy="400" r="18" style="fill:#e00000"/><path d="M502.21,404.47a4.52,4.52,0,0,1,.75-2.55,4.69,4.69,0,0,1,2.24-1.74,5,5,0,0,1-1.75-1.64,3.91,3.91,0,0,1-.63-2.17,4,4,0,0,1,1.49-3.18,5.68,5.68,0,0,1,3.82-1.27,5.76,5.76,0,0,1,3.82,1.25,3.93,3.93,0,0,1,1.5,3.16,3.65,3.65,0,0,1-.67,2.15,5.53,5.53,0,0,1-1.84,1.63,4.52,4.52,0,0,1,3,4.33,4.32,4.32,0,0,1-1.62,3.5,6.4,6.4,0,0,1-4.23,1.34,6.5,6.5,0,0,1-4.24-1.34A4.26,4.26,0,0,1,502.21,404.47Zm3.33-.3a2.42,2.42,0,0,0,.7,1.84,2.58,2.58,0,0,0,1.86.68,2.53,2.53,0,0,0,1.82-.69,2.39,2.39,0,0,0,.73-1.83,2.54,2.54,0,0,0-.71-1.8,2.36,2.36,0,0,0-1.82-.75,2.53,2.53,0,0,0-1.84.73A2.41,2.41,0,0,0,505.54,404.17Zm.51-7.5a2.15,2.15,0,0,0,.62,1.6,2,2,0,0,0,1.48.61,2.08,2.08,0,0,0,1.47-.6,2.12,2.12,0,0,0,.63-1.61,2.05,2.05,0,0,0-2.1-2.16,2,2,0,0,0-1.5.59A2.12,2.12,0,0,0,506.05,396.67Z" style="fill:#fefefe"/><rect x="676" y="424" width="46" height="44" style="fill:#333"/><rect x="628" y="424" width="46" height="44" style="fill:#333"/><rect x="580" y="424" width="46" height="44" style="fill:#333"/><path d="M491.6,424c-4,0-7.6,3.24-7.6,7.2v29.6c0,4,3.64,7.2,7.6,7.2H530V424Z" style="fill:#333;fill-rule:evenodd"/><rect x="532" y="424" width="46" height="44" style="fill:#333"/><path d="M760.8,424H724v44h36.8a7.22,7.22,0,0,0,7.2-7.2V431.2A7.22,7.22,0,0,0,760.8,424Z" style="fill:#333;fill-rule:evenodd"/><g style="opacity:0.8"><path d="M199,64H601a0,0,0,0,1,0,0v65a5,5,0,0,1-5,5H204a5,5,0,0,1-5-5V64A0,0,0,0,1,199,64Z" style="fill:#404040"/><path d="M586,97l-24,24-2-2L581.9,97,560,75.05l2-2,24,24h0Z" style="fill:#fefefe;fill-rule:evenodd"/><path d="M214,97h0l24-24,2.05,2-22,22,22,22L238,121,214,97Z" style="fill:#fefefe;fill-rule:evenodd"/><path d="M280,78.91l16.05,16L294,97l-12.5-12.5V115h-3V84.51L266,97,264,95l16.05-16h0Z" style="fill:#fefefe;fill-rule:evenodd"/><path d="M327.12,112H340v3H322V97h3v12.88l10.42-10.43,2.12,2.12Zm15.34-19.57,2.12,2.12L355,84.12V97h3V79H340v3h12.88Z" style="fill:#fefefe;fill-rule:evenodd"/><path d="M512,83.14,536,97l-24,13.86V83.14m-2.67-4.62v37l32-18.48-32-18.48Z" style="fill:#fefefe"/><path d="M481,117v-2.47h-2.47V102.18H441.47v12.35H439V117Zm-4.94-2.47H443.94v-9.88h32.12Zm-17.3-37.06h2.48V94.36l6-6L469,90.14l-8.95,9-8.95-9,1.75-1.74,6,6Z" style="fill:#fefefe"/><path d="M379,76v2.47h2.47V90.82h37.06V78.47H421V76Zm37.06,12.35H383.94V78.47h32.12Zm-17.3,10.29-6,6-1.75-1.74,8.95-9,8.95,9-1.75,1.74-6-6v16.89h-2.48Z" style="fill:#fefefe"/></g><path d="M521.82,256.23,495.47,263l2.94-9.94A351.45,351.45,0,0,0,452,242.88l1.4-9.4a359.09,359.09,0,0,1,47.7,10.46l2.81-9.55ZM304.53,263l-26.35-6.77,17.91-21.84,2.81,9.55a360.67,360.67,0,0,1,47.7-10.46l1.4,9.4a349.84,349.84,0,0,0-46.41,10.17Z" style="fill:#fff;fill-rule:evenodd"/><path d="M427.64,286.38A13.86,13.86,0,0,1,413.78,300H393.55c-5.93,0-10.37-4.49-12.51-7.92L368.63,271a5.79,5.79,0,1,1,10-5.79l2.58,4.4.19-1.93V234.12a5.79,5.79,0,1,1,11.57,0v17.2a5.78,5.78,0,0,1,11.56.14v3.33a5.78,5.78,0,0,1,11.56.14v3.33a5.78,5.78,0,0,1,11.56.14v27.71C427.67,286.2,427.64,286.29,427.64,286.38Z" style="fill:#fff;fill-rule:evenodd"/><path d="M441.47,454h-2.31V442.65a7,7,0,0,1-1.24.69,12,12,0,0,1-1.54.56l-.64-1.92a13.21,13.21,0,0,0,2.46-1,10.24,10.24,0,0,0,2.05-1.33h1.22Z" style="fill:#b0b0b0"/><path d="M452.44,440l-6.71,16.2h-2l6.7-16.2Z" style="fill:#b0b0b0"/><path d="M458.31,454H456V442.65a7,7,0,0,1-1.24.69,11.4,11.4,0,0,1-1.53.56l-.64-1.92a13.21,13.21,0,0,0,2.46-1,10.53,10.53,0,0,0,2-1.33h1.22Z" style="fill:#b0b0b0"/><path d="M466.27,454.24a3.89,3.89,0,0,1-3.49-1.78,9.62,9.62,0,0,1-1.16-5.21,10.29,10.29,0,0,1,1.24-5.57,4,4,0,0,1,3.55-1.92,3.85,3.85,0,0,1,3.54,1.79,10.46,10.46,0,0,1,1.1,5.37,10,10,0,0,1-1.23,5.43A4,4,0,0,1,466.27,454.24Zm.11-12.63a1.9,1.9,0,0,0-1.81,1.39,11.35,11.35,0,0,0-.58,4.17,10,10,0,0,0,.58,3.91,1.88,1.88,0,0,0,1.78,1.31,1.86,1.86,0,0,0,1.78-1.33,11,11,0,0,0,.55-4,11.45,11.45,0,0,0-.55-4.09A1.84,1.84,0,0,0,466.38,441.61Z" style="fill:#b0b0b0"/><path d="M651.33,432h2v13.67l6.83-6.83,1.41,1.42-9.24,9.24-9.24-9.24,1.41-1.42,6.83,6.83Zm14,20v6h-26v-6h-2v8h30v-8Z" style="fill:#fff"/><path d="M555.33,431a11,11,0,0,1,9.27,16.92c-1.63,2.56-6.7,8.8-9.27,11.94-2.57-3.14-7.64-9.38-9.27-11.94A11,11,0,0,1,555.33,431m0-2a13,13,0,0,0-11,20c2.31,3.61,11,14,11,14s8.65-10.39,11-14a13,13,0,0,0-11-20Zm0,10a3,3,0,1,0,3,3A3,3,0,0,0,555.33,439Z" style="fill:#fff"/><path d="M507,455.5a8.5,8.5,0,1,1,8.5-8.5A8.51,8.51,0,0,1,507,455.5Zm0-15a6.5,6.5,0,1,0,6.5,6.5A6.51,6.51,0,0,0,507,440.5ZM520,459H494a3,3,0,0,1-3-3V440a3,3,0,0,1,3-3h4l.72-3.58a3,3,0,0,1,2.95-2.42h10.71a3,3,0,0,1,2.94,2.41L516,437h4a3,3,0,0,1,3,3v16A3,3,0,0,1,520,459Zm-26-20a1,1,0,0,0-1,1v16a1,1,0,0,0,1,1h26a1,1,0,0,0,1-1V440a1,1,0,0,0-1-1h-5.62l-1-5.2a1,1,0,0,0-1-.8H501.65a1,1,0,0,0-1,.81l-1,5.19Z" style="fill:#fff"/><path d="M707.33,453H694.89l-1-4h16.44l3-12H690.89l-1.5-6h-6.06v2h4.5l1,4h0l3,12h0l1,4.05a4,4,0,1,0,3.94,1.95h7.1a4,4,0,1,0,3.45-2Zm3.44-14-2,8H693.39l-2-8Zm-17.44,20a2,2,0,1,1,2-2A2,2,0,0,1,693.33,459Zm14,0a2,2,0,1,1,2-2A2,2,0,0,1,707.33,459Z" style="fill:#fff"/><path d="M753.33,432a4,4,0,1,1-4,4,4,4,0,0,1,4-4m0,20a4,4,0,1,1-4,4,4,4,0,0,1,4-4M736,442a4,4,0,1,1-4,4,4,4,0,0,1,4-4m17.32,8a6,6,0,0,0-4.6,2.19l-7.11-4.11a5.74,5.74,0,0,0,0-4.16l7.11-4.11a6,6,0,1,0-1-1.73l-7.11,4.11a6,6,0,1,0,0,7.62l7.11,4.11a6,6,0,1,0,5.61-3.92Z" style="fill:#fff"/><path d="M616,431v2h2v2h2v-4Zm-30,0v4h2v-2h2v-2Zm24,2h4v-2h-4Zm-6,0h4v-2h-4Zm-6,0h4v-2h-4Zm-6,0h4v-2h-4Zm0,20h4v-2h-4Zm18,0h4v-2h-4Zm-24-12h2v-4h-2Zm32,0h2v-4h-2Zm-32,6h2v-4h-2Zm32,0h2v-4h-2Zm-30,4v-2h-2v4h4v-2Zm30-2v2h-2v2h4v-4Zm-5,7.22c-.75-.3-1.49-.52-2-.7a4.56,4.56,0,0,1-3.32-3.63,14.21,14.21,0,0,0,1.59-2.81,4,4,0,0,0,2.32-3.15,4.09,4.09,0,0,0-1.11-3.55c.11-4.54-1.51-7.38-7.48-7.38s-7.59,2.84-7.48,7.38a4.09,4.09,0,0,0-1.11,3.55,4,4,0,0,0,2.32,3.15,14.21,14.21,0,0,0,1.59,2.81,4.56,4.56,0,0,1-3.32,3.63c-.53.18-1.27.4-2,.7a2.79,2.79,0,0,0-2,2.78v2c3.63,1.7,7.73,2,12,2s8.37-.3,12-2v-2A2.79,2.79,0,0,0,613,456.22Zm-15-9.33,0,0a1.53,1.53,0,0,1-.46-3h0l0-1.54c-.06-2,.28-3.38,1-4.15S600.84,437,603,437s3.66.41,4.45,1.23,1.09,2.13,1,4.15l0,1.54h0a1.53,1.53,0,0,1-.46,3l0,0-.57,1.57c-1.15,2.74-3.18,4.54-4.37,4.54s-3.22-1.8-4.37-4.54ZM613,459.67a38.26,38.26,0,0,1-20,0V459c0-.4,0-.64.73-.93.48-.19,1-.35,1.37-.48l.55-.18a6.45,6.45,0,0,0,4.22-3.82,4.18,4.18,0,0,0,6.26,0,6.45,6.45,0,0,0,4.22,3.82l.55.18c.41.13.89.29,1.37.48.7.29.73.53.73.93Z" style="fill:#fff"/></svg>