<svg xmlns="http://www.w3.org/2000/svg" width="112" height="112" viewBox="0 0 112 112"><title>folder_closed_faint_1</title><path d="M13.35,21a.35.35,0,0,0-.35.35v69.3a.35.35,0,0,0,.35.35H91.78a.35.35,0,0,0,.35-.35V28.55a.35.35,0,0,0-.35-.35H34.2a1,1,0,0,1-1-1V21.35a.35.35,0,0,0-.35-.35Z" opacity="0.12"/><path d="M91.78,93H13.35A2.35,2.35,0,0,1,11,90.65V21.35A2.35,2.35,0,0,1,13.35,19h19.5a2.35,2.35,0,0,1,2.35,2.35V26.2H91.78a2.35,2.35,0,0,1,2.35,2.35v62.1A2.35,2.35,0,0,1,91.78,93ZM13.35,21a.35.35,0,0,0-.35.35v69.3a.35.35,0,0,0,.35.35H91.78a.35.35,0,0,0,.35-.35V28.55a.35.35,0,0,0-.35-.35H34.2a1,1,0,0,1-1-1V21.35a.35.35,0,0,0-.35-.35Z" fill="#fff" opacity="0.8"/><path d="M15.42,91H93.58a.65.65,0,0,0,.58-.51l8.72-54.9a.23.23,0,0,0,0-.15.2.2,0,0,0-.13,0h-78a.66.66,0,0,0-.58.51l-8.72,54.9Z" opacity="0.1"/><path d="M93.58,93H13.35a1,1,0,0,1-.09-2,1,1,0,0,0,.22-.51l8.72-54.9a2.63,2.63,0,0,1,2.55-2.19h78a2.15,2.15,0,0,1,1.65.74,2.19,2.19,0,0,1,.48,1.77l-8.73,54.9A2.63,2.63,0,0,1,93.58,93ZM15.42,91H93.58a.65.65,0,0,0,.58-.51l8.72-54.9a.23.23,0,0,0,0-.15.2.2,0,0,0-.13,0h-78a.66.66,0,0,0-.58.51l-8.72,54.9Z" fill="#fff"/></svg>