<svg xmlns="http://www.w3.org/2000/svg" xmlns:xlink="http://www.w3.org/1999/xlink" width="64" height="64" viewBox="0 0 64 64"><defs><linearGradient id="a" x1="12" y1="26.65" x2="16" y2="26.65" gradientUnits="userSpaceOnUse"><stop offset="0" stop-color="#f7c628" stop-opacity="0"/><stop offset="1" stop-color="#f7c628"/></linearGradient></defs><title>folder-s-book</title><path d="M50,17.65v-12H13c-3.35,0-5,2.07-5,5v38a9.16,9.16,0,0,0,.66,3.21c1.83,4.42,5.93,5.79,10.34,5.79H56v-40Z" fill="#e8b000"/><polygon points="50 14.17 50 47.65 49 47.65 52 53.65 52 19.36 50 14.17" fill="#f4f4f4"/><path d="M49,47.65H13c-.67,0-.49,1.51-.34,2.21a5.17,5.17,0,0,0,5,3.79H52Z" fill="#ccc"/><rect x="16" y="6.65" width="33" height="40" fill="#f7c628"/><rect x="12" y="6.65" width="4" height="40" fill="url(#a)"/></svg>