<svg xmlns="http://www.w3.org/2000/svg" xmlns:xlink="http://www.w3.org/1999/xlink" width="800" height="360" viewBox="0 0 800 360"><defs><linearGradient id="a" x1="20" y1="113.5" x2="362" y2="113.5" gradientUnits="userSpaceOnUse"><stop offset="0" stop-color="#010101" stop-opacity="0.5"/><stop offset="1" stop-color="#010101" stop-opacity="0"/></linearGradient></defs><title>index</title><rect width="800" height="360" style="fill:#323232"/><rect x="20" width="760" height="48" style="fill:#303030"/><path d="M20,48H780a0,0,0,0,1,0,0V285a5,5,0,0,1-5,5H25a5,5,0,0,1-5-5V48a0,0,0,0,1,0,0Z" style="fill:#006fe9"/><rect x="20" y="48" width="342" height="131" style="fill:url(#a)"/><path d="M64.21,31l5.38-14h1.7l5.39,14H74.86l-1.42-3.75H67.38L66,31Zm3.72-5.22h5l-2.27-6.15a2.64,2.64,0,0,1-.11-.38c0-.15-.07-.34-.1-.55h0c0,.19-.07.37-.11.52a1.83,1.83,0,0,1-.12.41Z" style="fill:#fff"/><path d="M80.16,29.71h0V31h-1.6V16.2h1.6v6.56h0a4.21,4.21,0,0,1,1.46-1.5,4,4,0,0,1,2-.49,3.64,3.64,0,0,1,3,1.34,5.5,5.5,0,0,1,1.09,3.6,6.24,6.24,0,0,1-1.22,4,4.07,4.07,0,0,1-3.34,1.5,3.72,3.72,0,0,1-1.74-.38A3.26,3.26,0,0,1,80.16,29.71Zm0-4.19v1.4a3,3,0,0,0,.81,2.1,2.86,2.86,0,0,0,4.32-.25,5,5,0,0,0,.83-3.09,4,4,0,0,0-.77-2.62,2.57,2.57,0,0,0-2.09-.95,2.88,2.88,0,0,0-2.25,1A3.61,3.61,0,0,0,80.12,25.52Z" style="fill:#fff"/><path d="M94.46,31.23a4.61,4.61,0,0,1-3.54-1.4,5.18,5.18,0,0,1-1.32-3.71A5.43,5.43,0,0,1,91,22.19a5,5,0,0,1,3.73-1.42,4.43,4.43,0,0,1,3.49,1.37A5.48,5.48,0,0,1,99.44,26a5.39,5.39,0,0,1-1.35,3.84A4.73,4.73,0,0,1,94.46,31.23Zm.12-1.34a2.91,2.91,0,0,0,2.38-1A4.37,4.37,0,0,0,97.8,26a4.44,4.44,0,0,0-.84-2.9,2.94,2.94,0,0,0-2.38-1,3,3,0,0,0-2.45,1.06,4.34,4.34,0,0,0-.89,2.89,4.1,4.1,0,0,0,.9,2.8A3.12,3.12,0,0,0,94.58,29.89Z" style="fill:#fff"/><path d="M110.08,31h-1.6V29.42h0a3.42,3.42,0,0,1-1.27,1.36,3.52,3.52,0,0,1-1.81.45,3.29,3.29,0,0,1-2.68-1.06,4.84,4.84,0,0,1-.9-3.19V21h1.6v5.72a3.92,3.92,0,0,0,.6,2.38,2.16,2.16,0,0,0,1.82.79,2.46,2.46,0,0,0,1.93-.87,3.31,3.31,0,0,0,.75-2.26V21h1.6Z" style="fill:#fff"/><path d="M118.08,30.88a4.32,4.32,0,0,1-.8.25,4.19,4.19,0,0,1-.9.08,2.52,2.52,0,0,1-1.87-.69,2.88,2.88,0,0,1-.68-2.07V22.37h-1.71V21h1.71V18.56l1.61-.52v3H118v1.37h-2.52v5.9a2,2,0,0,0,.3,1.24,1.15,1.15,0,0,0,.93.38,2.6,2.6,0,0,0,.56-.07,2.7,2.7,0,0,0,.46-.16Z" style="fill:#fff"/><path d="M146.61,30.3a10.08,10.08,0,0,1-2,.71,9.33,9.33,0,0,1-2.1.22,6.36,6.36,0,0,1-4.94-1.92,7.15,7.15,0,0,1-1.76-5,7.54,7.54,0,0,1,2-5.46,6.84,6.84,0,0,1,5.14-2,8.47,8.47,0,0,1,1.85.19,9.35,9.35,0,0,1,1.79.59L146,18.89a7.2,7.2,0,0,0-1.49-.49,7.65,7.65,0,0,0-1.56-.15A5,5,0,0,0,139,19.83a6.17,6.17,0,0,0-1.46,4.33,5.8,5.8,0,0,0,1.4,4.09,4.74,4.74,0,0,0,3.68,1.51A7.39,7.39,0,0,0,146,29Z" style="fill:#fff"/><path d="M153.09,31.23a4.61,4.61,0,0,1-3.54-1.4,5.18,5.18,0,0,1-1.32-3.71,5.39,5.39,0,0,1,1.37-3.93,5,5,0,0,1,3.73-1.42,4.44,4.44,0,0,1,3.49,1.37A5.53,5.53,0,0,1,158.07,26a5.39,5.39,0,0,1-1.35,3.84A4.73,4.73,0,0,1,153.09,31.23Zm.12-1.34a3,3,0,0,0,2.39-1,4.43,4.43,0,0,0,.83-2.86,4.44,4.44,0,0,0-.84-2.9,2.93,2.93,0,0,0-2.38-1,3,3,0,0,0-2.44,1.06,4.29,4.29,0,0,0-.9,2.89,4.05,4.05,0,0,0,.91,2.8A3.08,3.08,0,0,0,153.21,29.89Z" style="fill:#fff"/><path d="M168.93,31h-1.6V25.3a4,4,0,0,0-.58-2.39,2,2,0,0,0-1.74-.8,2.5,2.5,0,0,0-2,.91,3.31,3.31,0,0,0-.79,2.28V31h-1.6V21h1.6v1.66h0a4,4,0,0,1,1.39-1.42,3.68,3.68,0,0,1,1.89-.47,3,3,0,0,1,2.51,1.06,4.69,4.69,0,0,1,.87,3.06Z" style="fill:#fff"/><path d="M176.71,30.88a4.32,4.32,0,0,1-.8.25,4,4,0,0,1-.89.08,2.49,2.49,0,0,1-1.87-.69,2.84,2.84,0,0,1-.68-2.07V22.37h-1.72V21h1.72V18.56l1.6-.52v3h2.52v1.37h-2.52v5.9a2,2,0,0,0,.31,1.24,1.11,1.11,0,0,0,.92.38,2.78,2.78,0,0,0,.57-.07,2.56,2.56,0,0,0,.45-.16Z" style="fill:#fff"/><path d="M185.81,31h-1.6V29.44h0a3.63,3.63,0,0,1-1.28,1.35,3.46,3.46,0,0,1-1.76.44,3.17,3.17,0,0,1-2.28-.82,3.07,3.07,0,0,1,0-4.29A4.48,4.48,0,0,1,181.35,25l2.86-.38v-.22a2.32,2.32,0,0,0-.59-1.79,2.21,2.21,0,0,0-1.56-.54,3.91,3.91,0,0,0-1.51.3,4.22,4.22,0,0,0-1.35.89l-.94-1a5.25,5.25,0,0,1,3.89-1.57,3.68,3.68,0,0,1,2.74.93,3.84,3.84,0,0,1,.92,2.8Zm-1.6-4.06v-1l-2.42.33a3.83,3.83,0,0,0-1.66.56,1.45,1.45,0,0,0-.55,1.26,1.74,1.74,0,0,0,.52,1.37,1.81,1.81,0,0,0,1.27.48,2.67,2.67,0,0,0,2.07-.85A3.11,3.11,0,0,0,184.21,26.94Z" style="fill:#fff"/><path d="M195.93,30.4a5.15,5.15,0,0,1-2.9.83,4.78,4.78,0,0,1-3.46-1.3,5,5,0,0,1-1.35-3.72,5.64,5.64,0,0,1,1.36-3.94,4.82,4.82,0,0,1,3.75-1.5,5.92,5.92,0,0,1,1.47.18,5.68,5.68,0,0,1,1.41.61l-.68,1.17a4.8,4.8,0,0,0-1.09-.46,4.36,4.36,0,0,0-1.17-.15,3,3,0,0,0-2.53,1.11,4.32,4.32,0,0,0-.88,2.8,4.06,4.06,0,0,0,.92,2.86,3.12,3.12,0,0,0,2.39,1,3.62,3.62,0,0,0,1-.15,4.46,4.46,0,0,0,1.05-.48Z" style="fill:#fff"/><path d="M202.91,30.88a4.66,4.66,0,0,1-.81.25,4,4,0,0,1-.89.08,2.49,2.49,0,0,1-1.87-.69,2.84,2.84,0,0,1-.68-2.07V22.37h-1.72V21h1.72V18.56l1.6-.52v3h2.52v1.37h-2.52v5.9a2,2,0,0,0,.31,1.24,1.11,1.11,0,0,0,.92.38,2.69,2.69,0,0,0,.57-.07,3,3,0,0,0,.46-.16Z" style="fill:#fff"/><path d="M220.36,29.93l.8-1.23a6.53,6.53,0,0,0,1.72.81,7.05,7.05,0,0,0,2,.25,3.48,3.48,0,0,0,2.1-.6,2.27,2.27,0,0,0,.13-3.39,7.53,7.53,0,0,0-2.29-1.2A8.42,8.42,0,0,1,221.9,23a3.07,3.07,0,0,1-1-2.36,3.5,3.5,0,0,1,1.24-2.78,4.79,4.79,0,0,1,3.25-1.07,8.62,8.62,0,0,1,1.83.2,9.4,9.4,0,0,1,1.86.65l-.62,1.32a7.24,7.24,0,0,0-1.56-.54,7.64,7.64,0,0,0-1.63-.16,3,3,0,0,0-2,.59,2,2,0,0,0-.74,1.63,1.81,1.81,0,0,0,.68,1.47A8.36,8.36,0,0,0,225.5,23a8.19,8.19,0,0,1,3,1.7,3.48,3.48,0,0,1,.92,2.53,3.72,3.72,0,0,1-1.23,2.84,4.94,4.94,0,0,1-3.46,1.13,7.6,7.6,0,0,1-4.4-1.3Z" style="fill:#fff"/><path d="M232.8,18.61a1.13,1.13,0,0,1-1.15-1.14,1.09,1.09,0,0,1,.33-.8,1.11,1.11,0,0,1,.82-.33,1.12,1.12,0,0,1,.82.33,1.15,1.15,0,0,1,0,1.61A1.12,1.12,0,0,1,232.8,18.61ZM233.58,31H232V21h1.6Z" style="fill:#fff"/><path d="M241.59,30.88a4.41,4.41,0,0,1-.81.25,4,4,0,0,1-.89.08,2.49,2.49,0,0,1-1.87-.69,2.88,2.88,0,0,1-.68-2.07V22.37h-1.72V21h1.72V18.56l1.6-.52v3h2.52v1.37h-2.52v5.9a2,2,0,0,0,.31,1.24,1.11,1.11,0,0,0,.92.38,2.62,2.62,0,0,0,.57-.07,3,3,0,0,0,.46-.16Z" style="fill:#fff"/><path d="M251.64,26.36h-7.07a3.76,3.76,0,0,0,.89,2.6,3.13,3.13,0,0,0,2.4.92,4.85,4.85,0,0,0,1.35-.2,5.29,5.29,0,0,0,1.34-.64l.74,1.14a6.81,6.81,0,0,1-1.69.8,6.51,6.51,0,0,1-1.87.25,4.59,4.59,0,0,1-3.53-1.34,5.27,5.27,0,0,1-1.28-3.76,5.63,5.63,0,0,1,1.27-3.89,4.23,4.23,0,0,1,3.34-1.47,3.75,3.75,0,0,1,3,1.27,5.3,5.3,0,0,1,1.08,3.53ZM250,25.05a3.3,3.3,0,0,0-.68-2.16,2.26,2.26,0,0,0-1.82-.78,2.63,2.63,0,0,0-1.94.8,3.53,3.53,0,0,0-1,2.14Z" style="fill:#fff"/><path d="M273.74,31h-1.61V25.26a4.32,4.32,0,0,0-.51-2.4,1.92,1.92,0,0,0-1.72-.75,2.12,2.12,0,0,0-1.74.94,3.59,3.59,0,0,0-.72,2.25V31h-1.6V25.06a3.58,3.58,0,0,0-.57-2.21,2,2,0,0,0-1.71-.74,2.12,2.12,0,0,0-1.74.89,3.68,3.68,0,0,0-.68,2.3V31h-1.6V21h1.6v1.58h0a3.73,3.73,0,0,1,1.31-1.36,3.53,3.53,0,0,1,1.79-.45,2.9,2.9,0,0,1,1.79.57,2.87,2.87,0,0,1,1.05,1.5,4.07,4.07,0,0,1,1.38-1.56,3.65,3.65,0,0,1,1.94-.51,3,3,0,0,1,2.47,1,4.79,4.79,0,0,1,.83,3.06Z" style="fill:#fff"/><path d="M283.84,31h-1.6V29.44h0a3.61,3.61,0,0,1-1.27,1.35,3.48,3.48,0,0,1-1.76.44,3.17,3.17,0,0,1-2.28-.82,2.83,2.83,0,0,1-.87-2.17,2.78,2.78,0,0,1,.88-2.12A4.48,4.48,0,0,1,279.39,25l2.85-.38v-.22a2.32,2.32,0,0,0-.58-1.79,2.22,2.22,0,0,0-1.57-.54,3.86,3.86,0,0,0-1.5.3,4.37,4.37,0,0,0-1.36.89l-.94-1a5.29,5.29,0,0,1,3.9-1.57,3.71,3.71,0,0,1,2.74.93,3.84,3.84,0,0,1,.91,2.8Zm-1.6-4.06v-1l-2.41.33a3.78,3.78,0,0,0-1.66.56,1.46,1.46,0,0,0-.56,1.26,1.74,1.74,0,0,0,.53,1.37,1.79,1.79,0,0,0,1.27.48,2.68,2.68,0,0,0,2.07-.85A3.11,3.11,0,0,0,282.24,26.94Z" style="fill:#fff"/><path d="M288.58,29.55h0V35.6h-1.6V21h1.6v1.76h0a4.13,4.13,0,0,1,1.46-1.5,4,4,0,0,1,2-.49,3.63,3.63,0,0,1,3,1.34,5.5,5.5,0,0,1,1.09,3.6,6.24,6.24,0,0,1-1.22,4,4.09,4.09,0,0,1-3.34,1.5,3.45,3.45,0,0,1-1.72-.42A3.58,3.58,0,0,1,288.58,29.55Zm0-4v1.4a3,3,0,0,0,.81,2.1,2.86,2.86,0,0,0,4.32-.25,5.09,5.09,0,0,0,.83-3.09,4,4,0,0,0-.77-2.62,2.57,2.57,0,0,0-2.09-.95,2.88,2.88,0,0,0-2.25,1A3.56,3.56,0,0,0,288.54,25.52Z" style="fill:#fff"/><path d="M71.52,64.64h5.82L83.52,98H78.4l-.92-6H71.39l-.88,6H65.37Zm5.37,23.57L74.55,71.59h-.21L72,88.21Z" style="fill:#fff"/><path d="M86.5,62.47h5V98h-5Z" style="fill:#fff"/><path d="M96.6,62.47h4.94v7.17l-.15,3.56h0a5.77,5.77,0,0,1,.77-.89,5.5,5.5,0,0,1,1-.78A5.44,5.44,0,0,1,104.4,71a5.3,5.3,0,0,1,1.48-.2,8.12,8.12,0,0,1,1,.08,3.68,3.68,0,0,1,1.19.39,5,5,0,0,1,1.23.93,5.54,5.54,0,0,1,1.09,1.69,12,12,0,0,1,.78,2.67,21.58,21.58,0,0,1,.3,3.89v8.15a21.46,21.46,0,0,1-.3,3.88,11.7,11.7,0,0,1-.79,2.69,5.81,5.81,0,0,1-1.11,1.71,4.73,4.73,0,0,1-1.27.93,4,4,0,0,1-1.25.4,7.43,7.43,0,0,1-1.06.09,6,6,0,0,1-1.69-.23,4.76,4.76,0,0,1-1.32-.64,5.22,5.22,0,0,1-1-.9,9,9,0,0,1-.77-1l-.41,2.5H96.6Zm4.94,30.08a5,5,0,0,0,.38.72,3.17,3.17,0,0,0,.52.62,2.52,2.52,0,0,0,.69.43,2.21,2.21,0,0,0,.87.16,2.32,2.32,0,0,0,1-.2,1.83,1.83,0,0,0,.78-.74,4.73,4.73,0,0,0,.52-1.5,13.69,13.69,0,0,0,.18-2.46V79.29a13.57,13.57,0,0,0-.18-2.45,4.93,4.93,0,0,0-.51-1.5,1.7,1.7,0,0,0-.77-.74,2.48,2.48,0,0,0-1-.19,2.21,2.21,0,0,0-1.51.53,4.38,4.38,0,0,0-1,1.28Z" style="fill:#fff"/><path d="M116,71.11h4.94V91.32a4.07,4.07,0,0,0,.55,2.47,1.9,1.9,0,0,0,1.6.69,2.77,2.77,0,0,0,1.44-.41,4.22,4.22,0,0,0,1.27-1.17V71.11h4.94V98h-3.77l-.48-2.87h0a8.24,8.24,0,0,1-1.24,1.53,6.1,6.1,0,0,1-1.37,1,6.22,6.22,0,0,1-1.46.52,7.43,7.43,0,0,1-1.48.15,4.32,4.32,0,0,1-3.64-1.64,8,8,0,0,1-1.28-5Z" style="fill:#fff"/><path d="M135.86,71.11h3.83l.43,2.87v0a7.35,7.35,0,0,1,1.25-1.54,6.1,6.1,0,0,1,1.37-1,5.53,5.53,0,0,1,1.47-.53,7.63,7.63,0,0,1,1.49-.16,4.29,4.29,0,0,1,4.34,3,7.31,7.31,0,0,1,1.24-1.46,5.83,5.83,0,0,1,1.36-.94,5.6,5.6,0,0,1,1.42-.5,7.19,7.19,0,0,1,1.47-.15,4.31,4.31,0,0,1,3.62,1.65,8,8,0,0,1,1.28,5V98h-4.94V77.57a6.82,6.82,0,0,0-.14-1.48,2.61,2.61,0,0,0-.41-1,1.55,1.55,0,0,0-.7-.54,2.92,2.92,0,0,0-1-.16,2.29,2.29,0,0,0-1.36.49,5.1,5.1,0,0,0-1.25,1.38c0,.12,0,.24,0,.35V98h-5V77.57a6.89,6.89,0,0,0-.13-1.48,2.61,2.61,0,0,0-.41-1,1.57,1.57,0,0,0-.71-.54,2.86,2.86,0,0,0-1-.16,2.37,2.37,0,0,0-1.35.48,5.06,5.06,0,0,0-1.23,1.35V98h-4.94Z" style="fill:#fff"/><path d="M174.67,74.62h-2.09V71.11h2.52l1-7h3.52v7h4.3v3.51h-4.3V91.73a4.62,4.62,0,0,0,.17,1.42,2.23,2.23,0,0,0,.45.84,1.51,1.51,0,0,0,.69.4,3.62,3.62,0,0,0,.82.09,4.18,4.18,0,0,0,1.28-.17,4.84,4.84,0,0,0,1.06-.49v2.73a3.75,3.75,0,0,1-.93.86,5,5,0,0,1-1,.54,4.52,4.52,0,0,1-1.08.28,6.51,6.51,0,0,1-1.07.08,7.3,7.3,0,0,1-2-.27,3.68,3.68,0,0,1-1.7-1.05,5.28,5.28,0,0,1-1.18-2.13,11.73,11.73,0,0,1-.44-3.56Z" style="fill:#fff"/><path d="M189.92,67.26a2.89,2.89,0,0,1-2.16-.82A3.37,3.37,0,0,1,187,64a4.51,4.51,0,0,1,.21-1.48,2.29,2.29,0,0,1,.58-1,2.36,2.36,0,0,1,.93-.52,4.34,4.34,0,0,1,1.25-.17,3.09,3.09,0,0,1,2.23.74,3.22,3.22,0,0,1,.76,2.39,3.43,3.43,0,0,1-.77,2.37A2.9,2.9,0,0,1,189.92,67.26Zm-2.56,3.85h4.94V98h-4.94Z" style="fill:#fff"/><path d="M198,74.62h-2.09V71.11h2.52l1-7H203v7h4.3v3.51H203V91.73a5,5,0,0,0,.16,1.42,2.39,2.39,0,0,0,.46.84,1.51,1.51,0,0,0,.69.4,3.62,3.62,0,0,0,.82.09,4.18,4.18,0,0,0,1.28-.17,4.84,4.84,0,0,0,1.06-.49v2.73a3.75,3.75,0,0,1-.93.86,5,5,0,0,1-1,.54,4.52,4.52,0,0,1-1.08.28,6.51,6.51,0,0,1-1.07.08,7.3,7.3,0,0,1-2-.27,3.68,3.68,0,0,1-1.7-1.05,5.28,5.28,0,0,1-1.18-2.13A11.73,11.73,0,0,1,198,91.3Z" style="fill:#fff"/><path d="M210.72,62.47h4.94V98h-4.94Z" style="fill:#fff"/><path d="M227.3,98.29a7,7,0,0,1-3.07-.64,5.7,5.7,0,0,1-2.26-2,10.13,10.13,0,0,1-1.38-3.51,23.86,23.86,0,0,1-.47-5.15V81.91a21.4,21.4,0,0,1,.38-4.39,12.5,12.5,0,0,1,1-3.06,6.19,6.19,0,0,1,3.1-3.07,5.81,5.81,0,0,1,1.71-.49,13,13,0,0,1,1.57-.11,8.41,8.41,0,0,1,2.56.4,5.38,5.38,0,0,1,2.17,1.37,7,7,0,0,1,1.49,2.59,12.61,12.61,0,0,1,.56,4c0,.55,0,1.1-.05,1.66s-.08,1.11-.13,1.65-.12,1.07-.2,1.57-.18,1-.27,1.41h-8.92v2.73a27.23,27.23,0,0,0,.13,3,7.38,7.38,0,0,0,.46,1.94,2.17,2.17,0,0,0,.88,1,2.71,2.71,0,0,0,1.4.32,2.27,2.27,0,0,0,.88-.18,1.83,1.83,0,0,0,.75-.62,3.36,3.36,0,0,0,.52-1.14,6.79,6.79,0,0,0,.19-1.77v-.84h4.12v1c0,2.55-.6,4.41-1.82,5.57A7.34,7.34,0,0,1,227.3,98.29ZM230,82.16c0-.14,0-.33,0-.58l0-.75c0-.26,0-.52,0-.77v-.65a8.58,8.58,0,0,0-.63-3.83,2,2,0,0,0-1.85-1.17,2.16,2.16,0,0,0-1.14.3,2.21,2.21,0,0,0-.8,1,7.86,7.86,0,0,0-.47,1.89,23.5,23.5,0,0,0-.15,2.91v1.64Z" style="fill:#fff"/><path d="M66.73,130V116h4.36c2.48,0,4.33.56,5.57,1.7a6.61,6.61,0,0,1,1.86,5.12,6.92,6.92,0,0,1-2,5.22A7.55,7.55,0,0,1,71,130Zm2.32-12V128h1.86a4.72,4.72,0,0,0,5.16-5.17,4.82,4.82,0,0,0-1.3-3.64A5.33,5.33,0,0,0,71,118Z" style="fill:#fff"/><path d="M89.29,125.6H82.46a3,3,0,0,0,.82,2.15,3,3,0,0,0,2.13.74,4.34,4.34,0,0,0,1.27-.23,5.23,5.23,0,0,0,1.41-.72l1,1.42a6.88,6.88,0,0,1-1.88,1,7,7,0,0,1-2.11.3,4.82,4.82,0,0,1-3.64-1.34,5.2,5.2,0,0,1-1.3-3.75,5.56,5.56,0,0,1,1.34-3.89A4.42,4.42,0,0,1,85,119.77,4.09,4.09,0,0,1,88.13,121a5.12,5.12,0,0,1,1.16,3.58ZM87.09,124a2.93,2.93,0,0,0-.56-1.94,2,2,0,0,0-1.59-.64,2.21,2.21,0,0,0-1.64.69,3.18,3.18,0,0,0-.84,1.89Z" style="fill:#fff"/><path d="M90.48,129.2l1-1.6a6.24,6.24,0,0,0,1.25.66,4.17,4.17,0,0,0,1.43.25,2.35,2.35,0,0,0,1.3-.31,1.1,1.1,0,0,0,.08-1.74,3.07,3.07,0,0,0-1.31-.54,5.73,5.73,0,0,1-2.63-1.16,2.52,2.52,0,0,1-.76-1.91,2.74,2.74,0,0,1,1.06-2.22,4.18,4.18,0,0,1,2.76-.86,5.71,5.71,0,0,1,1.62.22,5.19,5.19,0,0,1,1.5.69l-.91,1.57a5.23,5.23,0,0,0-1.19-.59,3.38,3.38,0,0,0-1.1-.18,2.19,2.19,0,0,0-1.24.3,1,1,0,0,0-.45.83.88.88,0,0,0,.46.82,5.82,5.82,0,0,0,1.52.53,5.08,5.08,0,0,1,2.38,1.12,2.64,2.64,0,0,1,.75,2,2.84,2.84,0,0,1-1.06,2.32,4.39,4.39,0,0,1-2.87.86,6.81,6.81,0,0,1-1.87-.25A7,7,0,0,1,90.48,129.2Z" style="fill:#fff"/><path d="M107.56,129.38a5.59,5.59,0,0,1-3.07.85,5,5,0,0,1-3.68-1.34,4.86,4.86,0,0,1-1.39-3.67,5.49,5.49,0,0,1,1.43-4,5.14,5.14,0,0,1,3.87-1.48,6.14,6.14,0,0,1,1.54.18,5.7,5.7,0,0,1,1.43.59l-.89,1.58a4.45,4.45,0,0,0-1-.42,4.4,4.4,0,0,0-1.06-.13,2.72,2.72,0,0,0-2.22,1,3.82,3.82,0,0,0-.78,2.51,3.52,3.52,0,0,0,.84,2.52,2.86,2.86,0,0,0,2.13.88,3.6,3.6,0,0,0,.9-.14,4.35,4.35,0,0,0,1-.46Z" style="fill:#fff"/><path d="M115,121.9l-.36-.07a2.3,2.3,0,0,0-.39,0,2.18,2.18,0,0,0-1.88.9,3.91,3.91,0,0,0-.65,2.34v5h-2.28V120h2.28v1.92h0a3.2,3.2,0,0,1,1-1.56,2.52,2.52,0,0,1,1.61-.54,3.43,3.43,0,0,1,.48,0,2.59,2.59,0,0,1,.4.09Z" style="fill:#fff"/><path d="M118,118.07a1.47,1.47,0,0,1-1-.4,1.41,1.41,0,0,1,0-2,1.46,1.46,0,0,1,1-.39,1.44,1.44,0,0,1,1,.39,1.31,1.31,0,0,1,.41,1,1.28,1.28,0,0,1-.41,1A1.45,1.45,0,0,1,118,118.07ZM119.15,130h-2.27V120h2.27Z" style="fill:#fff"/><path d="M124.41,128.68h0v5.92H122.1V120h2.28v1.64h0a4.07,4.07,0,0,1,1.42-1.41,3.9,3.9,0,0,1,1.92-.46,3.67,3.67,0,0,1,3,1.33,5.61,5.61,0,0,1,1.08,3.61,6.18,6.18,0,0,1-1.23,4,4.09,4.09,0,0,1-3.33,1.5,3.47,3.47,0,0,1-1.66-.38A3.4,3.4,0,0,1,124.41,128.68Zm-.06-4.06v1.12a2.76,2.76,0,0,0,.69,1.92,2.28,2.28,0,0,0,1.77.77,2.34,2.34,0,0,0,2-1,4.59,4.59,0,0,0,.71-2.73,3.67,3.67,0,0,0-.65-2.33,2.22,2.22,0,0,0-1.84-.82,2.44,2.44,0,0,0-1.94.86A3.24,3.24,0,0,0,124.35,124.62Z" style="fill:#fff"/><path d="M139.6,129.86a4.09,4.09,0,0,1-.92.28,5.55,5.55,0,0,1-1,.08,2.92,2.92,0,0,1-2.14-.73,3,3,0,0,1-.74-2.2v-5.51H133.1V120h1.68v-2.43l2.26-.69V120h2.39v1.78H137v5.32a1.61,1.61,0,0,0,.27,1.05,1,1,0,0,0,.83.33,1.83,1.83,0,0,0,.53-.07,1.91,1.91,0,0,0,.44-.16Z" style="fill:#fff"/><path d="M142.53,118.07a1.47,1.47,0,0,1-1-.4,1.41,1.41,0,0,1,0-2,1.46,1.46,0,0,1,1-.39,1.44,1.44,0,0,1,1,.39,1.31,1.31,0,0,1,.41,1,1.28,1.28,0,0,1-.41,1A1.45,1.45,0,0,1,142.53,118.07ZM143.65,130h-2.27V120h2.27Z" style="fill:#fff"/><path d="M151,130.23a4.92,4.92,0,0,1-3.71-1.4,5.09,5.09,0,0,1-1.37-3.75,4.89,4.89,0,0,1,5.28-5.31,4.8,4.8,0,0,1,3.68,1.38,5.24,5.24,0,0,1,1.32,3.76,5.34,5.34,0,0,1-1.4,3.88A5.06,5.06,0,0,1,151,130.23Zm.11-1.8a2.49,2.49,0,0,0,2.07-.89,4.06,4.06,0,0,0,.71-2.57,3.87,3.87,0,0,0-.72-2.53,2.51,2.51,0,0,0-2.07-.87,2.59,2.59,0,0,0-2.1.92,3.85,3.85,0,0,0-.77,2.54,3.76,3.76,0,0,0,.76,2.51A2.66,2.66,0,0,0,151.15,128.43Z" style="fill:#fff"/><path d="M167.46,130H165.2v-5.63a3.55,3.55,0,0,0-.51-2.1,1.79,1.79,0,0,0-1.53-.7,2.15,2.15,0,0,0-1.68.77,2.92,2.92,0,0,0-.66,2V130h-2.28V120h2.28v1.62h0a3.81,3.81,0,0,1,1.37-1.39,3.72,3.72,0,0,1,1.88-.46,3,3,0,0,1,2.5,1,4.77,4.77,0,0,1,.85,3.08Z" style="fill:#fff"/><path d="M180.16,130.23a4.93,4.93,0,0,1-3.72-1.4,5.13,5.13,0,0,1-1.37-3.75,4.89,4.89,0,0,1,5.28-5.31,4.78,4.78,0,0,1,3.68,1.38,5.24,5.24,0,0,1,1.32,3.76,5.34,5.34,0,0,1-1.4,3.88A5,5,0,0,1,180.16,130.23Zm.1-1.8a2.49,2.49,0,0,0,2.07-.89A4.06,4.06,0,0,0,183,125a3.87,3.87,0,0,0-.72-2.53,2.51,2.51,0,0,0-2.07-.87,2.59,2.59,0,0,0-2.1.92,3.85,3.85,0,0,0-.77,2.54,3.76,3.76,0,0,0,.76,2.51A2.66,2.66,0,0,0,180.26,128.43Z" style="fill:#fff"/><path d="M193.07,117a3.37,3.37,0,0,0-.5-.15,2.49,2.49,0,0,0-.49,0,1.41,1.41,0,0,0-1.09.41,1.79,1.79,0,0,0-.36,1.2V120h2.31v1.78h-2.31V130h-2.27v-8.22h-1.7V120h1.7v-1.72a3.14,3.14,0,0,1,1-2.42,3.75,3.75,0,0,1,2.6-.89,4.55,4.55,0,0,1,.88.07,5.76,5.76,0,0,1,.77.19Z" style="fill:#fff"/><path d="M205.5,129.86a4.09,4.09,0,0,1-.92.28,5.59,5.59,0,0,1-1,.08,2.91,2.91,0,0,1-2.13-.73,3,3,0,0,1-.75-2.2v-5.51H199V120h1.68v-2.43l2.27-.69V120h2.39v1.78h-2.39v5.32a1.61,1.61,0,0,0,.27,1.05,1,1,0,0,0,.83.33,1.83,1.83,0,0,0,.53-.07,1.91,1.91,0,0,0,.44-.16Z" style="fill:#fff"/><path d="M216.16,130H213.9v-5.72a3.41,3.41,0,0,0-.5-2,1.75,1.75,0,0,0-1.51-.68,2.13,2.13,0,0,0-1.67.77,2.91,2.91,0,0,0-.67,2V130h-2.27V115.2h2.27v6.38h0a3.82,3.82,0,0,1,1.37-1.37,3.73,3.73,0,0,1,1.81-.44,3.1,3.1,0,0,1,2.54,1,4.67,4.67,0,0,1,.85,3.06Z" style="fill:#fff"/><path d="M220.07,118.07a1.47,1.47,0,0,1-1-.4,1.41,1.41,0,0,1,0-2,1.46,1.46,0,0,1,1-.39,1.44,1.44,0,0,1,1,.39,1.31,1.31,0,0,1,.41,1,1.28,1.28,0,0,1-.41,1A1.45,1.45,0,0,1,220.07,118.07ZM221.19,130h-2.27V120h2.27Z" style="fill:#fff"/><path d="M223.17,129.2l1-1.6a6,6,0,0,0,1.25.66,4.09,4.09,0,0,0,1.43.25,2.38,2.38,0,0,0,1.3-.31,1,1,0,0,0,.46-.92,1,1,0,0,0-.38-.82,3.18,3.18,0,0,0-1.32-.54,5.78,5.78,0,0,1-2.63-1.16,2.55,2.55,0,0,1-.75-1.91,2.76,2.76,0,0,1,1-2.22,4.18,4.18,0,0,1,2.76-.86A5.83,5.83,0,0,1,229,120a5.32,5.32,0,0,1,1.5.69l-.92,1.57a5.18,5.18,0,0,0-1.18-.59,3.47,3.47,0,0,0-1.1-.18,2.22,2.22,0,0,0-1.25.3.94.94,0,0,0-.44.83.89.89,0,0,0,.45.82,5.78,5.78,0,0,0,1.53.53,5,5,0,0,1,2.37,1.12,2.64,2.64,0,0,1,.75,2,2.84,2.84,0,0,1-1.06,2.32,4.36,4.36,0,0,1-2.86.86,6.76,6.76,0,0,1-1.87-.25A6.94,6.94,0,0,1,223.17,129.2Z" style="fill:#fff"/><path d="M243.67,117a3.05,3.05,0,0,0-.5-.15,2.45,2.45,0,0,0-.48,0,1.38,1.38,0,0,0-1.09.41,1.74,1.74,0,0,0-.37,1.2V120h2.31v1.78h-2.31V130H239v-8.22h-1.69V120H239v-1.72a3.11,3.11,0,0,1,1-2.42,3.73,3.73,0,0,1,2.6-.89,4.55,4.55,0,0,1,.88.07,6.62,6.62,0,0,1,.77.19Z" style="fill:#fff"/><path d="M249.6,130.23a5,5,0,0,1-3.72-1.4,5.13,5.13,0,0,1-1.37-3.75,5.28,5.28,0,0,1,1.43-3.9,5.21,5.21,0,0,1,3.85-1.41,4.78,4.78,0,0,1,3.68,1.38,5.24,5.24,0,0,1,1.32,3.76,5.3,5.3,0,0,1-1.4,3.88A5,5,0,0,1,249.6,130.23Zm.11-1.8a2.48,2.48,0,0,0,2.06-.89,4.06,4.06,0,0,0,.71-2.57,3.93,3.93,0,0,0-.71-2.53,2.53,2.53,0,0,0-2.07-.87,2.61,2.61,0,0,0-2.11.92,3.85,3.85,0,0,0-.76,2.54,3.71,3.71,0,0,0,.76,2.51A2.65,2.65,0,0,0,249.71,128.43Z" style="fill:#fff"/><path d="M257.1,130V115.2h2.28V130Z" style="fill:#fff"/><path d="M269.11,128.45a3.56,3.56,0,0,1-1.36,1.34,3.89,3.89,0,0,1-1.92.44,3.75,3.75,0,0,1-3-1.33,5.47,5.47,0,0,1-1.14-3.67,6,6,0,0,1,1.25-4,4.12,4.12,0,0,1,3.32-1.49,3.67,3.67,0,0,1,1.72.37,2.78,2.78,0,0,1,1.14,1.14h0V115.2h2.28V130h-2.28v-1.55Zm-5.12-3.3a3.78,3.78,0,0,0,.7,2.41,2.28,2.28,0,0,0,1.88.87,2.33,2.33,0,0,0,1.89-.87,3.4,3.4,0,0,0,.72-2.24v-1.14a2.64,2.64,0,0,0-.69-1.86,2.33,2.33,0,0,0-1.78-.75,2.36,2.36,0,0,0-2,1A4.28,4.28,0,0,0,264,125.15Z" style="fill:#fff"/><path d="M282.84,125.6H276a3,3,0,0,0,.82,2.15,2.91,2.91,0,0,0,2.12.74,4.23,4.23,0,0,0,1.27-.23,5,5,0,0,0,1.41-.72l1,1.42a6.79,6.79,0,0,1-1.89,1,7,7,0,0,1-2.11.3,4.81,4.81,0,0,1-3.63-1.34,5.2,5.2,0,0,1-1.31-3.75,5.61,5.61,0,0,1,1.34-3.89,4.45,4.45,0,0,1,3.45-1.48,4.07,4.07,0,0,1,3.16,1.26,5.08,5.08,0,0,1,1.16,3.58Zm-2.2-1.58a2.88,2.88,0,0,0-.56-1.94,2,2,0,0,0-1.58-.64,2.22,2.22,0,0,0-1.65.69A3.24,3.24,0,0,0,276,124Z" style="fill:#fff"/><path d="M290.57,121.9l-.36-.07a2.42,2.42,0,0,0-.4,0,2.18,2.18,0,0,0-1.87.9,3.84,3.84,0,0,0-.65,2.34v5H285V120h2.28v1.92h0a3.21,3.21,0,0,1,1-1.56,2.52,2.52,0,0,1,1.61-.54,3.28,3.28,0,0,1,.47,0,2.71,2.71,0,0,1,.41.09Z" style="fill:#fff"/><path d="M72.37,150.8l-5.45,13H64.79l5.43-13Z" style="fill:#fff"/><path d="M78,162V150.8h4a4.86,4.86,0,0,1,2.84.7,2.32,2.32,0,0,1,1,2,2.43,2.43,0,0,1-.54,1.57,2.76,2.76,0,0,1-1.38.95v0a2.71,2.71,0,0,1,1.73.86,2.5,2.5,0,0,1,.65,1.74,3,3,0,0,1-1.1,2.44,4.59,4.59,0,0,1-3,.9Zm2.43-9.39v2.8h1.14A1.85,1.85,0,0,0,82.8,155a1.3,1.3,0,0,0,.47-1.06,1.16,1.16,0,0,0-.47-1,2.36,2.36,0,0,0-1.41-.34Zm0,4.62v3H81.8a2.12,2.12,0,0,0,1.41-.42,1.42,1.42,0,0,0,.5-1.14,1.2,1.2,0,0,0-.5-1,2.3,2.3,0,0,0-1.41-.38Z" style="fill:#fff"/><path d="M93.11,155.8a1.8,1.8,0,0,0-.32-.06l-.36,0a1.78,1.78,0,0,0-1.47.62,2.69,2.69,0,0,0-.5,1.72V162H88.07v-8.2h2.39v1.54h0a2.55,2.55,0,0,1,.84-1.26,2.11,2.11,0,0,1,1.33-.42,2.19,2.19,0,0,1,.36,0,2.25,2.25,0,0,1,.36.06Z" style="fill:#fff"/><path d="M101.93,158.57h-5.4a2,2,0,0,0,.62,1.42,2.31,2.31,0,0,0,1.53.47,3.26,3.26,0,0,0,1-.21,4.14,4.14,0,0,0,1.22-.65l1,1.39a6,6,0,0,1-1.7.92,5.84,5.84,0,0,1-1.91.29,4.06,4.06,0,0,1-3-1.1A4.21,4.21,0,0,1,94.16,158a4.51,4.51,0,0,1,1.15-3.19,3.82,3.82,0,0,1,2.91-1.23,3.65,3.65,0,0,1,2.71,1,4.13,4.13,0,0,1,1,3Zm-2.22-1.5a2.11,2.11,0,0,0-.38-1.4,1.43,1.43,0,0,0-1.13-.44,1.48,1.48,0,0,0-1.11.5,2.32,2.32,0,0,0-.57,1.34Z" style="fill:#fff"/><path d="M110.31,162H108v-1.19h0a2.7,2.7,0,0,1-2.42,1.39,2.75,2.75,0,0,1-1.85-.65,2.29,2.29,0,0,1-.75-1.82,2.43,2.43,0,0,1,.75-1.85,4,4,0,0,1,2.31-.93l2-.27v-.16a1.15,1.15,0,0,0-.39-1,1.67,1.67,0,0,0-1.08-.32,4,4,0,0,0-1.12.18,4.75,4.75,0,0,0-1.23.55l-.84-1.41a6.54,6.54,0,0,1,1.63-.73,6.33,6.33,0,0,1,1.78-.24,3.6,3.6,0,0,1,2.64.86,3.49,3.49,0,0,1,.86,2.59Zm-2.25-3.34v-.57l-1.55.2a1.74,1.74,0,0,0-1,.38,1,1,0,0,0-.32.78,1,1,0,0,0,.31.75,1.21,1.21,0,0,0,.85.28,1.59,1.59,0,0,0,1.22-.51A1.86,1.86,0,0,0,108.06,158.66Z" style="fill:#fff"/><path d="M118,160.84a3,3,0,0,1-1.07,1,3.13,3.13,0,0,1-1.5.34,3.1,3.1,0,0,1-2.47-1.09,4.49,4.49,0,0,1-.93-3,4.91,4.91,0,0,1,1-3.27,3.39,3.39,0,0,1,2.71-1.22,3,3,0,0,1,1.35.29,2,2,0,0,1,.88.88h0v-4.61h2.4V162H118v-1.16ZM114.41,158a2.77,2.77,0,0,0,.47,1.74,1.58,1.58,0,0,0,1.32.61,1.6,1.6,0,0,0,1.32-.64,2.58,2.58,0,0,0,.5-1.67v-.68a2,2,0,0,0-.48-1.38,1.74,1.74,0,0,0-2.64.14A3.13,3.13,0,0,0,114.41,158Z" style="fill:#fff"/><path d="M129.17,161.46a4.88,4.88,0,0,1-1.27.56,5.21,5.21,0,0,1-1.4.18,4.34,4.34,0,0,1-3.19-1.14,4,4,0,0,1-1.15-3,4.2,4.2,0,0,1,4.49-4.5,5.21,5.21,0,0,1,1.32.15,4.89,4.89,0,0,1,1.15.47l-.9,1.62a2.76,2.76,0,0,0-.72-.3,3,3,0,0,0-.76-.09,2,2,0,0,0-1.58.65,2.7,2.7,0,0,0-.57,1.84,2.51,2.51,0,0,0,.61,1.78,2,2,0,0,0,1.53.64,2.79,2.79,0,0,0,.68-.11,3.3,3.3,0,0,0,.82-.37Z" style="fill:#fff"/><path d="M135.7,155.8l-.32-.06-.36,0a1.79,1.79,0,0,0-1.48.62,2.69,2.69,0,0,0-.49,1.72V162h-2.39v-8.2h2.39v1.54h0a2.61,2.61,0,0,1,.83-1.26,2.13,2.13,0,0,1,1.33-.42,2.22,2.22,0,0,1,.37,0l.36.06Z" style="fill:#fff"/><path d="M144.89,162h-2.38v-1.26h0a3.28,3.28,0,0,1-1.09,1.1,2.84,2.84,0,0,1-1.43.36,2.64,2.64,0,0,1-2.14-.86,4,4,0,0,1-.71-2.59V153.8h2.38v4.72a2.23,2.23,0,0,0,.36,1.38,1.3,1.3,0,0,0,1.09.46,1.46,1.46,0,0,0,1.15-.5,2.08,2.08,0,0,0,.43-1.37V153.8h2.38Z" style="fill:#fff"/><path d="M160,162h-2.39v-4.68a2.34,2.34,0,0,0-.34-1.41,1.18,1.18,0,0,0-1-.46,1.24,1.24,0,0,0-1.06.56,2.26,2.26,0,0,0-.42,1.4V162H152.4v-4.74a2.25,2.25,0,0,0-.35-1.37,1.19,1.19,0,0,0-1-.44A1.29,1.29,0,0,0,150,156a2.35,2.35,0,0,0-.4,1.45V162h-2.39v-8.2h2.39v1.29h0a2.93,2.93,0,0,1,1.1-1.08,3,3,0,0,1,1.54-.41,2.61,2.61,0,0,1,1.46.39,2.44,2.44,0,0,1,.91,1.16,3.15,3.15,0,0,1,1.15-1.17,3.29,3.29,0,0,1,1.6-.38,2.41,2.41,0,0,1,2,.83,3.84,3.84,0,0,1,.68,2.48Z" style="fill:#fff"/><path d="M164.58,161h0v1h-2.39V150.16h2.39v4.9h0a3.15,3.15,0,0,1,1.14-1.1,3.22,3.22,0,0,1,1.55-.36,2.92,2.92,0,0,1,2.44,1.09,4.7,4.7,0,0,1,.86,3,5.09,5.09,0,0,1-1,3.3,3.27,3.27,0,0,1-2.68,1.24,2.85,2.85,0,0,1-1.34-.29A2.5,2.5,0,0,1,164.58,161Zm-.07-3.44v.87a2,2,0,0,0,.48,1.37,1.57,1.57,0,0,0,1.23.54,1.61,1.61,0,0,0,1.4-.7,3.34,3.34,0,0,0,.5-2,2.71,2.71,0,0,0-.46-1.66,1.52,1.52,0,0,0-1.29-.59A1.7,1.7,0,0,0,165,156,2.24,2.24,0,0,0,164.51,157.58Z" style="fill:#fff"/><path d="M183,150.8l-5.45,13h-2.13l5.43-13Z" style="fill:#fff"/><path d="M191.05,158.3V162h-2.44V150.8h3.89a4.68,4.68,0,0,1,3.15.91,3.42,3.42,0,0,1,1,2.74,3.52,3.52,0,0,1-1.2,2.78,4.71,4.71,0,0,1-3.23,1.07Zm0-5.61v3.74h1a2.24,2.24,0,0,0,1.55-.47,1.82,1.82,0,0,0,.52-1.42,1.78,1.78,0,0,0-.51-1.39,2.24,2.24,0,0,0-1.55-.46Z" style="fill:#fff"/><path d="M204.47,162H202.2v-1.19h0a2.76,2.76,0,0,1-1,1,2.95,2.95,0,0,1-3.24-.3,2.29,2.29,0,0,1-.75-1.82,2.46,2.46,0,0,1,.74-1.85,4,4,0,0,1,2.32-.93l2-.27v-.16a1.15,1.15,0,0,0-.39-1,1.67,1.67,0,0,0-1.08-.32,4,4,0,0,0-1.12.18,4.75,4.75,0,0,0-1.23.55l-.85-1.41a6.7,6.7,0,0,1,1.63-.73,6.4,6.4,0,0,1,1.79-.24,3.6,3.6,0,0,1,2.64.86,3.53,3.53,0,0,1,.86,2.59Zm-2.25-3.34v-.57l-1.56.2a1.74,1.74,0,0,0-1,.38,1.09,1.09,0,0,0,0,1.53,1.2,1.2,0,0,0,.84.28,1.61,1.61,0,0,0,1.23-.51A1.86,1.86,0,0,0,202.22,158.66Z" style="fill:#fff"/><path d="M211.63,161.87a3.44,3.44,0,0,1-.84.24,4.73,4.73,0,0,1-.93.09,2.73,2.73,0,0,1-2-.65,2.49,2.49,0,0,1-.67-1.9v-4.08h-1.33V153.8h1.33V152l2.38-.69v2.53h1.87v1.77h-1.87v3.91a1.1,1.1,0,0,0,.2.73.75.75,0,0,0,.6.23,1.75,1.75,0,0,0,.4-.05,2.67,2.67,0,0,0,.36-.14Z" style="fill:#fff"/><path d="M220.8,162h-2.39v-4.66a2.43,2.43,0,0,0-.34-1.43,1.2,1.2,0,0,0-1-.46,1.44,1.44,0,0,0-1.15.52,2.08,2.08,0,0,0-.44,1.36V162h-2.39V150.16h2.39V155h0a3,3,0,0,1,1.1-1.08,2.85,2.85,0,0,1,1.44-.36,2.53,2.53,0,0,1,2.09.85,3.85,3.85,0,0,1,.7,2.52Z" style="fill:#fff"/><path d="M29.89,85h0l14-14,1.37,1.37L33.62,84H58v2H33.62L45.25,97.63,43.88,99l-14-14Z" style="fill:#fff;fill-rule:evenodd"/><rect x="698" y="208" width="66" height="66" rx="3" style="opacity:0.5"/><rect x="584" y="66" width="180" height="60" rx="3" style="opacity:0.5"/><polygon points="743 241 723 253 723 229 743 241" style="fill:#fefefe;fill-rule:evenodd"/><circle cx="338" cy="24" r="18" style="fill:#e00000"/><path d="M340.71,33h-3.56V20.08a7.51,7.51,0,0,1-1.44.76c-.53.21-1.11.41-1.72.6l-1-2.87a19,19,0,0,0,3-1.17,15,15,0,0,0,2.53-1.57h2.14Z" style="fill:#fefefe"/><circle cx="657" cy="24" r="18" style="fill:#e00000"/><path d="M651.62,33V31.76a5.67,5.67,0,0,1,.43-2.27,7.48,7.48,0,0,1,1.08-1.84,8.47,8.47,0,0,1,1.43-1.44c.52-.42,1-.81,1.52-1.16a14.48,14.48,0,0,0,1.3-1,10.59,10.59,0,0,0,1-.94,3,3,0,0,0,.63-1,3.52,3.52,0,0,0,.2-1.23,2.11,2.11,0,0,0-.57-1.5,2.16,2.16,0,0,0-1.64-.6,5.08,5.08,0,0,0-1.76.39,6.74,6.74,0,0,0-2,1.19l-1.82-2.22a10,10,0,0,1,2.86-1.68,9.51,9.51,0,0,1,3.27-.54,5.42,5.42,0,0,1,3.82,1.31,4.2,4.2,0,0,1,1.41,3.18,6.56,6.56,0,0,1-.35,2.34,6.76,6.76,0,0,1-.93,1.61,8.6,8.6,0,0,1-1.34,1.36c-.51.41-1.05.81-1.61,1.19l-1.14.84a9.92,9.92,0,0,0-1,.78,5.13,5.13,0,0,0-.63.78,1.32,1.32,0,0,0-.23.72h7.21v3Z" style="fill:#fefefe"/><circle cx="779" cy="24" r="18" style="fill:#e00000"/><path d="M773.41,31.85l1.44-2.38a8.3,8.3,0,0,0,1.65.81,5.63,5.63,0,0,0,1.8.25,2.86,2.86,0,0,0,2.11-.68,2.15,2.15,0,0,0,.69-1.59,2.08,2.08,0,0,0-1-1.87,5,5,0,0,0-2.74-.64H776V23h1.25a4.49,4.49,0,0,0,2.51-.56,2.09,2.09,0,0,0,.83-1.87,1.8,1.8,0,0,0-.54-1.43,2.26,2.26,0,0,0-1.53-.48,5,5,0,0,0-1.56.27,8.49,8.49,0,0,0-1.76.81l-1.37-2.34a10.09,10.09,0,0,1,2.51-1.13,9.82,9.82,0,0,1,2.74-.36,5.77,5.77,0,0,1,3.73,1.16,3.7,3.7,0,0,1,1.43,3,4.36,4.36,0,0,1-.73,2.58,4.31,4.31,0,0,1-2.17,1.55v.06a4.14,4.14,0,0,1,2.49,1.35,3.85,3.85,0,0,1,.92,2.58,4.62,4.62,0,0,1-1.65,3.66,6.52,6.52,0,0,1-4.43,1.43,10.29,10.29,0,0,1-2.75-.35A10.66,10.66,0,0,1,773.41,31.85Z" style="fill:#fefefe"/><circle cx="30" cy="127" r="18" style="fill:#e00000"/><path d="M33.54,119.19v10.64h1.64v2.71H33.54V136H30.12v-3.48h-7v-2.81c.63-.74,1.27-1.54,1.93-2.41s1.31-1.77,1.93-2.69,1.19-1.85,1.73-2.78a29.07,29.07,0,0,0,1.35-2.66Zm-7.27,10.64h3.85v-6c-.28.54-.58,1.09-.91,1.63s-.64,1.06-1,1.57-.67,1-1,1.45S26.59,129.42,26.27,129.83Z" style="fill:#fefefe"/><circle cx="612" cy="150" r="18" style="fill:#e00000"/><path d="M606.36,157.55l1.68-2.21a5.88,5.88,0,0,0,1.65.91,5.28,5.28,0,0,0,1.71.28,2.75,2.75,0,0,0,2-.71,2.46,2.46,0,0,0,.74-1.84,2.31,2.31,0,0,0-.91-2,4.65,4.65,0,0,0-2.69-.64c-.44,0-.91,0-1.41.05s-1,.08-1.59.15l.63-9.32H617v2.93h-6.08l-.24,3.48.85-.05.71,0a5.8,5.8,0,0,1,4.07,1.36,4.87,4.87,0,0,1,1.47,3.75,5.37,5.37,0,0,1-1.67,4,6.31,6.31,0,0,1-4.57,1.61,8.41,8.41,0,0,1-2.76-.43A8.63,8.63,0,0,1,606.36,157.55Z" style="fill:#fefefe"/><circle cx="672" cy="150" r="18" style="fill:#e00000"/><path d="M677.78,153.53a5.68,5.68,0,0,1-1.59,4.12,5.35,5.35,0,0,1-4,1.65,5.05,5.05,0,0,1-4.27-2,9.38,9.38,0,0,1-1.54-5.78,15.57,15.57,0,0,1,.47-3.93,8.5,8.5,0,0,1,1.44-3.06,6.51,6.51,0,0,1,2.22-1.92,6.74,6.74,0,0,1,3.18-.67,5.87,5.87,0,0,1,3.8,1.38l-1.83,2.14a3.37,3.37,0,0,0-.95-.58,3.27,3.27,0,0,0-1.16-.19A3.18,3.18,0,0,0,672,145a3.8,3.8,0,0,0-1.18,1,4.79,4.79,0,0,0-.79,1.6,8.11,8.11,0,0,0-.29,2.05h.07a4.24,4.24,0,0,1,1.52-1.11,5,5,0,0,1,2-.37,4,4,0,0,1,3.25,1.44A5.8,5.8,0,0,1,677.78,153.53Zm-3.36.13a3.21,3.21,0,0,0-.56-2.08,1.92,1.92,0,0,0-1.57-.69,2.19,2.19,0,0,0-1.79.77,3,3,0,0,0-.63,2,3.35,3.35,0,0,0,.63,2.07,2,2,0,0,0,1.67.84,2,2,0,0,0,1.65-.75A3.3,3.3,0,0,0,674.42,153.66Z" style="fill:#fefefe"/><circle cx="732" cy="150" r="18" style="fill:#e00000"/><path d="M737.91,144.26a71,71,0,0,0-3.62,7.31,30.61,30.61,0,0,0-2,7.44h-3.76a31.08,31.08,0,0,1,2.13-7.38,50.08,50.08,0,0,1,3.42-6.5h-7.89V142.2h11.68Z" style="fill:#fefefe"/><circle cx="673" cy="242" r="18" style="fill:#e00000"/><path d="M667.21,246.47a4.52,4.52,0,0,1,.75-2.55,4.69,4.69,0,0,1,2.24-1.74,5,5,0,0,1-1.75-1.64,3.91,3.91,0,0,1-.63-2.17,4,4,0,0,1,1.49-3.18,5.68,5.68,0,0,1,3.82-1.27,5.76,5.76,0,0,1,3.82,1.25,3.93,3.93,0,0,1,1.5,3.16,3.65,3.65,0,0,1-.67,2.15,5.53,5.53,0,0,1-1.84,1.63,4.52,4.52,0,0,1,3,4.33,4.32,4.32,0,0,1-1.62,3.5,6.4,6.4,0,0,1-4.23,1.34,6.5,6.5,0,0,1-4.24-1.34A4.26,4.26,0,0,1,667.21,246.47Zm3.33-.3a2.42,2.42,0,0,0,.7,1.84,2.58,2.58,0,0,0,1.86.68,2.53,2.53,0,0,0,1.82-.69,2.39,2.39,0,0,0,.73-1.83,2.54,2.54,0,0,0-.71-1.8,2.36,2.36,0,0,0-1.82-.75,2.53,2.53,0,0,0-1.84.73A2.41,2.41,0,0,0,670.54,246.17Zm.51-7.5a2.15,2.15,0,0,0,.62,1.6,2,2,0,0,0,1.48.61,2.08,2.08,0,0,0,1.47-.6,2.12,2.12,0,0,0,.63-1.61,2.05,2.05,0,0,0-2.1-2.16,2,2,0,0,0-1.5.59A2.12,2.12,0,0,0,671.05,238.67Z" style="fill:#fefefe"/><path d="M24,300H266a4,4,0,0,1,4,4v56a0,0,0,0,1,0,0H20a0,0,0,0,1,0,0V304A4,4,0,0,1,24,300Z" style="fill:#444"/><path d="M279,300H521a4,4,0,0,1,4,4v56a0,0,0,0,1,0,0H275a0,0,0,0,1,0,0V304A4,4,0,0,1,279,300Z" style="fill:#444"/><path d="M534,300H776a4,4,0,0,1,4,4v56a0,0,0,0,1,0,0H530a0,0,0,0,1,0,0V304A4,4,0,0,1,534,300Z" style="fill:#444"/><path d="M45,36H25V24H21L35,10,49,24H45Zm-2-2V22h1.17L35,12.83,25.83,22H27V34Z" style="fill:#fff"/><path d="M710.3,35.76l-7.67-7.67a12,12,0,1,0-4.24,4.24L706.06,40ZM682.3,22a10,10,0,1,1,10,10A10,10,0,0,1,682.3,22Zm19.16,7.74,6,6-1.42,1.41-6-6A11.82,11.82,0,0,0,701.46,29.74Z" style="fill:#fff;fill-rule:evenodd"/><path d="M731.33,78h2V91.67l6.83-6.83,1.41,1.42-9.24,9.24-9.24-9.24,1.41-1.42,6.83,6.83Zm14,20v6h-26V98h-2v8h30V98Z" style="fill:#fff"/><path d="M681.33,81a4,4,0,1,1-4,4,4,4,0,0,1,4-4m0,20a4,4,0,1,1-4,4,4,4,0,0,1,4-4M664,91a4,4,0,1,1-4,4,4,4,0,0,1,4-4m17.32,8a6,6,0,0,0-4.6,2.19l-7.11-4.11a5.74,5.74,0,0,0,0-4.16l7.11-4.11a6,6,0,1,0-1-1.73l-7.11,4.11a6,6,0,1,0,0,7.62l7.11,4.11A6,6,0,1,0,681.33,99Z" style="fill:#fff"/><path d="M616,81a14,14,0,1,0,14,14,14,14,0,0,0-14-14m2,8a2,2,0,0,1-2,2h0a2,2,0,0,1-2-2h0a2,2,0,0,1,2-2h0a2,2,0,0,1,2,2Zm14,6a16,16,0,1,1-16-16A16,16,0,0,1,632,95Zm-14,8h-4V93h4Z" style="fill:#fff"/><path d="M748.42,24.17l-12.13,7v-14ZM740,8a16,16,0,1,0,16,16A16,16,0,0,0,740,8Zm0,30a14,14,0,1,1,14-14A14,14,0,0,1,740,38Z" style="fill:#fff"/></svg>