<?xml version="1.0" encoding="UTF-8" standalone="no"?>
<svg
   xmlns:dc="http://purl.org/dc/elements/1.1/"
   xmlns:cc="http://creativecommons.org/ns#"
   xmlns:rdf="http://www.w3.org/1999/02/22-rdf-syntax-ns#"
   xmlns:svg="http://www.w3.org/2000/svg"
   xmlns="http://www.w3.org/2000/svg"
   xmlns:sodipodi="http://sodipodi.sourceforge.net/DTD/sodipodi-0.dtd"
   xmlns:inkscape="http://www.inkscape.org/namespaces/inkscape"
   version="1.1"
   id="svg2"
   xml:space="preserve"
   width="269"
   height="148.98666"
   viewBox="0 0 269 148.98666"
   sodipodi:docname="ast_r_v_bb_rcn_pos_clr_rgb_210323.eps"><metadata
     id="metadata8"><rdf:RDF><cc:Work
         rdf:about=""><dc:format>image/svg+xml</dc:format><dc:type
           rdf:resource="http://purl.org/dc/dcmitype/StillImage" /></cc:Work></rdf:RDF></metadata><defs
     id="defs6" /><sodipodi:namedview
     pagecolor="#ffffff"
     bordercolor="#666666"
     borderopacity="1"
     objecttolerance="10"
     gridtolerance="10"
     guidetolerance="10"
     inkscape:pageopacity="0"
     inkscape:pageshadow="2"
     inkscape:window-width="640"
     inkscape:window-height="480"
     id="namedview4" /><g
     id="g10"
     inkscape:groupmode="layer"
     inkscape:label="ink_ext_XXXXXX"
     transform="matrix(1.3333333,0,0,-1.3333333,0,148.98667)"><g
       id="g12"
       transform="scale(0.1)"><path
         d="m 592.73,232.691 c 0,10.301 -7.675,18.36 -17.789,18.36 H 540.277 V 214.34 h 34.664 c 10.114,0 17.789,8.047 17.789,18.351 z m -52.453,72.313 v -34.473 h 30.536 c 9.566,0 16.863,7.492 16.863,17.227 0,9.746 -7.297,17.246 -16.863,17.246 z m 74.012,-73.438 c 0,-21.734 -17.621,-37.468 -39.348,-37.468 h -56.207 v 131.14 h 52.079 c 21.175,0 38.402,-15.359 38.402,-36.347 0,-11.426 -5.055,-20.801 -13.293,-26.797 11.055,-5.789 18.367,-16.485 18.367,-30.528"
         style="fill:#3ab54a;fill-opacity:1;fill-rule:nonzero;stroke:none"
         id="path34" /><path
         d="m 690.16,289.457 v -21.922 c -13.308,0.938 -28.851,-5.234 -28.851,-26.222 v -47.215 h -20.223 v 93.66 h 20.223 v -15.731 c 5.617,12.735 17.043,17.43 28.851,17.43"
         style="fill:#3ab54a;fill-opacity:1;fill-rule:nonzero;stroke:none"
         id="path36" /><path
         d="m 783.652,240.934 c 0,17.05 -12.742,29.597 -29.226,29.597 -16.492,0 -29.219,-12.547 -29.219,-29.597 0,-17.043 12.727,-29.59 29.219,-29.59 16.484,0 29.226,12.547 29.226,29.59 z m -78.687,0 c 0,27.918 22.101,49.257 49.461,49.257 27.535,0 49.453,-21.339 49.453,-49.257 0,-27.735 -21.918,-49.27 -49.453,-49.27 -27.36,0 -49.461,21.535 -49.461,49.27"
         style="fill:#3ab54a;fill-opacity:1;fill-rule:nonzero;stroke:none"
         id="path38" /><path
         d="m 905.805,240.934 c 0,17.429 -12.735,29.98 -29.594,29.98 -16.863,0 -29.594,-12.551 -29.594,-29.98 0,-17.422 12.731,-29.973 29.594,-29.973 16.859,0 29.594,12.551 29.594,29.973 z m 20.242,46.824 v -93.66 h -20.242 v 13.484 c -7.114,-9.918 -18.168,-15.918 -32.793,-15.918 -25.457,0 -46.641,21.535 -46.641,49.27 0,27.918 21.184,49.257 46.641,49.257 14.625,0 25.679,-5.984 32.793,-15.722 v 13.289 h 20.242"
         style="fill:#3ab54a;fill-opacity:1;fill-rule:nonzero;stroke:none"
         id="path40" /><path
         d="m 1033.19,240.934 c 0,17.429 -12.73,29.98 -29.59,29.98 -16.866,0 -29.596,-12.551 -29.596,-29.98 0,-17.422 12.73,-29.973 29.596,-29.973 16.86,0 29.59,12.551 29.59,29.973 z m 20.24,84.304 v -131.14 h -20.24 v 13.484 c -7.12,-9.918 -18.17,-15.918 -32.77,-15.918 -25.498,0 -46.658,21.535 -46.658,49.27 0,27.918 21.16,49.257 46.658,49.257 14.6,0 25.65,-5.984 32.77,-15.722 v 50.769 h 20.24"
         style="fill:#3ab54a;fill-opacity:1;fill-rule:nonzero;stroke:none"
         id="path42" /><path
         d="m 1165.85,240.934 c 0,17.429 -12.75,29.98 -29.61,29.98 -16.85,0 -29.6,-12.551 -29.6,-29.98 0,-17.422 12.75,-29.973 29.6,-29.973 16.86,0 29.61,12.551 29.61,29.973 z m 20.22,0 c 0,-27.735 -21.16,-49.27 -46.64,-49.27 -14.61,0 -25.67,6 -32.79,15.918 v -13.484 h -20.22 v 131.14 h 20.22 v -50.769 c 7.12,9.738 18.18,15.722 32.79,15.722 25.48,0 46.64,-21.339 46.64,-49.257"
         style="fill:#3ab54a;fill-opacity:1;fill-rule:nonzero;stroke:none"
         id="path44" /><path
         d="m 1288,240.934 c 0,17.429 -12.73,29.98 -29.6,29.98 -16.86,0 -29.59,-12.551 -29.59,-29.98 0,-17.422 12.73,-29.973 29.59,-29.973 16.87,0 29.6,12.551 29.6,29.973 z m 20.24,46.824 v -93.66 H 1288 v 13.484 c -7.12,-9.918 -18.17,-15.918 -32.77,-15.918 -25.5,0 -46.66,21.535 -46.66,49.27 0,27.918 21.16,49.257 46.66,49.257 14.6,0 25.65,-5.984 32.77,-15.722 v 13.289 h 20.24"
         style="fill:#3ab54a;fill-opacity:1;fill-rule:nonzero;stroke:none"
         id="path46" /><path
         d="m 1426.45,251.605 v -57.507 h -20.22 v 55.449 c 0,14.226 -8.25,21.738 -20.98,21.738 -13.31,0 -23.8,-7.871 -23.8,-26.972 v -50.215 h -20.22 v 93.66 h 20.22 v -11.992 c 6.19,9.757 16.3,14.425 29.03,14.425 20.99,0 35.97,-14.23 35.97,-38.586"
         style="fill:#3ab54a;fill-opacity:1;fill-rule:nonzero;stroke:none"
         id="path48" /><path
         d="m 1531.74,240.934 c 0,17.429 -12.73,29.98 -29.6,29.98 -16.86,0 -29.59,-12.551 -29.59,-29.98 0,-17.422 12.73,-29.973 29.59,-29.973 16.87,0 29.6,12.551 29.6,29.973 z m 20.24,84.304 v -131.14 h -20.24 v 13.484 c -7.12,-9.918 -18.17,-15.918 -32.77,-15.918 -25.5,0 -46.66,21.535 -46.66,49.27 0,27.918 21.16,49.257 46.66,49.257 14.6,0 25.65,-5.984 32.77,-15.722 v 50.769 h 20.24"
         style="fill:#3ab54a;fill-opacity:1;fill-rule:nonzero;stroke:none"
         id="path50" /><path
         d="m 1400.81,723.977 c -26.81,9.105 -53.61,18.211 -80.41,27.316 -9.64,-22.637 -19.28,-45.266 -28.92,-67.902 36.4,10.941 72.8,21.882 109.19,32.824 3.8,1.144 3.89,6.484 0.14,7.762 z m 64.37,123.644 c -15.83,41.477 -31.65,82.945 -47.48,124.422 -35.54,-11.359 -71.07,-22.723 -106.61,-34.082 49.36,-31.738 98.72,-63.484 148.08,-95.223 3.31,-2.129 7.41,1.207 6.01,4.883 z m 154.19,-107.129 227.04,-144.07 90.57,66.551 -313.96,85.789 c -5.06,1.379 -8.07,-5.461 -3.65,-8.27 z m 29.52,212.946 -31.33,-116.051 c -0.68,-2.524 0.3,-5.199 2.44,-6.688 v 0 c 1.84,-1.273 4.21,-1.461 6.22,-0.488 l 194.7,94.219 z M 1459.46,569.02 c -35.05,0 -37.09,-30.168 -37.09,-61.133 0,-33.43 2.04,-61.133 37.91,-61.133 h 11.82 c 12.23,0 16.3,4.07 16.3,16.297 V 569.02 Z m 92.52,-128.379 c 0,-26.496 -14.27,-40.762 -40.76,-40.762 h -69.28 c -69.29,0 -84.77,42.793 -84.77,108.008 0,65.203 15.48,107.996 84.77,107.996 h 46.46 v 69.285 l 63.58,22.641 z m -420.19,134.492 c 0,28.523 14.26,40.75 40.75,40.75 h 50.13 c 58.28,0 98.22,-15.887 98.22,-77.84 V 399.879 h -63.58 v 121.863 c 0,30.969 -8.56,47.278 -39.53,47.278 h -8.16 c -10.18,0 -14.25,-4.082 -14.25,-14.27 V 399.879 h -63.58 z m -42.63,-134.492 c 0,-28.536 -14.27,-40.762 -40.76,-40.762 h -65.212 c -50.934,0 -84.766,22.422 -84.766,77.441 v 138.563 h 63.574 V 494.027 c 0,-31.386 8.965,-47.273 39.944,-47.273 h 9.37 c 10.19,0 14.27,4.07 14.27,14.258 v 154.871 h 63.58 z m -331.402,3.66 c 34.644,0 39.129,20.793 39.129,63.586 0,42.793 -4.485,63.574 -39.129,63.574 -34.637,0 -39.121,-20.781 -39.121,-63.574 0,-42.793 4.484,-63.586 39.121,-63.586 z m 104.332,63.586 c 0,-88.039 -24.863,-110.449 -104.332,-110.449 -79.473,0 -104.336,22.41 -104.336,110.449 0,87.617 24.863,110.449 104.336,110.449 79.469,0 104.332,-22.832 104.332,-110.449 z M 594.941,399.879 c -46.863,0 -76.211,18.75 -76.211,71.726 v 97.415 h -28.531 v 46.863 h 28.531 v 69.285 l 63.575,22.641 v -91.926 h 44.019 V 569.02 h -44.019 v -74.18 c 0,-32.61 4.488,-48.086 39.133,-48.086 h 4.886 v -46.875 z m -298.933,46.875 h 87.211 c 6.113,0 13.445,1.621 13.445,10.996 0,13.047 -15.891,19.969 -30.559,26.492 l -23.64,10.598 c -38.313,17.117 -48.906,29.344 -48.906,65.215 0,39.941 19.156,55.828 59.5,55.828 H 454.945 V 569.02 h -83.136 c -9.375,0 -17.93,-0.411 -17.93,-10.196 0,-12.226 6.926,-15.89 21.191,-22.41 l 30.157,-13.859 c 37.082,-17.121 57.875,-25.676 57.875,-68.879 0,-36.68 -16.301,-53.797 -55.024,-53.797 h -112.07 z m -191.266,68.875 h 66.426 l -27.305,95.363 c -1.633,5.301 -5.703,20.289 -5.703,20.289 0,0 -4.488,-14.988 -6.113,-20.289 z m -24.8631,137.34 c 5.8594,18.597 11.5078,35.461 11.5078,35.461 h 93.9803 c 0,0 1.289,-5.703 10.664,-35.461 l 80.289,-253.09 h -77.027 l -17.531,62.762 H 94.1406 L 76.6172,399.879 H 0 l 79.8789,253.09"
         style="fill:#483092;fill-opacity:1;fill-rule:nonzero;stroke:none"
         id="path52" /><path
         d="m 1702.19,579.672 c -25.91,29.367 -51.81,58.726 -77.71,88.094 -2.53,2.863 -7.26,0.984 -7.13,-2.84 1.62,-47.078 3.24,-94.16 4.86,-141.238 26.66,18.66 53.32,37.324 79.98,55.984 z m -496.9,283.23 c 60.08,-15.984 144.2,-39.64 208.61,-57.004 4.26,-1.148 7.06,4.372 3.6,7.114 -58.51,46.531 -137.6,99.625 -192.15,144.883 -6.69,-31.665 -13.38,-63.329 -20.06,-94.993 z m 332.88,-74.375 c 0.91,-4.14 6.77,-4.32 7.9,-0.234 20.76,74.496 41.52,170.422 62.28,241.667 -46.08,29.16 -92.17,58.32 -138.26,87.48 22.7,-100.27 45.39,-226.135 68.08,-328.913 z m 479.3,-6.812 c -114.21,2.879 -228.42,5.758 -342.63,8.637 -4.71,0.117 -5.49,6.816 -0.93,8.011 98.88,25.95 197.65,63.211 296.52,89.157 15.64,-31.493 31.4,-74.313 47.04,-105.805"
         style="fill:#3ab54a;fill-opacity:1;fill-rule:nonzero;stroke:none"
         id="path54" /><path
         d="m 1633.39,465.961 c -18.2,0 -33,-14.805 -33,-32.996 0,-18.195 14.8,-33 33,-33 18.19,0 33,14.805 33,33 0,18.191 -14.81,32.996 -33,32.996 z m 0,-7.695 c 13.97,0 25.3,-11.328 25.3,-25.301 0,-13.977 -11.33,-25.301 -25.3,-25.301 -13.98,0 -25.31,11.324 -25.31,25.301 0,13.973 11.33,25.301 25.31,25.301 m -4.44,-24.102 h 6.93 c 2.54,0 4.64,2.258 4.64,5.09 0,2.832 -2.1,5.027 -4.64,5.027 h -6.93 z m 5.13,-5.898 h -5.13 v -11.875 h -6.74 v 34.191 h 13.67 c 6.31,0 11.39,-5.078 11.39,-11.328 0,-4.309 -2.69,-8.156 -6.6,-9.973 l 7.57,-12.89 h -7.28 l -6.88,11.875"
         style="fill:#483092;fill-opacity:1;fill-rule:nonzero;stroke:none"
         id="path56" /></g></g></svg>
